<?xml version="1.0" encoding="utf-8"?>
<!-- Generator: Adobe Illustrator 18.0.0, SVG Export Plug-In . SVG Version: 6.00 Build 0)  -->
<!DOCTYPE svg PUBLIC "-//W3C//DTD SVG 1.1//EN" "http://www.w3.org/Graphics/SVG/1.1/DTD/svg11.dtd">
<svg version="1.1" id="Calque_1" xmlns="http://www.w3.org/2000/svg" xmlns:xlink="http://www.w3.org/1999/xlink" x="0px" y="0px"
	 viewBox="0 0 2328 131.2" enable-background="new 0 0 2328 131.2" xml:space="preserve">
<linearGradient id="Union_294_4_" gradientUnits="userSpaceOnUse" x1="-23.3333" y1="57.8938" x2="571.9605" y2="57.8938">
	<stop  offset="0" style="stop-color:#4455FF"/>
	<stop  offset="1" style="stop-color:#DC2E6F"/>
</linearGradient>
<path id="Union_294" fill="url(#Union_294_4_)" d="M352.7,127.6l-7.4-12.9l7.5-13h14.9l7.5,12.9l-7.5,13L352.7,127.6z M346,114.7
	l7.1,12.3h14.2l7.1-12.3l-7.1-12.3h-14.2L346,114.7z M303.5,127.6l-7.5-12.9l7.5-13h15l7.5,12.9l-7.5,13L303.5,127.6z M296.8,114.7
	l7.1,12.3h14.2l7.1-12.3l-7.1-12.3h-14.2L296.8,114.7z M57.9,127.6l-7.4-12.9l7.5-13h15l7.5,12.9l-7.5,13L57.9,127.6z M51.2,114.7
	l7.1,12.3h14.2l7.1-12.3l-7.1-12.3H58.3L51.2,114.7z M8.7,127.6l-7.5-12.9l7.5-13h15l7.5,12.9l-7.5,13L8.7,127.6z M2,114.7L9.1,127
	h14.2l7.1-12.3l-7.1-12.3H9.1L2,114.7z M328.1,113.4l-7.5-12.9l7.5-13h14.9l7.5,12.9l-7.5,13H328.1z M321.4,100.5l7.1,12.3h14.2
	l7.1-12.3l-7.1-12.3h-14.2L321.4,100.5z M33.3,113.4l-7.5-12.9l7.5-13h14.9l7.5,12.9l-7.5,13H33.3z M26.6,100.5l7.1,12.3h14.2
	l7.1-12.3l-7.1-12.3H33.7L26.6,100.5z M524.9,113.4l-7.5-12.9l7.5-12.9h15l7.5,12.9l-7.5,12.9H524.9z M518.2,100.5l7.1,12.3h14.2
	l7.1-12.3l-7.1-12.3h-14.2L518.2,100.5z M475.8,113.4l-7.5-12.9l7.5-12.9h15l7.5,12.9l-7.5,12.9L475.8,113.4z M469,100.5l7.1,12.3
	h14.2l7.1-12.3l-7.1-12.3h-14.2L469,100.5z M426.5,113.4l-7.5-12.9l7.5-12.9h15l7.5,12.9l-7.5,12.9H426.5z M419.8,100.5l7.1,12.3
	h14.2l7.1-12.3l-7.1-12.3h-14.2L419.8,100.5z M377.4,113.4l-7.5-12.9l7.5-12.9h15l7.5,12.9l-7.5,12.9H377.4z M370.6,100.5l7.1,12.3
	h14.2l7.1-12.3l-7.1-12.3h-14.2L370.6,100.5z M278.9,113.4l-7.5-12.9l7.5-12.9h15l7.5,12.9l-7.5,12.9H278.9z M272.2,100.5l7.1,12.3
	h14.2l7.1-12.3l-7.1-12.3h-14.2L272.2,100.5z M230.1,113.4l-7.5-12.9l7.5-12.9h15l7.5,12.9l-7.5,12.9H230.1z M223.4,100.5l7.1,12.3
	h14.2l7.1-12.3l-7.1-12.3h-14.2L223.4,100.5z M180.9,113.4l-7.5-12.9l7.5-12.9h15l7.5,12.9l-7.5,12.9H180.9z M174.2,100.5l7.1,12.3
	h14.2l7.1-12.3l-7.1-12.3h-14.2L174.2,100.5z M131.7,113.4l-7.5-12.9l7.5-12.9h15l7.5,12.9l-7.5,12.9H131.7z M125,100.5l7.1,12.3
	h14.2l7.1-12.3l-7.1-12.3h-14.2L125,100.5z M82.5,113.4l-7.5-12.9l7.5-12.9h15l7.5,12.9l-7.5,12.9H82.5z M75.8,100.5l7.1,12.3h14.2
	l7.1-12.3l-7.1-12.3H82.9L75.8,100.5z M-15.9,113.4l-7.5-12.9l7.5-12.9h15l7.5,12.9l-7.5,12.9L-15.9,113.4z M-22.6,100.5l7.1,12.3
	h14.2l7.1-12.3l-7.1-12.3h-14.2L-22.6,100.5z M549.5,99.2l-7.5-12.9l7.5-12.9h15l7.5,12.9l-7.5,12.9H549.5z M542.8,86.3l7.1,12.3
	h14.2l7.1-12.3L564.1,74h-14.2L542.8,86.3z M451.1,99.2l-7.5-12.9l7.5-12.9h15l7.5,12.9l-7.5,12.9H451.1z M444.4,86.3l7.1,12.3h14.2
	l7.1-12.3L465.7,74h-14.2L444.4,86.3z M401.9,99.2l-7.5-12.9l7.5-12.9h15l7.5,12.9l-7.5,12.9H401.9z M395.2,86.3l7.1,12.3h14.2
	l7.1-12.3L416.5,74h-14.2L395.2,86.3z M352.8,99.2l-7.5-12.9l7.5-12.9h14.9l7.5,12.9l-7.5,12.9H352.8z M346,86.3l7.1,12.3h14.2
	l7.1-12.3L367.3,74h-14.2L346,86.3z M303.5,99.2l-7.5-12.9l7.5-12.9h15l7.5,12.9l-7.5,12.9H303.5z M296.8,86.3l7.1,12.3h14.2
	l7.1-12.3L318.1,74H304L296.8,86.3z M254.7,99.2l-7.5-12.9l7.5-12.9h15l7.5,12.9l-7.5,12.9H254.7z M248,86.3l7.1,12.3h14.2l7.1-12.3
	L269.3,74h-14.2L248,86.3z M156.3,99.2l-7.5-12.9l7.5-12.9h15l7.5,12.9l-7.5,12.9H156.3z M149.6,86.3l7.1,12.3h14.2l7.1-12.3
	L170.9,74h-14.2L149.6,86.3z M107.1,99.2l-7.5-12.9l7.5-12.9h15l7.5,12.9l-7.5,12.9H107.1z M100.4,86.3l7.1,12.3h14.2l7.1-12.3
	L121.7,74h-14.2L100.4,86.3z M57.9,99.2l-7.5-12.9l7.5-12.9h15l7.5,12.9l-7.5,12.9H57.9z M51.2,86.3l7.1,12.3h14.2l7.1-12.3L72.5,74
	H58.3L51.2,86.3z M8.7,99.2L1.3,86.3l7.5-12.9h15l7.5,12.9l-7.5,12.9H8.7z M2,86.3l7.1,12.3h14.2l7.1-12.3L23.3,74H9.1L2,86.3z
	 M524.9,85l-7.5-12.9l7.5-12.9h15l7.5,12.9L539.9,85H524.9z M518.2,72.1l7.1,12.3h14.2l7.1-12.3l-7.1-12.3h-14.2L518.2,72.1z
	 M475.7,85l-7.5-12.9l7.5-12.9h15l7.5,12.9L490.7,85H475.7z M469,72.1l7.1,12.3h14.2l7.1-12.3l-7.1-12.3h-14.2L469,72.1z M426.5,85
	l-7.5-12.9l7.5-12.9h15l7.5,12.9L441.5,85H426.5z M419.8,72.1l7.1,12.3h14.2l7.1-12.3l-7.1-12.3h-14.2L419.8,72.1z M377.4,85
	l-7.5-12.9l7.5-12.9h15l7.5,12.9L392.3,85H377.4z M370.6,72.1l7.1,12.3H392l7.1-12.3l-7.1-12.3h-14.2L370.6,72.1z M328.1,85
	l-7.5-12.9l7.5-12.9h15l7.5,12.9L343.1,85H328.1z M321.4,72.1l7.1,12.3h14.2l7.1-12.3l-7.1-12.3h-14.2L321.4,72.1z M278.9,85
	l-7.5-12.9l7.5-12.9h15l7.5,12.9L293.9,85H278.9z M272.2,72.1l7.1,12.3h14.2l7.1-12.3l-7.1-12.3h-14.2L272.2,72.1z M230.1,85
	l-7.5-12.9l7.5-12.9h15l7.5,12.9L245.1,85H230.1z M223.4,72.1l7.1,12.3h14.2l7.1-12.3l-7.1-12.3h-14.2L223.4,72.1z M180.9,85
	l-7.5-12.9l7.5-12.9h15l7.5,12.9L195.9,85H180.9z M174.2,72.1l7.1,12.3h14.2l7.1-12.3l-7.1-12.3h-14.2L174.2,72.1z M131.7,85
	l-7.5-12.9l7.5-12.9h15l7.5,12.9L146.7,85H131.7z M125,72.1l7.1,12.3h14.2l7.1-12.3l-7.1-12.3h-14.2L125,72.1z M82.5,85l-7.5-12.9
	l7.5-12.9h15l7.5,12.9L97.5,85H82.5z M75.8,72.1l7.1,12.3h14.2l7.1-12.3l-7.1-12.3H82.9L75.8,72.1z M33.3,85l-7.5-12.9l7.5-12.9h15
	l7.5,12.9L48.3,85H33.3z M26.6,72.1l7.1,12.3h14.2L55,72.1l-7.1-12.3H33.7L26.6,72.1z M-15.9,85l-7.5-12.9l7.5-12.9h15l7.5,12.9
	L-0.9,85L-15.9,85z M-22.6,72.1l7.1,12.3h14.2l7.1-12.3l-7.1-12.3h-14.2L-22.6,72.1z M549.5,70.8l-7.5-12.9l7.5-13h15l7.5,13
	l-7.5,12.9H549.5z M542.8,57.9l7.1,12.3h14.2l7.1-12.3l-7.1-12.3h-14.2L542.8,57.9z M254.7,70.8l-7.5-12.9l7.5-13h15l7.5,13
	l-7.5,12.9H254.7z M248,57.9l7.1,12.3h14.2l7.1-12.3l-7.1-12.3h-14.2L248,57.9z M500.3,70.8l-7.5-12.9l7.5-12.9h15l7.5,12.9
	l-7.5,12.9H500.3z M493.6,57.9l7.1,12.3h14.2l7.1-12.3l-7.1-12.3h-14.2L493.6,57.9z M451.1,70.8l-7.5-12.9l7.5-12.9h15l7.5,12.9
	l-7.5,12.9H451.1z M444.4,57.9l7.1,12.3h14.2l7.1-12.3l-7.1-12.3h-14.2L444.4,57.9z M401.9,70.8l-7.5-12.9l7.5-12.9h15l7.5,12.9
	l-7.5,12.9H401.9z M395.2,57.9l7.1,12.3h14.2l7.1-12.3l-7.1-12.3h-14.2L395.2,57.9z M352.8,70.8l-7.5-12.9l7.5-12.9h14.9l7.5,12.9
	l-7.5,12.9H352.8z M346,57.9l7.1,12.3h14.2l7.1-12.3l-7.1-12.3h-14.2L346,57.9z M303.5,70.8l-7.5-12.9l7.5-12.9h15l7.5,12.9
	l-7.5,12.9H303.5z M296.8,57.9l7.1,12.3h14.2l7.1-12.3l-7.1-12.3h-14.2L296.8,57.9z M205.5,70.8l-7.5-12.9l7.5-12.9h15l7.5,12.9
	l-7.5,12.9H205.5z M198.8,57.9l7.1,12.3h14.2l7.1-12.3l-7.1-12.3h-14.2L198.8,57.9z M156.3,70.8l-7.5-12.9l7.5-12.9h15l7.5,12.9
	l-7.5,12.9H156.3z M149.6,57.9l7.1,12.3h14.2l7.1-12.3l-7.1-12.3h-14.2L149.6,57.9z M107.1,70.8l-7.5-12.9l7.5-12.9h15l7.5,12.9
	l-7.5,12.9H107.1z M100.4,57.9l7.1,12.3h14.2l7.1-12.3l-7.1-12.3h-14.2L100.4,57.9z M57.9,70.8l-7.5-12.9l7.5-12.9h15l7.5,12.9
	l-7.5,12.9H57.9z M51.2,57.9l7.1,12.3h14.2l7.1-12.3l-7.1-12.3H58.3L51.2,57.9z M8.7,70.8L1.3,57.9l7.5-12.9h15l7.5,12.9l-7.5,12.9
	H8.7z M2,57.9l7.1,12.3h14.2l7.1-12.3l-7.1-12.3H9.1L2,57.9z M524.9,56.6l-7.5-12.9l7.5-12.9h15l7.5,12.9l-7.5,12.9H524.9z
	 M518.2,43.7l7.1,12.3h14.2l7.1-12.3l-7.1-12.3h-14.2L518.2,43.7z M475.7,56.6l-7.5-12.9l7.5-12.9h15l7.5,12.9l-7.5,12.9H475.7z
	 M469,43.7l7.1,12.3h14.2l7.1-12.3l-7.1-12.3h-14.2L469,43.7z M426.5,56.6l-7.5-12.9l7.5-12.9h15l7.5,12.9l-7.5,12.9H426.5z
	 M419.8,43.7l7.1,12.3h14.2l7.1-12.3l-7.1-12.3h-14.2L419.8,43.7z M377.4,56.6l-7.5-12.9l7.5-12.9h15l7.5,12.9l-7.5,12.9H377.4z
	 M370.6,43.7l7.1,12.3h14.2l7.1-12.3l-7.1-12.3h-14.2L370.6,43.7z M328.1,56.6l-7.5-12.9l7.5-12.9h15l7.5,12.9l-7.5,12.9H328.1z
	 M321.4,43.7l7.1,12.3h14.2l7.1-12.3l-7.1-12.3h-14.2L321.4,43.7z M278.9,56.6l-7.5-12.9l7.5-12.9h15l7.5,12.9l-7.5,12.9H278.9z
	 M272.2,43.7l7.1,12.3h14.2l7.1-12.3l-7.1-12.3h-14.2L272.2,43.7z M230.1,56.6l-7.5-12.9l7.5-12.9h15l7.5,12.9l-7.5,12.9H230.1z
	 M223.4,43.7l7.1,12.3h14.2l7.1-12.3l-7.1-12.3h-14.2L223.4,43.7z M180.9,56.6l-7.5-12.9l7.5-12.9h15l7.5,12.9l-7.5,12.9H180.9z
	 M174.1,43.7l7.1,12.3h14.2l7.1-12.3l-7.1-12.3h-14.2L174.1,43.7z M131.7,56.6l-7.5-12.9l7.5-12.9h15l7.5,12.9l-7.5,12.9H131.7z
	 M125,43.7l7.1,12.3h14.2l7.1-12.3l-7.1-12.3h-14.2L125,43.7z M82.5,56.6l-7.5-12.9l7.5-12.9h15l7.5,12.9l-7.5,12.9H82.5z
	 M75.8,43.7L82.9,56h14.2l7.1-12.3l-7.1-12.3H82.9L75.8,43.7z M33.3,56.6l-7.5-12.9l7.5-12.9h15l7.5,12.9l-7.5,12.9H33.3z
	 M26.5,43.7L33.7,56h14.2L55,43.7l-7.1-12.3H33.7L26.5,43.7z M-15.9,56.6l-7.5-12.9l7.5-12.9h15l7.5,12.9l-7.5,12.9L-15.9,56.6z
	 M-22.6,43.7l7.1,12.3h14.2l7.1-12.3l-7.1-12.3h-14.2L-22.6,43.7z M549.5,42.4l-7.5-12.9l7.5-12.9h15l7.5,12.9l-7.5,12.9L549.5,42.4
	z M542.8,29.5l7.1,12.3h14.2l7.1-12.3l-7.1-12.3h-14.2L542.8,29.5z M500.3,42.4l-7.5-12.9l7.5-12.9h15l7.5,12.9l-7.5,12.9
	L500.3,42.4z M493.6,29.5l7.1,12.3h14.2l7.1-12.3l-7.1-12.3h-14.2L493.6,29.5z M451.1,42.4l-7.5-12.9l7.5-12.9h15l7.5,12.9
	l-7.5,12.9L451.1,42.4z M444.4,29.5l7.1,12.3h14.2l7.1-12.3l-7.1-12.3h-14.2L444.4,29.5z M401.9,42.4l-7.5-12.9l7.5-12.9h15
	l7.5,12.9l-7.5,12.9L401.9,42.4z M395.2,29.5l7.1,12.3h14.2l7.1-12.3l-7.1-12.3h-14.2L395.2,29.5z M352.8,42.4l-7.5-12.9l7.5-12.9
	h14.9l7.5,12.9l-7.5,12.9L352.8,42.4z M346,29.5l7.1,12.3h14.2l7.1-12.3l-7.1-12.3h-14.2L346,29.5z M303.5,42.4l-7.5-12.9l7.5-12.9
	h15l7.5,12.9l-7.5,12.9L303.5,42.4z M296.8,29.5l7.1,12.3h14.2l7.1-12.3l-7.1-12.3H304L296.8,29.5z M254.7,42.4l-7.5-12.9l7.5-12.9
	h15l7.5,12.9l-7.5,12.9L254.7,42.4z M248,29.5l7.1,12.3h14.2l7.1-12.3l-7.1-12.3h-14.2L248,29.5z M205.5,42.4l-7.5-12.9l7.5-12.9h15
	l7.5,12.9l-7.5,12.9L205.5,42.4z M198.8,29.5l7.1,12.3h14.2l7.1-12.3l-7.1-12.3h-14.2L198.8,29.5z M156.3,42.4l-7.5-12.9l7.5-12.9
	h15l7.5,12.9l-7.5,12.9L156.3,42.4z M149.6,29.5l7.1,12.3h14.2l7.1-12.3l-7.1-12.3h-14.2L149.6,29.5z M107.1,42.4l-7.5-12.9
	l7.5-12.9h15l7.5,12.9l-7.5,12.9L107.1,42.4z M100.4,29.5l7.1,12.3h14.2l7.1-12.3l-7.1-12.3h-14.2L100.4,29.5z M57.9,42.4l-7.5-12.9
	l7.5-12.9h15l7.5,12.9l-7.5,12.9L57.9,42.4z M51.2,29.5l7.1,12.3h14.2l7.1-12.3l-7.1-12.3H58.3L51.2,29.5z M8.7,42.4L1.3,29.5
	l7.5-12.9h15l7.5,12.9l-7.5,12.9L8.7,42.4z M2,29.5l7.1,12.3h14.2l7.1-12.3l-7.1-12.3H9.1L2,29.5z M278.9,28.2l-7.5-12.9l7.5-13h15
	l7.5,13l-7.5,12.9H278.9z M272.2,15.3l7.1,12.3h14.2l7.1-12.3L293.5,3h-14.2L272.2,15.3z M-15.9,28.2l-7.5-12.9l7.5-13h15l7.5,13
	l-7.5,12.9L-15.9,28.2z M-22.6,15.3l7.1,12.3h14.2l7.1-12.3L-1.3,3h-14.2L-22.6,15.3z M524.9,28.2l-7.5-12.9l7.5-12.9h15l7.5,12.9
	l-7.5,12.9H524.9z M518.2,15.3l7.1,12.3h14.2l7.1-12.3L539.5,3h-14.2L518.2,15.3z M475.8,28.2l-7.5-12.9l7.5-12.9h15l7.5,12.9
	l-7.5,12.9H475.8z M469,15.3l7.1,12.3h14.2l7.1-12.3L490.3,3h-14.2L469,15.3z M426.5,28.2l-7.5-12.9l7.5-12.9h15l7.5,12.9l-7.5,12.9
	H426.5z M419.8,15.3l7.1,12.3h14.2l7.1-12.3L441.1,3h-14.2L419.8,15.3z M377.4,28.2l-7.5-12.9l7.5-12.9h15l7.5,12.9l-7.5,12.9H377.4
	z M370.6,15.3l7.1,12.3h14.2l7.1-12.3L391.9,3h-14.2L370.6,15.3z M328.2,28.2l-7.5-12.9l7.5-12.9h15l7.5,12.9l-7.5,12.9H328.2z
	 M321.4,15.3l7.1,12.3h14.2l7.1-12.3L342.7,3h-14.2L321.4,15.3z M230.1,28.2l-7.5-12.9l7.5-12.9h15l7.5,12.9l-7.5,12.9H230.1z
	 M223.4,15.3l7.1,12.3h14.2l7.1-12.3L244.7,3h-14.2L223.4,15.3z M180.9,28.2l-7.5-12.9l7.5-12.9h15l7.5,12.9l-7.5,12.9H180.9z
	 M174.2,15.3l7.1,12.3h14.2l7.1-12.3L195.5,3h-14.2L174.2,15.3z M131.7,28.2l-7.5-12.9l7.5-12.9h15l7.5,12.9l-7.5,12.9L131.7,28.2z
	 M124.9,15.3l7.1,12.3h14.2l7.1-12.3L146.3,3h-14.2L124.9,15.3z M82.5,28.2l-7.5-12.9l7.5-12.9h15l7.5,12.9l-7.5,12.9L82.5,28.2z
	 M75.8,15.3l7.1,12.3h14.2l7.1-12.3L97.1,3H82.9L75.8,15.3z M33.3,28.2l-7.5-12.9l7.5-12.9h14.9l7.5,12.9l-7.5,12.9L33.3,28.2z
	 M26.6,15.3l7.1,12.3h14.2L55,15.3L47.9,3H33.7L26.6,15.3z M549.5,14l-7.5-12.9l7.5-13h15l7.5,13L564.5,14H549.5z M542.8,1.1
	l7.1,12.3h14.2l7.1-12.3l-7.1-12.3h-14.2L542.8,1.1z M254.7,14l-7.5-12.9l7.5-13h15l7.5,13L269.7,14H254.7z M247.9,1.1l7.1,12.3
	h14.2l7.1-12.3l-7.1-12.3h-14.2L247.9,1.1z M500.3,14l-7.5-12.9l7.5-12.9h15l7.5,12.9L515.3,14H500.3z M493.6,1.1l7.1,12.3h14.2
	L522,1.1l-7.1-12.3h-14.2L493.6,1.1z M451.1,14l-7.5-12.9l7.5-12.9h15l7.5,12.9L466.1,14H451.1z M444.4,1.1l7.1,12.3h14.2l7.1-12.3
	l-7.1-12.3h-14.2L444.4,1.1z M401.9,14l-7.5-12.9l7.5-12.9h15l7.5,12.9L416.9,14H401.9z M395.2,1.1l7.1,12.3h14.2l7.1-12.3
	l-7.1-12.3h-14.2L395.2,1.1z M352.7,14l-7.5-12.9l7.5-12.9h15l7.5,12.9L367.7,14H352.7z M346,1.1l7.1,12.3h14.2l7.1-12.3l-7.1-12.3
	h-14.2L346,1.1z M303.5,14l-7.5-12.9l7.5-12.9h15L326,1.1L318.5,14L303.5,14z M296.8,1.1l7.1,12.3h14.2l7.1-12.3l-7.1-12.3h-14.2
	L296.8,1.1z M205.5,14l-7.5-12.9l7.5-12.9h15l7.5,12.9L220.5,14L205.5,14z M198.8,1.1l7.1,12.3h14.2l7.1-12.3l-7.1-12.3h-14.2
	L198.8,1.1z M156.3,14l-7.5-12.9l7.5-12.9h15l7.5,12.9L171.3,14L156.3,14z M149.6,1.1l7.1,12.3h14.2L178,1.1l-7.1-12.3h-14.2
	L149.6,1.1z M107.1,14L99.7,1.1l7.5-12.9h15l7.5,12.9L122.1,14L107.1,14z M100.4,1.1l7.1,12.3h14.2l7.1-12.3l-7.1-12.3h-14.2
	L100.4,1.1z M57.9,14L50.5,1.1l7.5-12.9h15l7.5,12.9L72.9,14L57.9,14z M51.2,1.1l7.1,12.3h14.2l7.1-12.3l-7.1-12.3H58.3L51.2,1.1z
	 M8.7,14L1.3,1.1l7.5-12.9h15l7.5,12.9L23.7,14L8.7,14z M2,1.1l7.1,12.3h14.2l7.1-12.3l-7.1-12.3H9.1L2,1.1z"/>
<linearGradient id="Union_294_5_" gradientUnits="userSpaceOnUse" x1="1161.6272" y1="57.8938" x2="566.3333" y2="57.8938">
	<stop  offset="0" style="stop-color:#4455FF"/>
	<stop  offset="1" style="stop-color:#DC2E6F"/>
</linearGradient>
<path id="Union_294_1_" fill="url(#Union_294_5_)" d="M942.4,127.6l-7.4-12.9l7.5-13h14.9l7.5,12.9l-7.5,13L942.4,127.6z
	 M935.7,114.7l7.1,12.3H957l7.1-12.3l-7.1-12.3h-14.2L935.7,114.7z M893.2,127.6l-7.5-12.9l7.5-13h15l7.5,12.9l-7.5,13L893.2,127.6z
	 M886.5,114.7l7.1,12.3h14.2l7.1-12.3l-7.1-12.3h-14.2L886.5,114.7z M647.6,127.6l-7.4-12.9l7.5-13h15l7.5,12.9l-7.5,13L647.6,127.6
	z M640.8,114.7L648,127h14.2l7.1-12.3l-7.1-12.3H648L640.8,114.7z M598.4,127.6l-7.5-12.9l7.5-13h15l7.5,12.9l-7.5,13L598.4,127.6z
	 M591.7,114.7l7.1,12.3H613l7.1-12.3l-7.1-12.3h-14.2L591.7,114.7z M917.8,113.4l-7.5-12.9l7.5-13h14.9l7.5,12.9l-7.5,13H917.8z
	 M911.1,100.5l7.1,12.3h14.2l7.1-12.3l-7.1-12.3h-14.2L911.1,100.5z M623,113.4l-7.5-12.9l7.5-13h14.9l7.5,12.9l-7.5,13H623z
	 M616.2,100.5l7.1,12.3h14.2l7.1-12.3l-7.1-12.3h-14.2L616.2,100.5z M1114.6,113.4l-7.5-12.9l7.5-12.9h15l7.5,12.9l-7.5,12.9H1114.6
	z M1107.9,100.5l7.1,12.3h14.2l7.1-12.3l-7.1-12.3H1115L1107.9,100.5z M1065.4,113.4l-7.5-12.9l7.5-12.9h15l7.5,12.9l-7.5,12.9
	L1065.4,113.4z M1058.7,100.5l7.1,12.3h14.2l7.1-12.3l-7.1-12.3h-14.2L1058.7,100.5z M1016.2,113.4l-7.5-12.9l7.5-12.9h15l7.5,12.9
	l-7.5,12.9H1016.2z M1009.4,100.5l7.1,12.3h14.2l7.1-12.3l-7.1-12.3h-14.2L1009.4,100.5z M967,113.4l-7.5-12.9l7.5-12.9h15l7.5,12.9
	l-7.5,12.9H967z M960.3,100.5l7.1,12.3h14.2l7.1-12.3l-7.1-12.3h-14.2L960.3,100.5z M868.6,113.4l-7.5-12.9l7.5-12.9h15l7.5,12.9
	l-7.5,12.9H868.6z M861.8,100.5l7.1,12.3h14.2l7.1-12.3l-7.1-12.3H869L861.8,100.5z M819.8,113.4l-7.5-12.9l7.5-12.9h15l7.5,12.9
	l-7.5,12.9H819.8z M813.1,100.5l7.1,12.3h14.2l7.1-12.3l-7.1-12.3h-14.2L813.1,100.5z M770.6,113.4l-7.5-12.9l7.5-12.9h15l7.5,12.9
	l-7.5,12.9H770.6z M763.8,100.5l7.1,12.3h14.2l7.1-12.3l-7.1-12.3H771L763.8,100.5z M721.4,113.4l-7.5-12.9l7.5-12.9h15l7.5,12.9
	l-7.5,12.9H721.4z M714.6,100.5l7.1,12.3H736l7.1-12.3L736,88.2h-14.2L714.6,100.5z M672.2,113.4l-7.5-12.9l7.5-12.9h15l7.5,12.9
	l-7.5,12.9H672.2z M665.4,100.5l7.1,12.3h14.2l7.1-12.3l-7.1-12.3h-14.2L665.4,100.5z M573.8,113.4l-7.5-12.9l7.5-12.9h15l7.5,12.9
	l-7.5,12.9L573.8,113.4z M567,100.5l7.1,12.3h14.2l7.1-12.3l-7.1-12.3h-14.2L567,100.5z M1139.2,99.2l-7.5-12.9l7.5-12.9h15
	l7.5,12.9l-7.5,12.9H1139.2z M1132.5,86.3l7.1,12.3h14.2l7.1-12.3l-7.1-12.3h-14.2L1132.5,86.3z M1040.8,99.2l-7.5-12.9l7.5-12.9h15
	l7.5,12.9l-7.5,12.9H1040.8z M1034.1,86.3l7.1,12.3h14.2l7.1-12.3l-7.1-12.3h-14.2L1034.1,86.3z M991.6,99.2l-7.5-12.9l7.5-12.9h15
	l7.5,12.9l-7.5,12.9H991.6z M984.8,86.3l7.1,12.3h14.2l7.1-12.3l-7.1-12.3H992L984.8,86.3z M942.4,99.2L935,86.3l7.5-12.9h14.9
	l7.5,12.9l-7.5,12.9H942.4z M935.7,86.3l7.1,12.3H957l7.1-12.3L957,74h-14.2L935.7,86.3z M893.2,99.2l-7.5-12.9l7.5-12.9h15
	l7.5,12.9l-7.5,12.9H893.2z M886.5,86.3l7.1,12.3h14.2l7.1-12.3L907.8,74h-14.2L886.5,86.3z M844.4,99.2l-7.5-12.9l7.5-12.9h15
	l7.5,12.9l-7.5,12.9H844.4z M837.7,86.3l7.1,12.3H859l7.1-12.3L859,74h-14.2L837.7,86.3z M746,99.2l-7.5-12.9l7.5-12.9h15l7.5,12.9
	l-7.5,12.9H746z M739.2,86.3l7.1,12.3h14.2l7.1-12.3L760.6,74h-14.2L739.2,86.3z M696.8,99.2l-7.5-12.9l7.5-12.9h15l7.5,12.9
	l-7.5,12.9H696.8z M690,86.3l7.1,12.3h14.2l7.1-12.3L711.4,74h-14.2L690,86.3z M647.6,99.2l-7.5-12.9l7.5-12.9h15l7.5,12.9
	l-7.5,12.9H647.6z M640.9,86.3l7.1,12.3h14.2l7.1-12.3L662.2,74H648L640.9,86.3z M598.4,99.2l-7.5-12.9l7.5-12.9h15l7.5,12.9
	l-7.5,12.9H598.4z M591.7,86.3l7.1,12.3H613l7.1-12.3L613,74h-14.2L591.7,86.3z M1114.6,85l-7.5-12.9l7.5-12.9h15l7.5,12.9
	l-7.5,12.9H1114.6z M1107.9,72.1l7.1,12.3h14.2l7.1-12.3l-7.1-12.3H1115L1107.9,72.1z M1065.4,85l-7.5-12.9l7.5-12.9h15l7.5,12.9
	l-7.5,12.9H1065.4z M1058.7,72.1l7.1,12.3h14.2l7.1-12.3l-7.1-12.3h-14.2L1058.7,72.1z M1016.2,85l-7.5-12.9l7.5-12.9h15l7.5,12.9
	l-7.5,12.9H1016.2z M1009.5,72.1l7.1,12.3h14.2l7.1-12.3l-7.1-12.3h-14.2L1009.5,72.1z M967,85l-7.5-12.9l7.5-12.9h15l7.5,12.9
	L982,85H967z M960.3,72.1l7.1,12.3h14.2l7.1-12.3l-7.1-12.3h-14.2L960.3,72.1z M917.8,85l-7.5-12.9l7.5-12.9h15l7.5,12.9L932.8,85
	H917.8z M911.1,72.1l7.1,12.3h14.2l7.1-12.3l-7.1-12.3h-14.2L911.1,72.1z M868.6,85l-7.5-12.9l7.5-12.9h15l7.5,12.9L883.6,85H868.6z
	 M861.9,72.1l7.1,12.3h14.2l7.1-12.3l-7.1-12.3H869L861.9,72.1z M819.8,85l-7.5-12.9l7.5-12.9h15l7.5,12.9L834.7,85H819.8z
	 M813.1,72.1l7.1,12.3h14.2l7.1-12.3l-7.1-12.3h-14.2L813.1,72.1z M770.6,85l-7.5-12.9l7.5-12.9h15l7.5,12.9L785.5,85H770.6z
	 M763.8,72.1l7.1,12.3h14.2l7.1-12.3l-7.1-12.3H771L763.8,72.1z M721.4,85l-7.5-12.9l7.5-12.9h15l7.5,12.9L736.3,85H721.4z
	 M714.7,72.1l7.1,12.3H736l7.1-12.3L736,59.8h-14.2L714.7,72.1z M672.2,85l-7.5-12.9l7.5-12.9h15l7.5,12.9L687.1,85H672.2z
	 M665.5,72.1l7.1,12.3h14.2l7.1-12.3l-7.1-12.3h-14.2L665.5,72.1z M623,85l-7.5-12.9l7.5-12.9h15l7.5,12.9L637.9,85H623z
	 M616.2,72.1l7.1,12.3h14.2l7.1-12.3l-7.1-12.3h-14.2L616.2,72.1z M573.8,85l-7.5-12.9l7.5-12.9h15l7.5,12.9L588.8,85L573.8,85z
	 M567.1,72.1l7.1,12.3h14.2l7.1-12.3l-7.1-12.3h-14.2L567.1,72.1z M1139.2,70.8l-7.5-12.9l7.5-13h15l7.5,13l-7.5,12.9H1139.2z
	 M1132.4,57.9l7.1,12.3h14.2l7.1-12.3l-7.1-12.3h-14.2L1132.4,57.9z M844.4,70.8l-7.5-12.9l7.5-13h15l7.5,13l-7.5,12.9H844.4z
	 M837.6,57.9l7.1,12.3H859l7.1-12.3L859,45.6h-14.2L837.6,57.9z M1090,70.8l-7.5-12.9l7.5-12.9h15l7.5,12.9l-7.5,12.9H1090z
	 M1083.3,57.9l7.1,12.3h14.2l7.1-12.3l-7.1-12.3h-14.2L1083.3,57.9z M1040.8,70.8l-7.5-12.9l7.5-12.9h15l7.5,12.9l-7.5,12.9H1040.8z
	 M1034.1,57.9l7.1,12.3h14.2l7.1-12.3l-7.1-12.3h-14.2L1034.1,57.9z M991.6,70.8l-7.5-12.9l7.5-12.9h15l7.5,12.9l-7.5,12.9H991.6z
	 M984.8,57.9l7.1,12.3h14.2l7.1-12.3l-7.1-12.3H992L984.8,57.9z M942.4,70.8L935,57.9l7.5-12.9h14.9l7.5,12.9l-7.5,12.9H942.4z
	 M935.7,57.9l7.1,12.3H957l7.1-12.3L957,45.6h-14.2L935.7,57.9z M893.2,70.8l-7.5-12.9l7.5-12.9h15l7.5,12.9l-7.5,12.9H893.2z
	 M886.5,57.9l7.1,12.3h14.2l7.1-12.3l-7.1-12.3h-14.2L886.5,57.9z M795.2,70.8l-7.5-12.9l7.5-12.9h15l7.5,12.9l-7.5,12.9H795.2z
	 M788.4,57.9l7.1,12.3h14.2l7.1-12.3l-7.1-12.3h-14.2L788.4,57.9z M746,70.8l-7.5-12.9l7.5-12.9h15l7.5,12.9l-7.5,12.9H746z
	 M739.2,57.9l7.1,12.3h14.2l7.1-12.3l-7.1-12.3h-14.2L739.2,57.9z M696.8,70.8l-7.5-12.9l7.5-12.9h15l7.5,12.9l-7.5,12.9H696.8z
	 M690,57.9l7.1,12.3h14.2l7.1-12.3l-7.1-12.3h-14.2L690,57.9z M647.6,70.8l-7.5-12.9l7.5-12.9h15l7.5,12.9l-7.5,12.9H647.6z
	 M640.8,57.9l7.1,12.3h14.2l7.1-12.3l-7.1-12.3H648L640.8,57.9z M598.4,70.8l-7.5-12.9l7.5-12.9h15l7.5,12.9l-7.5,12.9H598.4z
	 M591.7,57.9l7.1,12.3H613l7.1-12.3L613,45.6h-14.2L591.7,57.9z M1114.6,56.6l-7.5-12.9l7.5-12.9h15l7.5,12.9l-7.5,12.9H1114.6z
	 M1107.8,43.7L1115,56h14.2l7.1-12.3l-7.1-12.3H1115L1107.8,43.7z M1065.4,56.6l-7.5-12.9l7.5-12.9h15l7.5,12.9l-7.5,12.9H1065.4z
	 M1058.6,43.7l7.1,12.3h14.2l7.1-12.3l-7.1-12.3h-14.2L1058.6,43.7z M1016.2,56.6l-7.5-12.9l7.5-12.9h15l7.5,12.9l-7.5,12.9H1016.2z
	 M1009.4,43.7l7.1,12.3h14.2l7.1-12.3l-7.1-12.3h-14.2L1009.4,43.7z M967,56.6l-7.5-12.9l7.5-12.9h15l7.5,12.9L982,56.6H967z
	 M960.3,43.7l7.1,12.3h14.2l7.1-12.3l-7.1-12.3h-14.2L960.3,43.7z M917.8,56.6l-7.5-12.9l7.5-12.9h15l7.5,12.9l-7.5,12.9H917.8z
	 M911,43.7l7.1,12.3h14.2l7.1-12.3l-7.1-12.3h-14.2L911,43.7z M868.6,56.6l-7.5-12.9l7.5-12.9h15l7.5,12.9l-7.5,12.9H868.6z
	 M861.8,43.7L869,56h14.2l7.1-12.3l-7.1-12.3H869L861.8,43.7z M819.8,56.6l-7.5-12.9l7.5-12.9h15l7.5,12.9l-7.5,12.9H819.8z
	 M813,43.7l7.1,12.3h14.2l7.1-12.3l-7.1-12.3h-14.2L813,43.7z M770.6,56.6l-7.5-12.9l7.5-12.9h15l7.5,12.9l-7.5,12.9H770.6z
	 M763.8,43.7l7.1,12.3h14.2l7.1-12.3l-7.1-12.3h-14.2L763.8,43.7z M721.4,56.6l-7.5-12.9l7.5-12.9h15l7.5,12.9l-7.5,12.9H721.4z
	 M714.6,43.7l7.1,12.3h14.2l7.1-12.3L736,31.4h-14.2L714.6,43.7z M672.2,56.6l-7.5-12.9l7.5-12.9h15l7.5,12.9l-7.5,12.9H672.2z
	 M665.4,43.7l7.1,12.3h14.2l7.1-12.3l-7.1-12.3h-14.2L665.4,43.7z M623,56.6l-7.5-12.9l7.5-12.9h15l7.5,12.9l-7.5,12.9H623z
	 M616.2,43.7l7.1,12.3h14.2l7.1-12.3l-7.1-12.3h-14.2L616.2,43.7z M573.8,56.6l-7.5-12.9l7.5-12.9h15l7.5,12.9l-7.5,12.9L573.8,56.6
	z M567,43.7l7.1,12.3h14.2l7.1-12.3l-7.1-12.3h-14.2L567,43.7z M1139.2,42.4l-7.5-12.9l7.5-12.9h15l7.5,12.9l-7.5,12.9L1139.2,42.4z
	 M1132.5,29.5l7.1,12.3h14.2l7.1-12.3l-7.1-12.3h-14.2L1132.5,29.5z M1090,42.4l-7.5-12.9l7.5-12.9h15l7.5,12.9l-7.5,12.9L1090,42.4
	z M1083.3,29.5l7.1,12.3h14.2l7.1-12.3l-7.1-12.3h-14.2L1083.3,29.5z M1040.8,42.4l-7.5-12.9l7.5-12.9h15l7.5,12.9l-7.5,12.9
	L1040.8,42.4z M1034.1,29.5l7.1,12.3h14.2l7.1-12.3l-7.1-12.3h-14.2L1034.1,29.5z M991.6,42.4l-7.5-12.9l7.5-12.9h15l7.5,12.9
	l-7.5,12.9L991.6,42.4z M984.8,29.5l7.1,12.3h14.2l7.1-12.3l-7.1-12.3H992L984.8,29.5z M942.4,42.4L935,29.5l7.5-12.9h14.9l7.5,12.9
	l-7.5,12.9L942.4,42.4z M935.7,29.5l7.1,12.3H957l7.1-12.3L957,17.2h-14.2L935.7,29.5z M893.2,42.4l-7.5-12.9l7.5-12.9h15l7.5,12.9
	l-7.5,12.9L893.2,42.4z M886.5,29.5l7.1,12.3h14.2l7.1-12.3l-7.1-12.3h-14.2L886.5,29.5z M844.4,42.4l-7.5-12.9l7.5-12.9h15
	l7.5,12.9l-7.5,12.9L844.4,42.4z M837.7,29.5l7.1,12.3H859l7.1-12.3L859,17.2h-14.2L837.7,29.5z M795.2,42.4l-7.5-12.9l7.5-12.9h15
	l7.5,12.9l-7.5,12.9L795.2,42.4z M788.5,29.5l7.1,12.3h14.2l7.1-12.3l-7.1-12.3h-14.2L788.5,29.5z M746,42.4l-7.5-12.9l7.5-12.9h15
	l7.5,12.9l-7.5,12.9L746,42.4z M739.2,29.5l7.1,12.3h14.2l7.1-12.3l-7.1-12.3h-14.2L739.2,29.5z M696.8,42.4l-7.5-12.9l7.5-12.9h15
	l7.5,12.9l-7.5,12.9L696.8,42.4z M690,29.5l7.1,12.3h14.2l7.1-12.3l-7.1-12.3h-14.2L690,29.5z M647.6,42.4l-7.5-12.9l7.5-12.9h15
	l7.5,12.9l-7.5,12.9L647.6,42.4z M640.9,29.5l7.1,12.3h14.2l7.1-12.3l-7.1-12.3H648L640.9,29.5z M598.4,42.4l-7.5-12.9l7.5-12.9h15
	l7.5,12.9l-7.5,12.9L598.4,42.4z M591.7,29.5l7.1,12.3H613l7.1-12.3L613,17.2h-14.2L591.7,29.5z M868.6,28.2l-7.5-12.9l7.5-13h15
	l7.5,13l-7.5,12.9H868.6z M861.8,15.3l7.1,12.3h14.2l7.1-12.3L883.2,3H869L861.8,15.3z M573.8,28.2l-7.5-12.9l7.5-13h15l7.5,13
	l-7.5,12.9L573.8,28.2z M567,15.3l7.1,12.3h14.2l7.1-12.3L588.4,3h-14.2L567,15.3z M1114.6,28.2l-7.5-12.9l7.5-12.9h15l7.5,12.9
	l-7.5,12.9H1114.6z M1107.8,15.3l7.1,12.3h14.2l7.1-12.3L1129.2,3H1115L1107.8,15.3z M1065.4,28.2l-7.5-12.9l7.5-12.9h15l7.5,12.9
	l-7.5,12.9H1065.4z M1058.7,15.3l7.1,12.3h14.2l7.1-12.3L1080,3h-14.2L1058.7,15.3z M1016.2,28.2l-7.5-12.9l7.5-12.9h15l7.5,12.9
	l-7.5,12.9H1016.2z M1009.4,15.3l7.1,12.3h14.2l7.1-12.3L1030.8,3h-14.2L1009.4,15.3z M967,28.2l-7.5-12.9L967,2.3h15l7.5,12.9
	L982,28.2H967z M960.3,15.3l7.1,12.3h14.2l7.1-12.3L981.6,3h-14.2L960.3,15.3z M917.8,28.2l-7.5-12.9l7.5-12.9h15l7.5,12.9
	l-7.5,12.9H917.8z M911.1,15.3l7.1,12.3h14.2l7.1-12.3L932.4,3h-14.2L911.1,15.3z M819.8,28.2l-7.5-12.9l7.5-12.9h15l7.5,12.9
	l-7.5,12.9H819.8z M813,15.3l7.1,12.3h14.2l7.1-12.3L834.4,3h-14.2L813,15.3z M770.6,28.2l-7.5-12.9l7.5-12.9h15l7.5,12.9l-7.5,12.9
	H770.6z M763.8,15.3l7.1,12.3h14.2l7.1-12.3L785.2,3H771L763.8,15.3z M721.4,28.2l-7.5-12.9l7.5-12.9h15l7.5,12.9l-7.5,12.9
	L721.4,28.2z M714.6,15.3l7.1,12.3H736l7.1-12.3L736,3h-14.2L714.6,15.3z M672.2,28.2l-7.5-12.9l7.5-12.9h15l7.5,12.9l-7.5,12.9
	L672.2,28.2z M665.4,15.3l7.1,12.3h14.2l7.1-12.3L686.8,3h-14.2L665.4,15.3z M623,28.2l-7.5-12.9L623,2.3H638l7.5,12.9L638,28.2
	L623,28.2z M616.2,15.3l7.1,12.3h14.2l7.1-12.3L637.6,3h-14.2L616.2,15.3z M1139.2,14l-7.5-12.9l7.5-13h15l7.5,13l-7.5,12.9H1139.2z
	 M1132.4,1.1l7.1,12.3h14.2l7.1-12.3l-7.1-12.3h-14.2L1132.4,1.1z M844.4,14l-7.5-12.9l7.5-13h15l7.5,13L859.3,14H844.4z M837.6,1.1
	l7.1,12.3h14.2l7.1-12.3l-7.1-12.3h-14.2L837.6,1.1z M1090,14l-7.5-12.9l7.5-12.9h15l7.5,12.9L1105,14H1090z M1083.2,1.1l7.1,12.3
	h14.2l7.1-12.3l-7.1-12.3h-14.2L1083.2,1.1z M1040.8,14l-7.5-12.9l7.5-12.9h15l7.5,12.9l-7.5,12.9H1040.8z M1034.1,1.1l7.1,12.3
	h14.2l7.1-12.3l-7.1-12.3h-14.2L1034.1,1.1z M991.6,14l-7.5-12.9l7.5-12.9h15l7.5,12.9l-7.5,12.9H991.6z M984.8,1.1l7.1,12.3h14.2
	l7.1-12.3l-7.1-12.3H992L984.8,1.1z M942.4,14l-7.5-12.9l7.5-12.9h15l7.5,12.9L957.4,14H942.4z M935.7,1.1l7.1,12.3H957l7.1-12.3
	L957-11.2h-14.2L935.7,1.1z M893.2,14l-7.5-12.9l7.5-12.9h15l7.5,12.9L908.2,14L893.2,14z M886.5,1.1l7.1,12.3h14.2l7.1-12.3
	l-7.1-12.3h-14.2L886.5,1.1z M795.2,14l-7.5-12.9l7.5-12.9h15l7.5,12.9L810.1,14L795.2,14z M788.4,1.1l7.1,12.3h14.2l7.1-12.3
	l-7.1-12.3h-14.2L788.4,1.1z M746,14l-7.5-12.9l7.5-12.9h15l7.5,12.9L760.9,14L746,14z M739.2,1.1l7.1,12.3h14.2l7.1-12.3l-7.1-12.3
	h-14.2L739.2,1.1z M696.8,14l-7.5-12.9l7.5-12.9h15l7.5,12.9L711.7,14L696.8,14z M690,1.1l7.1,12.3h14.2l7.1-12.3l-7.1-12.3h-14.2
	L690,1.1z M647.6,14l-7.5-12.9l7.5-12.9h15L670,1.1L662.6,14L647.6,14z M640.8,1.1l7.1,12.3h14.2l7.1-12.3l-7.1-12.3h-14.2
	L640.8,1.1z M598.4,14l-7.5-12.9l7.5-12.9h15l7.5,12.9L613.3,14L598.4,14z M591.7,1.1l7.1,12.3H613l7.1-12.3L613-11.2h-14.2
	L591.7,1.1z"/>
<linearGradient id="Union_294_6_" gradientUnits="userSpaceOnUse" x1="1156.3772" y1="57.8938" x2="1751.671" y2="57.8938">
	<stop  offset="0" style="stop-color:#4455FF"/>
	<stop  offset="1" style="stop-color:#DC2E6F"/>
</linearGradient>
<path id="Union_294_3_" fill="url(#Union_294_6_)" d="M1532.4,127.6l-7.4-12.9l7.5-13h14.9l7.5,12.9l-7.5,13L1532.4,127.6z
	 M1525.7,114.7l7.1,12.3h14.2l7.1-12.3l-7.1-12.3h-14.2L1525.7,114.7z M1483.3,127.6l-7.5-12.9l7.5-13h15l7.5,12.9l-7.5,13
	L1483.3,127.6z M1476.5,114.7l7.1,12.3h14.2l7.1-12.3l-7.1-12.3h-14.2L1476.5,114.7z M1237.6,127.6l-7.4-12.9l7.5-13h15l7.5,12.9
	l-7.5,13L1237.6,127.6z M1230.9,114.7l7.1,12.3h14.2l7.1-12.3l-7.1-12.3H1238L1230.9,114.7z M1188.4,127.6l-7.5-12.9l7.5-13h15
	l7.5,12.9l-7.5,13L1188.4,127.6z M1181.7,114.7l7.1,12.3h14.2l7.1-12.3l-7.1-12.3h-14.2L1181.7,114.7z M1507.8,113.4l-7.5-12.9
	l7.5-13h14.9l7.5,12.9l-7.5,13H1507.8z M1501.1,100.5l7.1,12.3h14.2l7.1-12.3l-7.1-12.3h-14.2L1501.1,100.5z M1213,113.4l-7.5-12.9
	l7.5-13h14.9l7.5,12.9l-7.5,13H1213z M1206.3,100.5l7.1,12.3h14.2l7.1-12.3l-7.1-12.3h-14.2L1206.3,100.5z M1704.7,113.4l-7.5-12.9
	l7.5-12.9h15l7.5,12.9l-7.5,12.9H1704.7z M1697.9,100.5l7.1,12.3h14.2l7.1-12.3l-7.1-12.3H1705L1697.9,100.5z M1655.5,113.4
	l-7.5-12.9l7.5-12.9h15l7.5,12.9l-7.5,12.9L1655.5,113.4z M1648.7,100.5l7.1,12.3h14.2l7.1-12.3l-7.1-12.3h-14.2L1648.7,100.5z
	 M1606.2,113.4l-7.5-12.9l7.5-12.9h15l7.5,12.9l-7.5,12.9H1606.2z M1599.5,100.5l7.1,12.3h14.2l7.1-12.3l-7.1-12.3h-14.2
	L1599.5,100.5z M1557.1,113.4l-7.5-12.9l7.5-12.9h15l7.5,12.9l-7.5,12.9H1557.1z M1550.3,100.5l7.1,12.3h14.2l7.1-12.3l-7.1-12.3
	h-14.2L1550.3,100.5z M1458.7,113.4l-7.5-12.9l7.5-12.9h15l7.5,12.9l-7.5,12.9H1458.7z M1451.9,100.5l7.1,12.3h14.2l7.1-12.3
	l-7.1-12.3H1459L1451.9,100.5z M1409.8,113.4l-7.5-12.9l7.5-12.9h15l7.5,12.9l-7.5,12.9H1409.8z M1403.1,100.5l7.1,12.3h14.2
	l7.1-12.3l-7.1-12.3h-14.2L1403.1,100.5z M1360.6,113.4l-7.5-12.9l7.5-12.9h15l7.5,12.9l-7.5,12.9H1360.6z M1353.9,100.5l7.1,12.3
	h14.2l7.1-12.3l-7.1-12.3H1361L1353.9,100.5z M1311.4,113.4l-7.5-12.9l7.5-12.9h15l7.5,12.9l-7.5,12.9H1311.4z M1304.7,100.5
	l7.1,12.3h14.2l7.1-12.3l-7.1-12.3h-14.2L1304.7,100.5z M1262.2,113.4l-7.5-12.9l7.5-12.9h15l7.5,12.9l-7.5,12.9H1262.2z
	 M1255.5,100.5l7.1,12.3h14.2l7.1-12.3l-7.1-12.3h-14.2L1255.5,100.5z M1163.8,113.4l-7.5-12.9l7.5-12.9h15l7.5,12.9l-7.5,12.9
	L1163.8,113.4z M1157.1,100.5l7.1,12.3h14.2l7.1-12.3l-7.1-12.3h-14.2L1157.1,100.5z M1729.3,99.2l-7.5-12.9l7.5-12.9h15l7.5,12.9
	l-7.5,12.9H1729.3z M1722.5,86.3l7.1,12.3h14.2l7.1-12.3l-7.1-12.3h-14.2L1722.5,86.3z M1630.8,99.2l-7.5-12.9l7.5-12.9h15l7.5,12.9
	l-7.5,12.9H1630.8z M1624.1,86.3l7.1,12.3h14.2l7.1-12.3l-7.1-12.3h-14.2L1624.1,86.3z M1581.7,99.2l-7.5-12.9l7.5-12.9h15l7.5,12.9
	l-7.5,12.9H1581.7z M1574.9,86.3l7.1,12.3h14.2l7.1-12.3l-7.1-12.3H1582L1574.9,86.3z M1532.5,99.2l-7.5-12.9l7.5-12.9h14.9
	l7.5,12.9l-7.5,12.9H1532.5z M1525.7,86.3l7.1,12.3h14.2l7.1-12.3L1547,74h-14.2L1525.7,86.3z M1483.3,99.2l-7.5-12.9l7.5-12.9h15
	l7.5,12.9l-7.5,12.9H1483.3z M1476.6,86.3l7.1,12.3h14.2l7.1-12.3l-7.1-12.3h-14.2L1476.6,86.3z M1434.4,99.2l-7.5-12.9l7.5-12.9h15
	l7.5,12.9l-7.5,12.9H1434.4z M1427.7,86.3l7.1,12.3h14.2l7.1-12.3L1449,74h-14.2L1427.7,86.3z M1336,99.2l-7.5-12.9l7.5-12.9h15
	l7.5,12.9l-7.5,12.9H1336z M1329.3,86.3l7.1,12.3h14.2l7.1-12.3l-7.1-12.3h-14.2L1329.3,86.3z M1286.8,99.2l-7.5-12.9l7.5-12.9h15
	l7.5,12.9l-7.5,12.9H1286.8z M1280.1,86.3l7.1,12.3h14.2l7.1-12.3l-7.1-12.3h-14.2L1280.1,86.3z M1237.6,99.2l-7.5-12.9l7.5-12.9h15
	l7.5,12.9l-7.5,12.9H1237.6z M1230.9,86.3l7.1,12.3h14.2l7.1-12.3l-7.1-12.3H1238L1230.9,86.3z M1188.4,99.2l-7.5-12.9l7.5-12.9h15
	l7.5,12.9l-7.5,12.9H1188.4z M1181.7,86.3l7.1,12.3h14.2l7.1-12.3L1203,74h-14.2L1181.7,86.3z M1704.6,85l-7.5-12.9l7.5-12.9h15
	l7.5,12.9l-7.5,12.9H1704.6z M1697.9,72.1l7.1,12.3h14.2l7.1-12.3l-7.1-12.3H1705L1697.9,72.1z M1655.4,85l-7.5-12.9l7.5-12.9h15
	l7.5,12.9l-7.5,12.9H1655.4z M1648.7,72.1l7.1,12.3h14.2l7.1-12.3l-7.1-12.3h-14.2L1648.7,72.1z M1606.2,85l-7.5-12.9l7.5-12.9h15
	l7.5,12.9l-7.5,12.9H1606.2z M1599.5,72.1l7.1,12.3h14.2l7.1-12.3l-7.1-12.3h-14.2L1599.5,72.1z M1557.1,85l-7.5-12.9l7.5-12.9h15
	l7.5,12.9L1572,85H1557.1z M1550.3,72.1l7.1,12.3h14.2l7.1-12.3l-7.1-12.3h-14.2L1550.3,72.1z M1507.8,85l-7.5-12.9l7.5-12.9h15
	l7.5,12.9l-7.5,12.9H1507.8z M1501.1,72.1l7.1,12.3h14.2l7.1-12.3l-7.1-12.3h-14.2L1501.1,72.1z M1458.7,85l-7.5-12.9l7.5-12.9h15
	l7.5,12.9l-7.5,12.9H1458.7z M1451.9,72.1l7.1,12.3h14.2l7.1-12.3l-7.1-12.3H1459L1451.9,72.1z M1409.8,85l-7.5-12.9l7.5-12.9h15
	l7.5,12.9l-7.5,12.9H1409.8z M1403.1,72.1l7.1,12.3h14.2l7.1-12.3l-7.1-12.3h-14.2L1403.1,72.1z M1360.6,85l-7.5-12.9l7.5-12.9h15
	l7.5,12.9l-7.5,12.9H1360.6z M1353.9,72.1l7.1,12.3h14.2l7.1-12.3l-7.1-12.3H1361L1353.9,72.1z M1311.4,85l-7.5-12.9l7.5-12.9h15
	l7.5,12.9l-7.5,12.9H1311.4z M1304.7,72.1l7.1,12.3h14.2l7.1-12.3l-7.1-12.3h-14.2L1304.7,72.1z M1262.2,85l-7.5-12.9l7.5-12.9h15
	l7.5,12.9l-7.5,12.9H1262.2z M1255.5,72.1l7.1,12.3h14.2l7.1-12.3l-7.1-12.3h-14.2L1255.5,72.1z M1213,85l-7.5-12.9l7.5-12.9h15
	l7.5,12.9L1228,85H1213z M1206.3,72.1l7.1,12.3h14.2l7.1-12.3l-7.1-12.3h-14.2L1206.3,72.1z M1163.8,85l-7.5-12.9l7.5-12.9h15
	l7.5,12.9l-7.5,12.9L1163.8,85z M1157.1,72.1l7.1,12.3h14.2l7.1-12.3l-7.1-12.3h-14.2L1157.1,72.1z M1729.3,70.8l-7.5-12.9l7.5-13
	h15l7.5,13l-7.5,12.9H1729.3z M1722.5,57.9l7.1,12.3h14.2l7.1-12.3l-7.1-12.3h-14.2L1722.5,57.9z M1434.4,70.8l-7.5-12.9l7.5-13h15
	l7.5,13l-7.5,12.9H1434.4z M1427.7,57.9l7.1,12.3h14.2l7.1-12.3l-7.1-12.3h-14.2L1427.7,57.9z M1680.1,70.8l-7.5-12.9l7.5-12.9h15
	l7.5,12.9l-7.5,12.9H1680.1z M1673.3,57.9l7.1,12.3h14.2l7.1-12.3l-7.1-12.3h-14.2L1673.3,57.9z M1630.8,70.8l-7.5-12.9l7.5-12.9h15
	l7.5,12.9l-7.5,12.9H1630.8z M1624.1,57.9l7.1,12.3h14.2l7.1-12.3l-7.1-12.3h-14.2L1624.1,57.9z M1581.7,70.8l-7.5-12.9l7.5-12.9h15
	l7.5,12.9l-7.5,12.9H1581.7z M1574.9,57.9l7.1,12.3h14.2l7.1-12.3l-7.1-12.3H1582L1574.9,57.9z M1532.5,70.8l-7.5-12.9l7.5-12.9
	h14.9l7.5,12.9l-7.5,12.9H1532.5z M1525.7,57.9l7.1,12.3h14.2l7.1-12.3l-7.1-12.3h-14.2L1525.7,57.9z M1483.3,70.8l-7.5-12.9
	l7.5-12.9h15l7.5,12.9l-7.5,12.9H1483.3z M1476.5,57.9l7.1,12.3h14.2l7.1-12.3l-7.1-12.3h-14.2L1476.5,57.9z M1385.2,70.8l-7.5-12.9
	l7.5-12.9h15l7.5,12.9l-7.5,12.9H1385.2z M1378.5,57.9l7.1,12.3h14.2l7.1-12.3l-7.1-12.3h-14.2L1378.5,57.9z M1336,70.8l-7.5-12.9
	l7.5-12.9h15l7.5,12.9l-7.5,12.9H1336z M1329.3,57.9l7.1,12.3h14.2l7.1-12.3l-7.1-12.3h-14.2L1329.3,57.9z M1286.8,70.8l-7.5-12.9
	l7.5-12.9h15l7.5,12.9l-7.5,12.9H1286.8z M1280.1,57.9l7.1,12.3h14.2l7.1-12.3l-7.1-12.3h-14.2L1280.1,57.9z M1237.6,70.8l-7.5-12.9
	l7.5-12.9h15l7.5,12.9l-7.5,12.9H1237.6z M1230.9,57.9l7.1,12.3h14.2l7.1-12.3l-7.1-12.3H1238L1230.9,57.9z M1188.4,70.8l-7.5-12.9
	l7.5-12.9h15l7.5,12.9l-7.5,12.9H1188.4z M1181.7,57.9l7.1,12.3h14.2l7.1-12.3l-7.1-12.3h-14.2L1181.7,57.9z M1704.7,56.6l-7.5-12.9
	l7.5-12.9h15l7.5,12.9l-7.5,12.9H1704.7z M1697.9,43.7L1705,56h14.2l7.1-12.3l-7.1-12.3H1705L1697.9,43.7z M1655.4,56.6l-7.5-12.9
	l7.5-12.9h15l7.5,12.9l-7.5,12.9H1655.4z M1648.7,43.7l7.1,12.3h14.2l7.1-12.3l-7.1-12.3h-14.2L1648.7,43.7z M1606.2,56.6l-7.5-12.9
	l7.5-12.9h15l7.5,12.9l-7.5,12.9H1606.2z M1599.5,43.7l7.1,12.3h14.2l7.1-12.3l-7.1-12.3h-14.2L1599.5,43.7z M1557.1,56.6l-7.5-12.9
	l7.5-12.9h15l7.5,12.9l-7.5,12.9H1557.1z M1550.3,43.7l7.1,12.3h14.2l7.1-12.3l-7.1-12.3h-14.2L1550.3,43.7z M1507.8,56.6l-7.5-12.9
	l7.5-12.9h15l7.5,12.9l-7.5,12.9H1507.8z M1501.1,43.7l7.1,12.3h14.2l7.1-12.3l-7.1-12.3h-14.2L1501.1,43.7z M1458.7,56.6l-7.5-12.9
	l7.5-12.9h15l7.5,12.9l-7.5,12.9H1458.7z M1451.9,43.7L1459,56h14.2l7.1-12.3l-7.1-12.3H1459L1451.9,43.7z M1409.8,56.6l-7.5-12.9
	l7.5-12.9h15l7.5,12.9l-7.5,12.9H1409.8z M1403.1,43.7l7.1,12.3h14.2l7.1-12.3l-7.1-12.3h-14.2L1403.1,43.7z M1360.6,56.6l-7.5-12.9
	l7.5-12.9h15l7.5,12.9l-7.5,12.9H1360.6z M1353.8,43.7L1361,56h14.2l7.1-12.3l-7.1-12.3H1361L1353.8,43.7z M1311.4,56.6l-7.5-12.9
	l7.5-12.9h15l7.5,12.9l-7.5,12.9H1311.4z M1304.7,43.7l7.1,12.3h14.2l7.1-12.3l-7.1-12.3h-14.2L1304.7,43.7z M1262.2,56.6l-7.5-12.9
	l7.5-12.9h15l7.5,12.9l-7.5,12.9H1262.2z M1255.5,43.7l7.1,12.3h14.2l7.1-12.3l-7.1-12.3h-14.2L1255.5,43.7z M1213,56.6l-7.5-12.9
	l7.5-12.9h15l7.5,12.9l-7.5,12.9H1213z M1206.3,43.7l7.1,12.3h14.2l7.1-12.3l-7.1-12.3h-14.2L1206.3,43.7z M1163.8,56.6l-7.5-12.9
	l7.5-12.9h15l7.5,12.9l-7.5,12.9L1163.8,56.6z M1157.1,43.7l7.1,12.3h14.2l7.1-12.3l-7.1-12.3h-14.2L1157.1,43.7z M1729.3,42.4
	l-7.5-12.9l7.5-12.9h15l7.5,12.9l-7.5,12.9L1729.3,42.4z M1722.5,29.5l7.1,12.3h14.2l7.1-12.3l-7.1-12.3h-14.2L1722.5,29.5z
	 M1680.1,42.4l-7.5-12.9l7.5-12.9h15l7.5,12.9l-7.5,12.9L1680.1,42.4z M1673.3,29.5l7.1,12.3h14.2l7.1-12.3l-7.1-12.3h-14.2
	L1673.3,29.5z M1630.8,42.4l-7.5-12.9l7.5-12.9h15l7.5,12.9l-7.5,12.9L1630.8,42.4z M1624.1,29.5l7.1,12.3h14.2l7.1-12.3l-7.1-12.3
	h-14.2L1624.1,29.5z M1581.7,42.4l-7.5-12.9l7.5-12.9h15l7.5,12.9l-7.5,12.9L1581.7,42.4z M1574.9,29.5l7.1,12.3h14.2l7.1-12.3
	l-7.1-12.3H1582L1574.9,29.5z M1532.5,42.4l-7.5-12.9l7.5-12.9h14.9l7.5,12.9l-7.5,12.9L1532.5,42.4z M1525.7,29.5l7.1,12.3h14.2
	l7.1-12.3l-7.1-12.3h-14.2L1525.7,29.5z M1483.3,42.4l-7.5-12.9l7.5-12.9h15l7.5,12.9l-7.5,12.9L1483.3,42.4z M1476.6,29.5l7.1,12.3
	h14.2l7.1-12.3l-7.1-12.3h-14.2L1476.6,29.5z M1434.4,42.4l-7.5-12.9l7.5-12.9h15l7.5,12.9l-7.5,12.9L1434.4,42.4z M1427.7,29.5
	l7.1,12.3h14.2l7.1-12.3l-7.1-12.3h-14.2L1427.7,29.5z M1385.2,42.4l-7.5-12.9l7.5-12.9h15l7.5,12.9l-7.5,12.9L1385.2,42.4z
	 M1378.5,29.5l7.1,12.3h14.2l7.1-12.3l-7.1-12.3h-14.2L1378.5,29.5z M1336,42.4l-7.5-12.9l7.5-12.9h15l7.5,12.9l-7.5,12.9L1336,42.4
	z M1329.3,29.5l7.1,12.3h14.2l7.1-12.3l-7.1-12.3h-14.2L1329.3,29.5z M1286.8,42.4l-7.5-12.9l7.5-12.9h15l7.5,12.9l-7.5,12.9
	L1286.8,42.4z M1280.1,29.5l7.1,12.3h14.2l7.1-12.3l-7.1-12.3h-14.2L1280.1,29.5z M1237.6,42.4l-7.5-12.9l7.5-12.9h15l7.5,12.9
	l-7.5,12.9L1237.6,42.4z M1230.9,29.5l7.1,12.3h14.2l7.1-12.3l-7.1-12.3H1238L1230.9,29.5z M1188.4,42.4l-7.5-12.9l7.5-12.9h15
	l7.5,12.9l-7.5,12.9L1188.4,42.4z M1181.7,29.5l7.1,12.3h14.2l7.1-12.3l-7.1-12.3h-14.2L1181.7,29.5z M1458.7,28.2l-7.5-12.9l7.5-13
	h15l7.5,13l-7.5,12.9H1458.7z M1451.9,15.3l7.1,12.3h14.2l7.1-12.3L1473.2,3H1459L1451.9,15.3z M1163.8,28.2l-7.5-12.9l7.5-13h15
	l7.5,13l-7.5,12.9L1163.8,28.2z M1157.1,15.3l7.1,12.3h14.2l7.1-12.3L1178.4,3h-14.2L1157.1,15.3z M1704.7,28.2l-7.5-12.9l7.5-12.9
	h15l7.5,12.9l-7.5,12.9H1704.7z M1697.9,15.3l7.1,12.3h14.2l7.1-12.3L1719.2,3H1705L1697.9,15.3z M1655.5,28.2l-7.5-12.9l7.5-12.9
	h15l7.5,12.9l-7.5,12.9H1655.5z M1648.7,15.3l7.1,12.3h14.2l7.1-12.3L1670,3h-14.2L1648.7,15.3z M1606.2,28.2l-7.5-12.9l7.5-12.9h15
	l7.5,12.9l-7.5,12.9H1606.2z M1599.5,15.3l7.1,12.3h14.2l7.1-12.3L1620.8,3h-14.2L1599.5,15.3z M1557.1,28.2l-7.5-12.9l7.5-12.9h15
	l7.5,12.9l-7.5,12.9H1557.1z M1550.3,15.3l7.1,12.3h14.2l7.1-12.3L1571.6,3h-14.2L1550.3,15.3z M1507.9,28.2l-7.5-12.9l7.5-12.9h15
	l7.5,12.9l-7.5,12.9H1507.9z M1501.1,15.3l7.1,12.3h14.2l7.1-12.3L1522.4,3h-14.2L1501.1,15.3z M1409.8,28.2l-7.5-12.9l7.5-12.9h15
	l7.5,12.9l-7.5,12.9H1409.8z M1403.1,15.3l7.1,12.3h14.2l7.1-12.3L1424.4,3h-14.2L1403.1,15.3z M1360.6,28.2l-7.5-12.9l7.5-12.9h15
	l7.5,12.9l-7.5,12.9H1360.6z M1353.9,15.3l7.1,12.3h14.2l7.1-12.3L1375.2,3H1361L1353.9,15.3z M1311.4,28.2l-7.5-12.9l7.5-12.9h15
	l7.5,12.9l-7.5,12.9L1311.4,28.2z M1304.7,15.3l7.1,12.3h14.2l7.1-12.3L1326,3h-14.2L1304.7,15.3z M1262.2,28.2l-7.5-12.9l7.5-12.9
	h15l7.5,12.9l-7.5,12.9L1262.2,28.2z M1255.5,15.3l7.1,12.3h14.2l7.1-12.3L1276.8,3h-14.2L1255.5,15.3z M1213.1,28.2l-7.5-12.9
	l7.5-12.9h14.9l7.5,12.9l-7.5,12.9L1213.1,28.2z M1206.3,15.3l7.1,12.3h14.2l7.1-12.3L1227.6,3h-14.2L1206.3,15.3z M1729.2,14
	l-7.5-12.9l7.5-13h15l7.5,13l-7.5,12.9H1729.2z M1722.5,1.1l7.1,12.3h14.2l7.1-12.3l-7.1-12.3h-14.2L1722.5,1.1z M1434.4,14
	L1427,1.1l7.5-13h15l7.5,13l-7.5,12.9H1434.4z M1427.7,1.1l7.1,12.3h14.2l7.1-12.3l-7.1-12.3h-14.2L1427.7,1.1z M1680.1,14
	l-7.5-12.9l7.5-12.9h15l7.5,12.9L1695,14H1680.1z M1673.3,1.1l7.1,12.3h14.2l7.1-12.3l-7.1-12.3h-14.2L1673.3,1.1z M1630.8,14
	l-7.5-12.9l7.5-12.9h15l7.5,12.9l-7.5,12.9H1630.8z M1624.1,1.1l7.1,12.3h14.2l7.1-12.3l-7.1-12.3h-14.2L1624.1,1.1z M1581.6,14
	l-7.5-12.9l7.5-12.9h15l7.5,12.9l-7.5,12.9H1581.6z M1574.9,1.1l7.1,12.3h14.2l7.1-12.3l-7.1-12.3H1582L1574.9,1.1z M1532.5,14
	L1525,1.1l7.5-12.9h15l7.5,12.9l-7.5,12.9H1532.5z M1525.7,1.1l7.1,12.3h14.2l7.1-12.3l-7.1-12.3h-14.2L1525.7,1.1z M1483.3,14
	l-7.5-12.9l7.5-12.9h15l7.5,12.9l-7.5,12.9L1483.3,14z M1476.5,1.1l7.1,12.3h14.2l7.1-12.3l-7.1-12.3h-14.2L1476.5,1.1z M1385.2,14
	l-7.5-12.9l7.5-12.9h15l7.5,12.9l-7.5,12.9L1385.2,14z M1378.5,1.1l7.1,12.3h14.2l7.1-12.3l-7.1-12.3h-14.2L1378.5,1.1z M1336,14
	l-7.5-12.9l7.5-12.9h15l7.5,12.9L1351,14L1336,14z M1329.3,1.1l7.1,12.3h14.2l7.1-12.3l-7.1-12.3h-14.2L1329.3,1.1z M1286.8,14
	l-7.5-12.9l7.5-12.9h15l7.5,12.9l-7.5,12.9L1286.8,14z M1280.1,1.1l7.1,12.3h14.2l7.1-12.3l-7.1-12.3h-14.2L1280.1,1.1z M1237.6,14
	l-7.5-12.9l7.5-12.9h15l7.5,12.9l-7.5,12.9L1237.6,14z M1230.9,1.1l7.1,12.3h14.2l7.1-12.3l-7.1-12.3H1238L1230.9,1.1z M1188.4,14
	L1181,1.1l7.5-12.9h15l7.5,12.9l-7.5,12.9L1188.4,14z M1181.7,1.1l7.1,12.3h14.2l7.1-12.3l-7.1-12.3h-14.2L1181.7,1.1z"/>
<linearGradient id="Union_294_7_" gradientUnits="userSpaceOnUse" x1="2364.9866" y1="57.8938" x2="1748.4426" y2="57.8938">
	<stop  offset="0" style="stop-color:#4455FF"/>
	<stop  offset="1" style="stop-color:#DC2E6F"/>
</linearGradient>
<path id="Union_294_2_" fill="url(#Union_294_7_)" d="M2122.1,127.6l-7.4-12.9l7.5-13h14.9l7.5,12.9l-7.5,13L2122.1,127.6z
	 M2115.4,114.7l7.1,12.3h14.2l7.1-12.3l-7.1-12.3h-14.2L2115.4,114.7z M2072.9,127.6l-7.5-12.9l7.5-13h15l7.5,12.9l-7.5,13
	L2072.9,127.6z M2066.2,114.7l7.1,12.3h14.2l7.1-12.3l-7.1-12.3h-14.2L2066.2,114.7z M1827.3,127.6l-7.4-12.9l7.5-13h15l7.5,12.9
	l-7.5,13L1827.3,127.6z M1820.6,114.7l7.1,12.3h14.2l7.1-12.3l-7.1-12.3h-14.2L1820.6,114.7z M1778.1,127.6l-7.5-12.9l7.5-13h15
	l7.5,12.9l-7.5,13L1778.1,127.6z M1771.4,114.7l7.1,12.3h14.2l7.1-12.3l-7.1-12.3h-14.2L1771.4,114.7z M2097.5,113.4l-7.5-12.9
	l7.5-13h14.9l7.5,12.9l-7.5,13H2097.5z M2090.8,100.5l7.1,12.3h14.2l7.1-12.3l-7.1-12.3h-14.2L2090.8,100.5z M1802.7,113.4
	l-7.5-12.9l7.5-13h14.9l7.5,12.9l-7.5,13H1802.7z M1796,100.5l7.1,12.3h14.2l7.1-12.3l-7.1-12.3h-14.2L1796,100.5z M2294.3,113.4
	l-7.5-12.9l7.5-12.9h15l7.5,12.9l-7.5,12.9H2294.3z M2287.6,100.5l7.1,12.3h14.2l7.1-12.3l-7.1-12.3h-14.2L2287.6,100.5z
	 M2245.1,113.4l-7.5-12.9l7.5-12.9h15l7.5,12.9l-7.5,12.9L2245.1,113.4z M2238.4,100.5l7.1,12.3h14.2l7.1-12.3l-7.1-12.3h-14.2
	L2238.4,100.5z M2195.9,113.4l-7.5-12.9l7.5-12.9h15l7.5,12.9l-7.5,12.9H2195.9z M2189.1,100.5l7.1,12.3h14.2l7.1-12.3l-7.1-12.3
	h-14.2L2189.1,100.5z M2146.7,113.4l-7.5-12.9l7.5-12.9h15l7.5,12.9l-7.5,12.9H2146.7z M2140,100.5l7.1,12.3h14.2l7.1-12.3
	l-7.1-12.3h-14.2L2140,100.5z M2048.3,113.4l-7.5-12.9l7.5-12.9h15l7.5,12.9l-7.5,12.9H2048.3z M2041.6,100.5l7.1,12.3h14.2
	l7.1-12.3l-7.1-12.3h-14.2L2041.6,100.5z M1999.5,113.4l-7.5-12.9l7.5-12.9h15l7.5,12.9l-7.5,12.9H1999.5z M1992.8,100.5l7.1,12.3
	h14.2l7.1-12.3l-7.1-12.3h-14.2L1992.8,100.5z M1950.3,113.4l-7.5-12.9l7.5-12.9h15l7.5,12.9l-7.5,12.9H1950.3z M1943.5,100.5
	l7.1,12.3h14.2l7.1-12.3l-7.1-12.3h-14.2L1943.5,100.5z M1901.1,113.4l-7.5-12.9l7.5-12.9h15l7.5,12.9l-7.5,12.9H1901.1z
	 M1894.3,100.5l7.1,12.3h14.2l7.1-12.3l-7.1-12.3h-14.2L1894.3,100.5z M1851.9,113.4l-7.5-12.9l7.5-12.9h15l7.5,12.9l-7.5,12.9
	H1851.9z M1845.1,100.5l7.1,12.3h14.2l7.1-12.3l-7.1-12.3h-14.2L1845.1,100.5z M1753.5,113.4l-7.5-12.9l7.5-12.9h15l7.5,12.9
	l-7.5,12.9L1753.5,113.4z M1746.7,100.5l7.1,12.3h14.2l7.1-12.3l-7.1-12.3h-14.2L1746.7,100.5z M2318.9,99.2l-7.5-12.9l7.5-12.9h15
	l7.5,12.9l-7.5,12.9H2318.9z M2312.2,86.3l7.1,12.3h14.2l7.1-12.3l-7.1-12.3h-14.2L2312.2,86.3z M2220.5,99.2l-7.5-12.9l7.5-12.9h15
	l7.5,12.9l-7.5,12.9H2220.5z M2213.8,86.3l7.1,12.3h14.2l7.1-12.3l-7.1-12.3h-14.2L2213.8,86.3z M2171.3,99.2l-7.5-12.9l7.5-12.9h15
	l7.5,12.9l-7.5,12.9H2171.3z M2164.6,86.3l7.1,12.3h14.2l7.1-12.3l-7.1-12.3h-14.2L2164.6,86.3z M2122.1,99.2l-7.5-12.9l7.5-12.9
	h14.9l7.5,12.9l-7.5,12.9H2122.1z M2115.4,86.3l7.1,12.3h14.2l7.1-12.3l-7.1-12.3h-14.2L2115.4,86.3z M2072.9,99.2l-7.5-12.9
	l7.5-12.9h15l7.5,12.9l-7.5,12.9H2072.9z M2066.2,86.3l7.1,12.3h14.2l7.1-12.3l-7.1-12.3h-14.2L2066.2,86.3z M2024.1,99.2l-7.5-12.9
	l7.5-12.9h15l7.5,12.9l-7.5,12.9H2024.1z M2017.4,86.3l7.1,12.3h14.2l7.1-12.3l-7.1-12.3h-14.2L2017.4,86.3z M1925.7,99.2l-7.5-12.9
	l7.5-12.9h15l7.5,12.9l-7.5,12.9H1925.7z M1919,86.3l7.1,12.3h14.2l7.1-12.3l-7.1-12.3h-14.2L1919,86.3z M1876.5,99.2l-7.5-12.9
	l7.5-12.9h15l7.5,12.9l-7.5,12.9H1876.5z M1869.7,86.3l7.1,12.3h14.2l7.1-12.3l-7.1-12.3h-14.2L1869.7,86.3z M1827.3,99.2l-7.5-12.9
	l7.5-12.9h15l7.5,12.9l-7.5,12.9H1827.3z M1820.6,86.3l7.1,12.3h14.2l7.1-12.3l-7.1-12.3h-14.2L1820.6,86.3z M1778.1,99.2l-7.5-12.9
	l7.5-12.9h15l7.5,12.9l-7.5,12.9H1778.1z M1771.4,86.3l7.1,12.3h14.2l7.1-12.3l-7.1-12.3h-14.2L1771.4,86.3z M2294.3,85l-7.5-12.9
	l7.5-12.9h15l7.5,12.9l-7.5,12.9H2294.3z M2287.6,72.1l7.1,12.3h14.2l7.1-12.3l-7.1-12.3h-14.2L2287.6,72.1z M2245.1,85l-7.5-12.9
	l7.5-12.9h15l7.5,12.9l-7.5,12.9H2245.1z M2238.4,72.1l7.1,12.3h14.2l7.1-12.3l-7.1-12.3h-14.2L2238.4,72.1z M2195.9,85l-7.5-12.9
	l7.5-12.9h15l7.5,12.9l-7.5,12.9H2195.9z M2189.2,72.1l7.1,12.3h14.2l7.1-12.3l-7.1-12.3h-14.2L2189.2,72.1z M2146.7,85l-7.5-12.9
	l7.5-12.9h15l7.5,12.9l-7.5,12.9H2146.7z M2140,72.1l7.1,12.3h14.2l7.1-12.3l-7.1-12.3h-14.2L2140,72.1z M2097.5,85l-7.5-12.9
	l7.5-12.9h15l7.5,12.9l-7.5,12.9H2097.5z M2090.8,72.1l7.1,12.3h14.2l7.1-12.3l-7.1-12.3h-14.2L2090.8,72.1z M2048.3,85l-7.5-12.9
	l7.5-12.9h15l7.5,12.9l-7.5,12.9H2048.3z M2041.6,72.1l7.1,12.3h14.2l7.1-12.3l-7.1-12.3h-14.2L2041.6,72.1z M1999.5,85l-7.5-12.9
	l7.5-12.9h15l7.5,12.9l-7.5,12.9H1999.5z M1992.8,72.1l7.1,12.3h14.2l7.1-12.3l-7.1-12.3h-14.2L1992.8,72.1z M1950.3,85l-7.5-12.9
	l7.5-12.9h15l7.5,12.9l-7.5,12.9H1950.3z M1943.5,72.1l7.1,12.3h14.2l7.1-12.3l-7.1-12.3h-14.2L1943.5,72.1z M1901.1,85l-7.5-12.9
	l7.5-12.9h15l7.5,12.9L1916,85H1901.1z M1894.4,72.1l7.1,12.3h14.2l7.1-12.3l-7.1-12.3h-14.2L1894.4,72.1z M1851.9,85l-7.5-12.9
	l7.5-12.9h15l7.5,12.9l-7.5,12.9H1851.9z M1845.2,72.1l7.1,12.3h14.2l7.1-12.3l-7.1-12.3h-14.2L1845.2,72.1z M1802.7,85l-7.5-12.9
	l7.5-12.9h15l7.5,12.9l-7.5,12.9H1802.7z M1796,72.1l7.1,12.3h14.2l7.1-12.3l-7.1-12.3h-14.2L1796,72.1z M1753.5,85l-7.5-12.9
	l7.5-12.9h15l7.5,12.9l-7.5,12.9L1753.5,85z M1746.8,72.1l7.1,12.3h14.2l7.1-12.3l-7.1-12.3h-14.2L1746.8,72.1z M2318.9,70.8
	l-7.5-12.9l7.5-13h15l7.5,13l-7.5,12.9H2318.9z M2312.2,57.9l7.1,12.3h14.2l7.1-12.3l-7.1-12.3h-14.2L2312.2,57.9z M2024.1,70.8
	l-7.5-12.9l7.5-13h15l7.5,13l-7.5,12.9H2024.1z M2017.3,57.9l7.1,12.3h14.2l7.1-12.3l-7.1-12.3h-14.2L2017.3,57.9z M2269.7,70.8
	l-7.5-12.9l7.5-12.9h15l7.5,12.9l-7.5,12.9H2269.7z M2263,57.9l7.1,12.3h14.2l7.1-12.3l-7.1-12.3h-14.2L2263,57.9z M2220.5,70.8
	l-7.5-12.9l7.5-12.9h15l7.5,12.9l-7.5,12.9H2220.5z M2213.8,57.9l7.1,12.3h14.2l7.1-12.3l-7.1-12.3h-14.2L2213.8,57.9z M2171.3,70.8
	l-7.5-12.9l7.5-12.9h15l7.5,12.9l-7.5,12.9H2171.3z M2164.6,57.9l7.1,12.3h14.2l7.1-12.3l-7.1-12.3h-14.2L2164.6,57.9z M2122.1,70.8
	l-7.5-12.9l7.5-12.9h14.9l7.5,12.9l-7.5,12.9H2122.1z M2115.4,57.9l7.1,12.3h14.2l7.1-12.3l-7.1-12.3h-14.2L2115.4,57.9z
	 M2072.9,70.8l-7.5-12.9l7.5-12.9h15l7.5,12.9l-7.5,12.9H2072.9z M2066.2,57.9l7.1,12.3h14.2l7.1-12.3l-7.1-12.3h-14.2L2066.2,57.9z
	 M1974.9,70.8l-7.5-12.9l7.5-12.9h15l7.5,12.9l-7.5,12.9H1974.9z M1968.1,57.9l7.1,12.3h14.2l7.1-12.3l-7.1-12.3h-14.2L1968.1,57.9z
	 M1925.7,70.8l-7.5-12.9l7.5-12.9h15l7.5,12.9l-7.5,12.9H1925.7z M1919,57.9l7.1,12.3h14.2l7.1-12.3l-7.1-12.3h-14.2L1919,57.9z
	 M1876.5,70.8l-7.5-12.9l7.5-12.9h15l7.5,12.9l-7.5,12.9H1876.5z M1869.7,57.9l7.1,12.3h14.2l7.1-12.3l-7.1-12.3h-14.2L1869.7,57.9z
	 M1827.3,70.8l-7.5-12.9l7.5-12.9h15l7.5,12.9l-7.5,12.9H1827.3z M1820.5,57.9l7.1,12.3h14.2l7.1-12.3l-7.1-12.3h-14.2L1820.5,57.9z
	 M1778.1,70.8l-7.5-12.9l7.5-12.9h15l7.5,12.9l-7.5,12.9H1778.1z M1771.4,57.9l7.1,12.3h14.2l7.1-12.3l-7.1-12.3h-14.2L1771.4,57.9z
	 M2294.3,56.6l-7.5-12.9l7.5-12.9h15l7.5,12.9l-7.5,12.9H2294.3z M2287.6,43.7l7.1,12.3h14.2l7.1-12.3l-7.1-12.3h-14.2L2287.6,43.7z
	 M2245.1,56.6l-7.5-12.9l7.5-12.9h15l7.5,12.9l-7.5,12.9H2245.1z M2238.3,43.7l7.1,12.3h14.2l7.1-12.3l-7.1-12.3h-14.2L2238.3,43.7z
	 M2195.9,56.6l-7.5-12.9l7.5-12.9h15l7.5,12.9l-7.5,12.9H2195.9z M2189.1,43.7l7.1,12.3h14.2l7.1-12.3l-7.1-12.3h-14.2L2189.1,43.7z
	 M2146.7,56.6l-7.5-12.9l7.5-12.9h15l7.5,12.9l-7.5,12.9H2146.7z M2140,43.7l7.1,12.3h14.2l7.1-12.3l-7.1-12.3h-14.2L2140,43.7z
	 M2097.5,56.6l-7.5-12.9l7.5-12.9h15l7.5,12.9l-7.5,12.9H2097.5z M2090.7,43.7l7.1,12.3h14.2l7.1-12.3l-7.1-12.3h-14.2L2090.7,43.7z
	 M2048.3,56.6l-7.5-12.9l7.5-12.9h15l7.5,12.9l-7.5,12.9H2048.3z M2041.6,43.7l7.1,12.3h14.2l7.1-12.3l-7.1-12.3h-14.2L2041.6,43.7z
	 M1999.5,56.6l-7.5-12.9l7.5-12.9h15l7.5,12.9l-7.5,12.9H1999.5z M1992.7,43.7l7.1,12.3h14.2l7.1-12.3l-7.1-12.3h-14.2L1992.7,43.7z
	 M1950.3,56.6l-7.5-12.9l7.5-12.9h15l7.5,12.9l-7.5,12.9H1950.3z M1943.5,43.7l7.1,12.3h14.2l7.1-12.3l-7.1-12.3h-14.2L1943.5,43.7z
	 M1901.1,56.6l-7.5-12.9l7.5-12.9h15l7.5,12.9l-7.5,12.9H1901.1z M1894.3,43.7l7.1,12.3h14.2l7.1-12.3l-7.1-12.3h-14.2L1894.3,43.7z
	 M1851.9,56.6l-7.5-12.9l7.5-12.9h15l7.5,12.9l-7.5,12.9H1851.9z M1845.1,43.7l7.1,12.3h14.2l7.1-12.3l-7.1-12.3h-14.2L1845.1,43.7z
	 M1802.7,56.6l-7.5-12.9l7.5-12.9h15l7.5,12.9l-7.5,12.9H1802.7z M1795.9,43.7L1803,56h14.2l7.1-12.3l-7.1-12.3H1803L1795.9,43.7z
	 M1753.5,56.6l-7.5-12.9l7.5-12.9h15l7.5,12.9l-7.5,12.9L1753.5,56.6z M1746.7,43.7l7.1,12.3h14.2l7.1-12.3l-7.1-12.3h-14.2
	L1746.7,43.7z M2318.9,42.4l-7.5-12.9l7.5-12.9h15l7.5,12.9l-7.5,12.9L2318.9,42.4z M2312.2,29.5l7.1,12.3h14.2l7.1-12.3l-7.1-12.3
	h-14.2L2312.2,29.5z M2269.7,42.4l-7.5-12.9l7.5-12.9h15l7.5,12.9l-7.5,12.9L2269.7,42.4z M2263,29.5l7.1,12.3h14.2l7.1-12.3
	l-7.1-12.3h-14.2L2263,29.5z M2220.5,42.4l-7.5-12.9l7.5-12.9h15l7.5,12.9l-7.5,12.9L2220.5,42.4z M2213.8,29.5l7.1,12.3h14.2
	l7.1-12.3l-7.1-12.3h-14.2L2213.8,29.5z M2171.3,42.4l-7.5-12.9l7.5-12.9h15l7.5,12.9l-7.5,12.9L2171.3,42.4z M2164.6,29.5l7.1,12.3
	h14.2l7.1-12.3l-7.1-12.3h-14.2L2164.6,29.5z M2122.1,42.4l-7.5-12.9l7.5-12.9h14.9l7.5,12.9l-7.5,12.9L2122.1,42.4z M2115.4,29.5
	l7.1,12.3h14.2l7.1-12.3l-7.1-12.3h-14.2L2115.4,29.5z M2072.9,42.4l-7.5-12.9l7.5-12.9h15l7.5,12.9l-7.5,12.9L2072.9,42.4z
	 M2066.2,29.5l7.1,12.3h14.2l7.1-12.3l-7.1-12.3h-14.2L2066.2,29.5z M2024.1,42.4l-7.5-12.9l7.5-12.9h15l7.5,12.9l-7.5,12.9
	L2024.1,42.4z M2017.4,29.5l7.1,12.3h14.2l7.1-12.3l-7.1-12.3h-14.2L2017.4,29.5z M1974.9,42.4l-7.5-12.9l7.5-12.9h15l7.5,12.9
	l-7.5,12.9L1974.9,42.4z M1968.2,29.5l7.1,12.3h14.2l7.1-12.3l-7.1-12.3h-14.2L1968.2,29.5z M1925.7,42.4l-7.5-12.9l7.5-12.9h15
	l7.5,12.9l-7.5,12.9L1925.7,42.4z M1919,29.5l7.1,12.3h14.2l7.1-12.3l-7.1-12.3h-14.2L1919,29.5z M1876.5,42.4l-7.5-12.9l7.5-12.9
	h15l7.5,12.9l-7.5,12.9L1876.5,42.4z M1869.7,29.5l7.1,12.3h14.2l7.1-12.3l-7.1-12.3h-14.2L1869.7,29.5z M1827.3,42.4l-7.5-12.9
	l7.5-12.9h15l7.5,12.9l-7.5,12.9L1827.3,42.4z M1820.6,29.5l7.1,12.3h14.2l7.1-12.3l-7.1-12.3h-14.2L1820.6,29.5z M1778.1,42.4
	l-7.5-12.9l7.5-12.9h15l7.5,12.9l-7.5,12.9L1778.1,42.4z M1771.4,29.5l7.1,12.3h14.2l7.1-12.3l-7.1-12.3h-14.2L1771.4,29.5z
	 M2048.3,28.2l-7.5-12.9l7.5-13h15l7.5,13l-7.5,12.9H2048.3z M2041.6,15.3l7.1,12.3h14.2l7.1-12.3L2062.9,3h-14.2L2041.6,15.3z
	 M1753.5,28.2l-7.5-12.9l7.5-13h15l7.5,13l-7.5,12.9L1753.5,28.2z M1746.7,15.3l7.1,12.3h14.2l7.1-12.3L1768.1,3h-14.2L1746.7,15.3z
	 M2294.3,28.2l-7.5-12.9l7.5-12.9h15l7.5,12.9l-7.5,12.9H2294.3z M2287.6,15.3l7.1,12.3h14.2l7.1-12.3L2308.9,3h-14.2L2287.6,15.3z
	 M2245.1,28.2l-7.5-12.9l7.5-12.9h15l7.5,12.9l-7.5,12.9H2245.1z M2238.4,15.3l7.1,12.3h14.2l7.1-12.3L2259.7,3h-14.2L2238.4,15.3z
	 M2195.9,28.2l-7.5-12.9l7.5-12.9h15l7.5,12.9l-7.5,12.9H2195.9z M2189.1,15.3l7.1,12.3h14.2l7.1-12.3L2210.5,3h-14.2L2189.1,15.3z
	 M2146.7,28.2l-7.5-12.9l7.5-12.9h15l7.5,12.9l-7.5,12.9H2146.7z M2140,15.3l7.1,12.3h14.2l7.1-12.3L2161.3,3h-14.2L2140,15.3z
	 M2097.5,28.2l-7.5-12.9l7.5-12.9h15l7.5,12.9l-7.5,12.9H2097.5z M2090.8,15.3l7.1,12.3h14.2l7.1-12.3L2112.1,3h-14.2L2090.8,15.3z
	 M1999.5,28.2l-7.5-12.9l7.5-12.9h15l7.5,12.9l-7.5,12.9H1999.5z M1992.7,15.3l7.1,12.3h14.2l7.1-12.3L2014.1,3h-14.2L1992.7,15.3z
	 M1950.3,28.2l-7.5-12.9l7.5-12.9h15l7.5,12.9l-7.5,12.9H1950.3z M1943.5,15.3l7.1,12.3h14.2l7.1-12.3L1964.9,3h-14.2L1943.5,15.3z
	 M1901.1,28.2l-7.5-12.9l7.5-12.9h15l7.5,12.9l-7.5,12.9L1901.1,28.2z M1894.3,15.3l7.1,12.3h14.2l7.1-12.3L1915.7,3h-14.2
	L1894.3,15.3z M1851.9,28.2l-7.5-12.9l7.5-12.9h15l7.5,12.9l-7.5,12.9L1851.9,28.2z M1845.1,15.3l7.1,12.3h14.2l7.1-12.3L1866.5,3
	h-14.2L1845.1,15.3z M1802.7,28.2l-7.5-12.9l7.5-12.9h14.9l7.5,12.9l-7.5,12.9L1802.7,28.2z M1796,15.3l7.1,12.3h14.2l7.1-12.3
	L1817.3,3h-14.2L1796,15.3z M2318.9,14l-7.5-12.9l7.5-13h15l7.5,13l-7.5,12.9H2318.9z M2312.1,1.1l7.1,12.3h14.2l7.1-12.3l-7.1-12.3
	h-14.2L2312.1,1.1z M2024.1,14l-7.5-12.9l7.5-13h15l7.5,13L2039,14H2024.1z M2017.3,1.1l7.1,12.3h14.2l7.1-12.3l-7.1-12.3h-14.2
	L2017.3,1.1z M2269.7,14l-7.5-12.9l7.5-12.9h15l7.5,12.9l-7.5,12.9H2269.7z M2263,1.1l7.1,12.3h14.2l7.1-12.3l-7.1-12.3h-14.2
	L2263,1.1z M2220.5,14L2213,1.1l7.5-12.9h15l7.5,12.9l-7.5,12.9H2220.5z M2213.8,1.1l7.1,12.3h14.2l7.1-12.3l-7.1-12.3h-14.2
	L2213.8,1.1z M2171.3,14l-7.5-12.9l7.5-12.9h15l7.5,12.9l-7.5,12.9H2171.3z M2164.5,1.1l7.1,12.3h14.2l7.1-12.3l-7.1-12.3h-14.2
	L2164.5,1.1z M2122.1,14l-7.5-12.9l7.5-12.9h15l7.5,12.9l-7.5,12.9H2122.1z M2115.4,1.1l7.1,12.3h14.2l7.1-12.3l-7.1-12.3h-14.2
	L2115.4,1.1z M2072.9,14l-7.5-12.9l7.5-12.9h15l7.5,12.9l-7.5,12.9L2072.9,14z M2066.2,1.1l7.1,12.3h14.2l7.1-12.3l-7.1-12.3h-14.2
	L2066.2,1.1z M1974.9,14l-7.5-12.9l7.5-12.9h15l7.5,12.9l-7.5,12.9L1974.9,14z M1968.1,1.1l7.1,12.3h14.2l7.1-12.3l-7.1-12.3h-14.2
	L1968.1,1.1z M1925.7,14l-7.5-12.9l7.5-12.9h15l7.5,12.9l-7.5,12.9L1925.7,14z M1919,1.1l7.1,12.3h14.2l7.1-12.3l-7.1-12.3h-14.2
	L1919,1.1z M1876.5,14L1869,1.1l7.5-12.9h15l7.5,12.9l-7.5,12.9L1876.5,14z M1869.7,1.1l7.1,12.3h14.2l7.1-12.3l-7.1-12.3h-14.2
	L1869.7,1.1z M1827.3,14l-7.5-12.9l7.5-12.9h15l7.5,12.9l-7.5,12.9L1827.3,14z M1820.5,1.1l7.1,12.3h14.2l7.1-12.3l-7.1-12.3h-14.2
	L1820.5,1.1z M1778.1,14l-7.5-12.9l7.5-12.9h15l7.5,12.9L1793,14L1778.1,14z M1771.4,1.1l7.1,12.3h14.2l7.1-12.3l-7.1-12.3h-14.2
	L1771.4,1.1z"/>
</svg>
