<?xml version="1.0" encoding="utf-8"?>
<!-- Generator: Adobe Illustrator 18.0.0, SVG Export Plug-In . SVG Version: 6.00 Build 0)  -->
<!DOCTYPE svg PUBLIC "-//W3C//DTD SVG 1.1//EN" "http://www.w3.org/Graphics/SVG/1.1/DTD/svg11.dtd">
<svg version="1.1" id="Calque_1" xmlns="http://www.w3.org/2000/svg" xmlns:xlink="http://www.w3.org/1999/xlink" x="0px" y="0px"
	 viewBox="155.9 279.2 283.5 283.5" enable-background="new 155.9 279.2 283.5 283.5" xml:space="preserve">
<g id="Groupe_224" transform="translate(-2623.617 2145.638)">
	<g id="Groupe_43">
		<g id="Groupe_42">
			<path id="Tracé_159" fill="#FFFFFF" d="M2972.2-1861.5h-101.8c-46.9,0-84.9,37.9-84.9,84.8c0,0,0,0.1,0,0.1v101.9
				c0,46.9,37.9,84.9,84.8,84.9c0,0,0.1,0,0.1,0h101.9c46.9,0,84.9-37.9,84.9-84.8c0,0,0-0.1,0-0.1v-101.9
				c0-46.9-37.9-84.9-84.8-84.9C2972.3-1861.5,2972.2-1861.5,2972.2-1861.5z M3031.6-1674.7c0,32.8-26.6,59.4-59.4,59.4h-101.8
				c-32.8,0-59.4-26.6-59.4-59.4v-101.8c0-32.8,26.6-59.4,59.4-59.5h101.9c32.8,0,59.4,26.6,59.4,59.5V-1674.7z"/>
		</g>
	</g>
	<g id="Groupe_45" transform="translate(6.317 6.317)">
		<g id="Groupe_44">
			<path id="Tracé_160" fill="#FFFFFF" d="M2914.9-1799.9c-37.5,0-67.9,30.4-67.9,67.9c0,37.5,30.4,67.9,67.9,67.9
				s67.9-30.4,67.9-67.9C2982.8-1769.5,2952.4-1799.9,2914.9-1799.9L2914.9-1799.9z M2914.9-1689.5c-23.4,0-42.4-19-42.4-42.4
				c0-23.4,19-42.4,42.4-42.4s42.4,19,42.4,42.4l0,0C2957.3-1708.5,2938.3-1689.5,2914.9-1689.5z"/>
		</g>
	</g>
	<g id="Groupe_47" transform="translate(18.582 5)">
		<g id="Groupe_46">
			<ellipse id="Ellipse_43" fill="#FFFFFF" cx="2975.6" cy="-1803.6" rx="9.1" ry="9.1"/>
		</g>
	</g>
</g>
</svg>
