<?xml version="1.0" encoding="utf-8"?>
<!-- Generator: Adobe Illustrator 18.0.0, SVG Export Plug-In . SVG Version: 6.00 Build 0)  -->
<!DOCTYPE svg PUBLIC "-//W3C//DTD SVG 1.1//EN" "http://www.w3.org/Graphics/SVG/1.1/DTD/svg11.dtd">
<svg version="1.1" id="Calque_1" xmlns="http://www.w3.org/2000/svg" xmlns:xlink="http://www.w3.org/1999/xlink" x="0px" y="0px"
	 viewBox="155.9 279.2 283.5 283.5" enable-background="new 155.9 279.2 283.5 283.5" xml:space="preserve">
<g id="Groupe_222" transform="translate(-2582.207 2111.027)">
	<path id="Tracé_157" fill="#FFFFFF" d="M3017.4-1771.9c-10.1,4.6-20.9,7.5-31.9,8.7c11.6-7,20.3-17.9,24.5-30.7
		c-11.1,6.4-23.1,10.9-35.7,13.3c-10.5-11.2-25.3-17.5-40.6-17.4c-30.7,0-55.6,24.9-55.6,55.6l0,0c0,4.3,0.4,8.6,1.2,12.9
		c-44.6-2.4-86.2-23.4-114.5-58.1c-5,8.4-7.6,18-7.5,27.8c0,18.7,9.3,36.1,24.9,46.5c-8.9-0.4-17.5-2.8-25.3-7.1v0.8
		c-0.1,26.5,18.8,49.3,44.8,54.3c-4.7,1.3-9.6,2-14.6,2.1c-3.5-0.1-6.9-0.3-10.4-0.8c7.3,22.6,28.1,38,51.9,38.6
		c-19.8,15.4-44.2,23.8-69.3,23.6c-4.6,0-8.7-0.4-13.3-0.8c25.5,16.3,55.2,25,85.5,24.9c86.8,0.7,157.8-69.1,158.5-155.9
		c0-0.8,0-1.7,0-2.5v-7.1C3000.6-1751.2,3009.9-1760.9,3017.4-1771.9L3017.4-1771.9z"/>
</g>
</svg>
