<?xml version="1.0" encoding="utf-8"?>
<!-- Generator: Adobe Illustrator 18.0.0, SVG Export Plug-In . SVG Version: 6.00 Build 0)  -->
<!DOCTYPE svg PUBLIC "-//W3C//DTD SVG 1.1//EN" "http://www.w3.org/Graphics/SVG/1.1/DTD/svg11.dtd">
<svg version="1.1" id="Calque_1" xmlns="http://www.w3.org/2000/svg" xmlns:xlink="http://www.w3.org/1999/xlink" x="0px" y="0px"
	 viewBox="155.9 279.2 283.5 283.5" enable-background="new 155.9 279.2 283.5 283.5" xml:space="preserve">
<g>
	<g id="Groupe_223_1_" transform="translate(-2584.475 2147.018)">
		<path id="Tracé_158_1_" fill="#FFFFFF" d="M3007-1802.1c-7.4-13.2-15.4-15.5-31.7-16.5c-16.3-1-57.2-1.5-92.7-1.5
			s-76.5,0.5-92.8,1.5c-16.3,1.1-24.3,3.3-31.7,16.5c-7.6,13.1-11.5,35.7-11.5,75.4v0.2c0,39.6,3.9,62.3,11.5,75.3
			c7.4,13.1,15.5,15.5,31.7,16.6c16.3,1,57.3,1.5,92.8,1.5c35.5,0,76.5-0.6,92.8-1.5c16.3-1.1,24.3-3.5,31.7-16.6
			c7.6-13,11.5-35.7,11.5-75.3v-0.2C3018.6-1766.4,3014.7-1788.9,3007-1802.1z M2848.6-1675.6v-102l85,51L2848.6-1675.6z"/>
	</g>
</g>
</svg>
