<?xml version="1.0" encoding="utf-8"?>
<!-- Generator: Adobe Illustrator 18.0.0, SVG Export Plug-In . SVG Version: 6.00 Build 0)  -->
<!DOCTYPE svg PUBLIC "-//W3C//DTD SVG 1.1//EN" "http://www.w3.org/Graphics/SVG/1.1/DTD/svg11.dtd">
<svg version="1.1" id="Calque_1" xmlns="http://www.w3.org/2000/svg" xmlns:xlink="http://www.w3.org/1999/xlink" x="0px" y="0px"
	 viewBox="155.9 279.2 283.5 283.5" enable-background="new 155.9 279.2 283.5 283.5" xml:space="preserve">
<g id="Groupe_225" transform="translate(-2622.453 2109.691)">
	<path id="Facebook__x28_alt_x29__1_" fill="#FFFFFF" d="M3056.7-1779.5c-0.8-24.8-20.7-44.7-45.5-45.5H2829
		c-24.8,0.8-44.7,20.7-45.5,45.5v182.2c0.8,24.8,20.7,44.7,45.5,45.5h91V-1655h-33.3v-45.6h33.3v-17.6c0-30.7,23.1-58.3,51.3-58.3
		h36.8v45.6h-36.7c-5.6,1.2-9.4,6.4-8.8,12.1v18.2h45.6v45.5h-45.6v103.3h48.6c24.8-0.8,44.7-20.7,45.5-45.5V-1779.5z"/>
</g>
</svg>
