<?xml version="1.0" standalone="no"?>
<!DOCTYPE svg PUBLIC "-//W3C//DTD SVG 1.1//EN" "http://www.w3.org/Graphics/SVG/1.1/DTD/svg11.dtd" >
<svg xmlns="http://www.w3.org/2000/svg">
<metadata>Generated by IcoMoon</metadata>
<defs>
<font id="icomoon" horiz-adv-x="1024">
<font-face units-per-em="1024" ascent="960" descent="-64" />
<missing-glyph horiz-adv-x="1024" />
<glyph unicode="&#x20;" horiz-adv-x="512" d="" />
<glyph unicode="&#xe900;" glyph-name="bars, navicon, reorder" horiz-adv-x="878" d="M877.714 182.857v-73.143c0-20-16.571-36.571-36.571-36.571h-804.571c-20 0-36.571 16.571-36.571 36.571v73.143c0 20 16.571 36.571 36.571 36.571h804.571c20 0 36.571-16.571 36.571-36.571zM877.714 475.428v-73.143c0-20-16.571-36.571-36.571-36.571h-804.571c-20 0-36.571 16.571-36.571 36.571v73.143c0 20 16.571 36.571 36.571 36.571h804.571c20 0 36.571-16.571 36.571-36.571zM877.714 768v-73.143c0-20-16.571-36.571-36.571-36.571h-804.571c-20 0-36.571 16.571-36.571 36.571v73.143c0 20 16.571 36.571 36.571 36.571h804.571c20 0 36.571-16.571 36.571-36.571z" />
<glyph unicode="&#xe901;" glyph-name="input-error" horiz-adv-x="1002" d="M500.104 936.045c-269.577 0-488.291-218.714-488.291-488.291s218.714-488.291 488.291-488.291 488.291 218.714 488.291 488.291-218.55 488.291-488.291 488.291zM558.844 168.66h-110.423v100.087h110.423v-100.087zM559.664 368.013h-111.9v376.555h111.9v-376.555z" />
<glyph unicode="&#xe902;" glyph-name="input-valid" horiz-adv-x="1002" d="M500.104 936.045c-269.577 0-488.291-218.714-488.291-488.291s218.714-488.291 488.291-488.291 488.291 218.714 488.291 488.291-218.55 488.291-488.291 488.291zM798.395 594.602c-0.328-0.328-0.492-0.492-0.82-0.82l-349.975-363.101c-5.086-5.415-11.978-8.368-19.525-8.368-6.891 0-13.454 2.625-18.541 7.383-0.328 0.328-0.656 0.656-0.984 0.984l-170.803 184.094-4.43 6.563c-4.922 4.922-7.712 11.321-7.876 18.377-0.164 7.219 2.461 13.946 7.383 19.197 0.328 0.328 0.656 0.656 0.984 0.984l30.518 30.518c5.086 5.25 11.978 8.204 19.361 8.204 6.891 0 13.454-2.625 18.541-7.383 0.328-0.328 0.656-0.656 0.984-0.984l2.297-2.297 120.432-129.128c1.641-1.805 4.922-1.969 6.891-0.164l0.164 0.164 294.845 305.838h2.297c4.922 4.266 10.993 6.563 17.556 6.563 6.891 0 13.454-2.625 18.541-7.383 0.328-0.328 0.656-0.656 0.984-0.984l30.518-30.518c10.501-10.009 10.829-27.073 0.656-37.738z" />
<glyph unicode="&#xe903;" glyph-name="nav-adress" horiz-adv-x="776" d="M755.81 652.030c-20.531 97.524-79.559 182.216-162.967 236.11-60.311 39.779-130.887 60.311-204.030 60.311-128.321 0-246.376-64.16-315.669-171.95-79.559-123.188-79.559-283.589 0-408.060l251.509-390.095c14.115-21.815 37.213-34.647 64.16-34.647 14.115 0 28.231 3.85 41.063 11.549 8.982 6.416 16.682 12.832 23.098 23.098l251.509 390.095c53.895 85.975 73.143 186.065 51.328 283.589zM630.055 417.203l-241.243-373.414-241.243 373.414c-85.975 133.454-47.479 311.82 85.975 397.794 46.195 29.514 100.090 46.195 155.268 46.195 98.807 0 188.632-48.762 241.243-132.17 61.594-94.957 61.594-216.862 0-311.82zM388.812 727.739c-84.692 0-155.268-69.293-155.268-155.268 0-84.692 69.293-153.985 155.268-155.268v0c84.692 0 155.268 69.293 155.268 155.268 0 41.063-16.682 79.559-44.912 109.073-30.797 29.514-69.293 46.195-110.356 46.195zM388.812 639.198h2.566c35.93-1.283 64.16-30.797 64.16-66.727s-29.514-66.727-66.727-66.727c-35.93 0-66.727 29.514-66.727 66.727s29.514 66.727 66.727 66.727zM388.812 426.185v0 0 0z" />
<glyph unicode="&#xe904;" glyph-name="nav-beecoins" horiz-adv-x="1030" d="M929.668 525.576c-26.065 28.548-57.096 52.131-91.85 69.508 45.925 14.895 76.955 57.096 76.955 105.503 0 60.819-49.648 110.468-110.468 110.468h-114.192c9.93 43.442-7.447 90.608-44.684 116.674-18.618 12.412-40.96 19.859-63.302 19.859h-461.731c-29.789 0-57.096-11.171-78.196-32.272s-32.272-48.407-32.272-78.196c0-60.819 49.648-110.468 110.468-110.468h114.192c-3.724-16.136-3.724-33.513 0-49.648h-12.412c-60.819 0-110.468-49.648-110.468-110.468 0-24.824 8.688-48.407 23.583-68.267-31.030-39.719-31.030-95.573 0-135.292-31.030-39.719-31.030-95.573 0-135.292-14.895-18.618-23.583-43.442-23.583-67.025 0-60.819 49.648-110.468 110.468-110.468h211.006c64.543-64.543 152.669-101.779 244.519-101.779v0c86.885 0 171.287 32.272 234.589 93.091 139.016 127.845 146.463 345.057 17.377 484.073zM804.305 725.411c13.653 0 24.824-11.171 24.824-24.824 0-6.206-2.482-12.412-7.447-17.377s-11.171-7.447-17.377-7.447h-461.731c-6.206 0-12.412 2.482-17.377 7.447s-7.447 11.171-7.447 17.377c0 13.653 11.171 24.824 24.824 24.824h461.731zM120.398 812.296c-13.653 0-24.824 11.171-24.824 24.824s11.171 24.824 24.824 24.824h461.731c13.653 0 24.824-11.171 24.824-24.824s-11.171-24.824-24.824-24.824h-461.731zM222.177 590.119h286.72c-24.824-13.653-47.166-31.030-68.267-49.648h-218.453c-13.653 0-24.824 11.171-24.824 24.824s11.171 24.824 24.824 24.824zM333.886 269.886h-111.709c-13.653 0-24.824 11.171-24.824 24.824s11.171 24.824 24.824 24.824h112.95c-1.241-9.93-1.241-19.859-1.241-28.548 0-7.447 0-14.895 0-21.101zM222.177 134.594c-13.653 0-24.824 11.171-24.824 24.824s11.171 24.824 24.824 24.824h127.845c6.206-17.377 12.412-33.513 21.101-49.648h-148.945zM353.745 405.178h-131.568c-13.653 0-24.824 11.171-24.824 24.824s11.171 24.824 24.824 24.824h152.669c-7.447-16.136-14.895-32.272-21.101-49.648zM680.184 32.815h-2.482c-142.739 0-258.172 115.433-258.172 258.172s115.433 258.172 258.172 258.172 258.172-115.433 258.172-258.172c0-141.498-114.192-256.931-255.69-258.172zM770.793 365.459c-2.482 12.412-6.206 24.824-13.653 34.754l21.101 27.307c7.447 9.93 6.206 26.065-4.965 33.513-9.93 7.447-24.824 6.206-34.754-4.965l-18.618-24.824c-11.171 4.965-23.583 7.447-37.236 8.688-12.412 0-24.824-2.482-35.995-8.688l-18.618 24.824c-7.447 9.93-22.342 13.653-33.513 4.965-11.171-7.447-13.653-22.342-4.965-34.754l21.101-27.307c-7.447-11.171-12.412-22.342-14.895-35.995l-71.99-79.438c-11.171-12.412-16.136-27.307-16.136-43.442 1.241-16.136 7.447-29.789 18.618-40.96 11.171-9.93 24.824-16.136 40.96-16.136v0h3.724c12.412 1.241 24.824 6.206 35.995 14.895 11.171-19.859 31.030-35.995 53.372-42.201v-14.895c0-13.653 11.171-24.824 24.824-24.824s24.824 11.171 24.824 24.824v14.895c22.342 6.206 42.201 21.101 53.372 42.201 9.93-8.688 23.583-13.653 37.236-13.653h2.482c14.895 0 29.789 4.965 39.719 16.136 12.412 11.171 18.618 26.065 19.859 42.201 0 14.895-4.965 29.789-16.136 42.201l-75.714 80.679zM594.541 303.399v-54.613l-13.653-14.895c-3.724-3.724-8.688-6.206-12.412-6.206h-1.241c-4.965 0-8.688 1.241-12.412 4.965-3.724 2.482-6.206 7.447-6.206 12.412s1.241 9.93 4.965 13.653l40.96 44.684zM722.385 341.876v-16.136h-80.679v16.136h80.679zM722.385 269.886v-16.136h-80.679v16.136h80.679zM817.959 245.062c0-9.93-8.688-17.377-18.618-17.377h-1.241c-4.965 0-8.688 2.482-12.412 6.206l-13.653 14.895v55.855l40.96-44.684c3.724-4.965 4.965-9.93 4.965-14.895z" />
<glyph unicode="&#xe905;" glyph-name="nav-board-game" horiz-adv-x="1139" d="M903.597 435.96c-29.814 0-53.895-24.081-53.895-53.895s24.081-53.895 53.895-53.895c29.814 0 53.895 24.081 53.895 53.895s-24.081 53.895-53.895 53.895zM903.597 221.527c-29.814 0-53.895-24.081-53.895-53.895s24.081-53.895 53.895-53.895c29.814 0 53.895 24.081 53.895 53.895 0 30.961-24.081 53.895-53.895 53.895zM689.165 435.96c-29.814 0-53.895-24.081-53.895-53.895s24.081-53.895 53.895-53.895c29.814 0 53.895 24.081 53.895 53.895s-24.081 53.895-53.895 53.895zM689.165 221.527c-29.814 0-53.895-24.081-53.895-53.895s24.081-53.895 53.895-53.895c29.814 0 53.895 24.081 53.895 53.895 0 30.961-24.081 53.895-53.895 53.895zM957.492 606.817h-208.699c0 1.147 0 1.147 0 2.293l1.147 12.614v4.587c0 5.733 0 10.32-1.147 16.054v2.293c-5.733 24.081-18.347 47.015-37.841 63.068-22.934 20.641-48.161 36.694-75.682 48.161-35.548 16.054-72.242 29.814-110.083 41.281-1.147 0-2.293 1.147-2.293 1.147 0 4.587-1.147 8.027-1.147 12.614-2.293 28.667-11.467 57.335-27.521 81.415l-1.147 1.147c-18.347 26.374-48.161 45.868-79.122 51.601-22.934 4.587-47.015 4.587-69.948 0-36.694-8.027-68.802-32.108-84.856-66.508-9.174-19.494-16.054-40.134-18.347-61.922-1.147-5.733-1.147-11.467-1.147-17.2-4.587-1.147-9.174-3.44-14.907-4.587-38.988-11.467-77.975-27.521-114.67-44.721-21.787-10.32-41.281-24.081-59.628-40.134-18.347-14.907-30.961-35.548-36.694-58.482-8.027-32.108 0-65.362 21.787-90.589 11.467-13.76 27.521-21.787 44.721-26.374 14.907-3.44 29.814-5.733 43.574-5.733h4.587c6.88 0 13.76 0 20.641-1.147-1.147-3.44-3.44-6.88-5.733-10.32l-1.147-1.147c-8.027-14.907-16.054-29.814-25.227-44.721-8.027-14.907-17.2-30.961-25.227-45.868-16.054-28.667-29.814-58.482-41.281-88.296-6.88-16.054-10.32-33.254-12.614-49.308-1.147-9.174-1.147-18.347-1.147-26.374 1.147-20.641 14.907-44.721 49.308-49.308l17.2-2.293h162.831c4.587 0 9.174 1.147 13.76 1.147h1.147c20.641 4.587 37.841 18.347 48.161 35.548 8.027 12.614 14.907 24.081 22.934 36.694 4.587 6.88 8.027 13.76 12.614 20.641 3.44 5.733 8.027 11.467 11.467 17.2 3.44-4.587 5.733-9.174 9.174-13.76l6.88-10.32c9.174-16.054 20.641-33.254 30.961-50.455 8.027-13.76 19.494-25.227 34.401-30.961l3.44-1.147v-100.909c0-94.029 76.829-170.858 170.858-170.858h321.075c94.029 0 170.858 76.829 170.858 170.858v321.075c3.44 95.176-72.242 172.004-166.271 172.004zM464.412 435.96v-110.083c-2.293 3.44-4.587 6.88-5.733 10.32l-6.88 11.467c-6.88 10.32-13.76 21.787-21.787 33.254-6.88 10.32-16.054 19.494-26.374 26.374-14.907 9.174-33.254 9.174-48.161 0-6.88-4.587-13.76-11.467-19.494-18.347l-1.147-2.293c-9.174-13.76-18.347-27.521-27.521-41.281-4.587-6.88-9.174-13.76-12.614-21.787-6.88-11.467-14.907-24.081-22.934-35.548l-1.147-2.293c0 0 0-1.147-1.147-1.147h-154.804c1.147 9.174 3.44 18.347 6.88 27.521 10.32 26.374 21.787 52.748 36.694 79.122 8.027 14.907 16.054 29.814 25.227 44.721 8.027 14.907 17.2 29.814 25.227 45.868 9.174 14.907 14.907 29.814 20.641 47.015 4.587 12.614 4.587 25.227-1.147 37.841s-14.907 22.934-27.521 28.667c-2.293 1.147-5.733 2.293-8.027 2.293-6.88 2.293-12.614 3.44-20.641 3.44-13.76 0-26.374 0-38.988 0h-5.733c-9.174 0-18.347 1.147-27.521 3.44h-2.293c-2.293 0-4.587 2.293-6.88 3.44-5.733 5.733-8.027 14.907-5.733 22.934s6.88 14.907 12.614 20.641l1.147 1.147c12.614 11.467 27.521 21.787 43.574 29.814 33.254 16.054 67.655 29.814 103.203 40.134 6.88 2.293 12.614 4.587 18.347 6.88s10.32 3.44 14.907 5.733c17.2 5.733 29.814 20.641 30.961 38.988 1.147 11.467 1.147 22.934 3.44 33.254 1.147 13.76 5.733 26.374 11.467 38.988 6.88 13.76 19.494 22.934 34.401 26.374 13.76 3.44 26.374 3.44 41.281 0 12.614-2.293 24.081-9.174 32.108-20.641 9.174-14.907 14.907-30.961 16.054-48.161v-2.293c1.147-5.733 1.147-12.614 1.147-18.347 0-3.44 0-6.88 1.147-10.32 1.147-17.2 12.614-33.254 28.667-38.988 6.88-2.293 14.907-5.733 21.787-8.027l2.293-1.147c34.401-10.32 68.802-22.934 102.056-38.988 20.641-9.174 40.134-20.641 57.335-36.694 6.88-5.733 11.467-13.76 13.76-21.787 0-1.147 0-2.293 0-3.44l-1.147-8.027c0-4.587-3.44-9.174-8.027-11.467h-32.108c-94.029 2.293-170.858-74.535-170.858-168.564zM1053.814 114.885c0-53.895-43.574-97.469-97.469-97.469h-321.075c-53.895 0-97.469 43.574-97.469 97.469v321.075c0 53.895 43.574 97.469 97.469 97.469h321.075c53.895 0 97.469-43.574 97.469-97.469v-321.075z" />
<glyph unicode="&#xe906;" glyph-name="nav-events" horiz-adv-x="897" d="M882.557 589.443c-42.082 71.306-82.995 142.612-121.571 212.749-24.548 43.251-49.096 86.502-73.644 129.753-7.014 12.858-19.872 19.872-33.9 19.872h-402.119c-14.027 0-26.886-7.014-33.9-19.872-42.082-71.306-82.995-142.612-123.909-215.087-24.548-43.251-49.096-86.502-74.813-129.753-7.014-12.858-7.014-26.886 0-39.744 66.63-114.557 133.26-229.114 198.721-343.671 7.014-11.689 19.872-19.872 33.9-19.872h91.178l75.982-213.918c5.845-16.365 21.041-26.886 37.406-26.886 0 0 1.169 0 1.169 0 17.534 0 32.731 11.689 37.406 29.224l59.616 211.58h95.854c14.027 0 26.886 8.183 35.068 19.872 61.954 109.881 128.584 225.607 197.553 343.671 7.014 15.196 7.014 30.393 0 42.082zM626.557 265.644h-102.868c-17.534 0-33.9-11.689-38.575-29.224l-33.9-120.402-42.082 122.74c-5.845 16.365-21.041 26.886-37.406 26.886h-95.854c-58.447 100.53-116.895 202.228-176.511 303.927 21.041 36.237 42.082 73.644 63.123 109.881 37.406 65.461 74.813 129.753 112.219 195.215h355.361c21.041-36.237 42.082-73.644 61.954-109.881 36.237-63.123 72.475-128.584 111.050-194.046-61.954-105.205-120.402-208.073-176.511-305.096z" />
<glyph unicode="&#xe907;" glyph-name="nav-friends" horiz-adv-x="1457" d="M445.63 462.222v0c132.741 0 241.778 109.037 241.778 241.778s-109.037 241.778-241.778 241.778c-132.741 0-241.778-109.037-241.778-241.778s109.037-241.778 241.778-241.778zM311.309 704c0 74.272 60.049 135.901 135.901 135.901 74.272 0 135.901-60.049 135.901-135.901s-60.049-135.901-135.901-135.901c-75.852 0-135.901 61.63-135.901 135.901zM1011.358 462.222v0c132.741 0 241.778 109.037 241.778 241.778s-109.037 241.778-241.778 241.778c-132.741 0-241.778-109.037-241.778-241.778s109.037-241.778 241.778-241.778zM877.037 704c0 74.272 60.049 135.901 135.901 135.901 74.272 0 135.901-60.049 135.901-135.901 0-74.272-60.049-135.901-135.901-135.901s-135.901 61.63-135.901 135.901zM1355.852 261.531c-1.58 1.58-1.58 3.16-3.16 4.741-71.111 93.235-180.148 153.284-295.506 165.926l-15.802 1.58c-3.16 0-4.741 0-7.901 0h-22.123c-85.333 0-169.086-25.284-240.198-74.272-11.062-7.901-20.543-20.543-22.123-34.765-1.58-4.741-1.58-9.481 0-15.802-77.432 75.852-184.889 124.84-301.827 124.84-237.037 0-429.827-194.37-429.827-432.988 1.58-28.444 25.284-50.568 53.728-50.568h3.16c26.864 1.58 48.988 23.704 50.568 52.148 0 86.914 33.185 167.506 94.815 229.136s142.222 94.815 229.136 94.815c178.568 0 323.951-145.383 323.951-323.951v-1.58c1.58-28.444 25.284-50.568 53.728-50.568h3.16c26.864 1.58 48.988 23.704 50.568 52.148 0 97.975-33.185 188.049-86.914 259.16 3.16-1.58 7.901-1.58 11.062-1.58 11.062 0 20.543 3.16 30.025 9.481 53.728 36.346 115.358 55.309 181.728 55.309h34.765c164.346-18.963 289.185-156.444 289.185-320.79 0-14.222 4.741-28.444 14.222-37.926s22.123-17.383 36.346-17.383h3.16c28.444 0 52.148 22.123 53.728 50.568 0 1.58 0 3.16 0 4.741-4.741 91.654-36.346 183.309-91.654 257.58z" />
<glyph unicode="&#xe908;" glyph-name="nav-home" horiz-adv-x="1031" d="M425.22-6.147c0-24.588-20.249-46.282-46.282-46.282v0h-250.215c-62.192 0-114.26 50.621-114.26 114.26 0 0 0 0 0 0v389.062c2.893 56.407 27.48 108.475 67.977 147.525l403.525 342.78c17.356 14.463 41.944 14.463 59.299 0l403.525-342.78c40.497-37.605 65.085-91.119 67.977-147.525v-387.616c0-62.192-50.621-114.26-114.26-114.26 0 0 0 0 0 0h-248.768c-24.588 0-46.282 20.249-46.282 46.282v0 271.91h-182.237v-273.356zM903.955 40.136c13.017 0 23.141 10.124 23.141 23.141 0 0 0 0 0 0v387.616c-2.893 28.927-14.463 56.407-36.158 78.102l-374.599 318.192-374.599-318.192c-20.249-20.249-33.266-47.729-36.158-78.102v-387.616c0-13.017 10.124-23.141 23.141-23.141 0 0 0 0 0 0h205.379v273.356c0 24.588 20.249 46.282 46.282 46.282v0h273.356c24.588 0 46.282-20.249 46.282-46.282v0-273.356h203.932z" />
<glyph unicode="&#xe909;" glyph-name="nav-incentives" horiz-adv-x="1031" d="M833.132 856.903h68.267c62.694 0 112.849-51.548 112.849-114.242v-681.273c0-62.694-50.155-114.242-114.242-114.242 0 0 0 0 0 0h-770.438c-62.694 0-114.242 51.548-114.242 114.242 0 0 0 0 0 0v681.273c0 62.694 51.548 114.242 114.242 114.242v0h68.267v45.976c0 25.078 20.898 45.976 45.976 45.976s45.976-20.898 45.976-45.976v-45.976h90.558v45.976c0 25.078 20.898 45.976 45.976 45.976s45.976-20.898 45.976-45.976v-45.976h90.558v45.976c0 25.078 20.898 45.976 45.976 45.976s45.976-20.898 45.976-45.976v-45.976h90.558v45.976c0 25.078 20.898 45.976 45.976 45.976s45.976-20.898 45.976-45.976l-4.18-45.976zM833.132 764.952v-45.976c0-25.078-20.898-45.976-45.976-45.976s-45.976 20.898-45.976 45.976v45.976h-90.558v-45.976c0-25.078-20.898-45.976-45.976-45.976s-45.976 20.898-45.976 45.976v45.976h-90.558v-45.976c0-25.078-20.898-45.976-45.976-45.976s-45.976 20.898-45.976 45.976v45.976h-90.558v-45.976c0-25.078-20.898-45.976-45.976-45.976s-45.976 20.898-45.976 45.976v45.976h-68.267c-12.539 0-22.291-9.752-22.291-22.291 0 0 0 0 0 0v-681.273c0-12.539 9.752-22.291 22.291-22.291h771.831c12.539 0 22.291 9.752 22.291 22.291 0 0 0 0 0 0v681.273c0 12.539-9.752 22.291-22.291 22.291h-64.087zM243.81 470.988c-25.078 0-45.976 20.898-45.976 45.976s20.898 45.976 45.976 45.976v0h476.473c25.078 0 45.976-20.898 45.976-45.976s-20.898-45.976-45.976-45.976h-476.473zM243.81 310.77c-25.078 0-45.976 20.898-45.976 45.976s20.898 45.976 45.976 45.976h544.74c25.078 0 45.976-20.898 45.976-45.976s-20.898-45.976-45.976-45.976h-544.74zM243.81 151.946c-25.078 0-45.976 20.898-45.976 45.976s20.898 45.976 45.976 45.976h317.649c25.078 0 45.976-20.898 45.976-45.976s-20.898-45.976-45.976-45.976h-317.649z" />
<glyph unicode="&#xe90a;" glyph-name="nav-notifications" horiz-adv-x="922" d="M889.793 148.047c0 0-1.342 0-1.342 1.342-92.603 41.604-99.313 221.442-100.655 241.573v134.207c0 128.839-75.156 245.599-193.258 297.94-4.026 69.788-63.077 126.155-134.207 126.155s-130.181-56.367-134.207-126.155c-116.76-52.341-193.258-169.101-193.258-297.94v-135.549c0-1.342-5.368-198.626-100.655-241.573-20.131-9.394-29.526-33.552-20.131-53.683 6.71-14.763 21.473-24.157 36.236-24.157h253.651c6.71-28.183 21.473-55.025 41.604-75.156 29.526-32.21 72.472-49.657 115.418-49.657 40.262 0 79.182 14.763 107.366 42.946 2.684 2.684 5.368 5.368 8.052 8.052 20.131 21.473 34.894 46.972 41.604 75.156h253.651c22.815 0 40.262 18.789 40.262 40.262 1.342 14.763-6.71 29.526-20.131 36.236zM531.46 71.549c-13.421-26.841-41.604-44.288-71.13-45.63-30.868 1.342-59.051 18.789-72.472 45.63h143.602zM420.068 849.95c9.394 12.079 24.157 18.789 40.262 18.789s30.868-6.71 40.262-18.789c-26.841 2.684-53.683 2.684-80.524 0zM715.324 301.043h-509.987c5.368 29.526 8.052 59.051 9.394 88.577v135.549c2.684 134.207 112.734 241.573 245.599 241.573h4.026c134.207-2.684 240.231-108.708 241.573-241.573v-135.549c1.342-29.526 4.026-59.051 9.394-88.577zM769.007 152.073h-617.353c13.421 21.473 25.499 44.288 33.552 68.446h551.591c8.052-24.157 18.789-46.972 32.21-68.446zM476.435 745.269c-1.342 0-1.342 0-2.684 0-126.155 0-228.152-101.997-228.152-228.152 0-10.737 4.026-21.473 12.079-28.183s17.447-12.079 28.183-12.079c0 0 0 0 0 0 22.815 0 40.262 17.447 40.262 40.262 0 80.524 65.761 147.628 147.628 147.628 22.815 0 40.262 17.447 40.262 40.262 0 21.473-17.447 38.92-37.578 40.262zM285.861 488.933v0 0 0z" />
<glyph unicode="&#xe90b;" glyph-name="nav-parameter" d="M952.334 558.945l-60.641 9.647c-5.513 17.917-13.782 35.833-22.051 53.75l35.833 49.615c20.673 28.942 17.917 67.532-8.269 93.717l-60.641 60.641c-13.782 13.782-31.699 20.673-50.993 20.673-15.16 0-28.942-4.135-41.346-13.782l-49.615-35.833c-17.917 9.647-37.211 16.538-56.506 23.429l-9.647 59.262c-5.513 34.455-35.833 60.641-71.666 60.641h-85.448c-35.833 0-64.775-24.808-71.666-60.641l-11.026-62.019c-17.917-5.513-35.833-13.782-53.75-22.051l-48.237 35.833c-12.404 8.269-26.186 13.782-41.346 13.782-19.295 0-37.211-6.891-50.993-20.673l-60.641-60.641c-24.808-24.808-28.942-64.775-8.269-93.717l35.833-50.993c-8.269-17.917-16.538-35.833-22.051-53.75l-59.262-9.647c-34.455-5.513-60.641-35.833-60.641-71.666v-85.448c0-35.833 24.808-66.153 60.641-71.666l62.019-11.026c5.513-17.917 13.782-35.833 22.051-53.75l-35.833-49.615c-20.673-28.942-17.917-67.532 8.269-93.717l60.641-60.641c13.782-13.782 31.699-20.673 50.993-20.673 15.16 0 28.942 4.135 41.346 13.782l50.993 35.833c16.538-8.269 34.455-15.16 52.371-20.673l9.647-60.641c5.513-34.455 35.833-60.641 71.666-60.641h85.448c35.833 0 64.775 24.808 71.666 60.641l9.647 60.641c17.917 5.513 37.211 13.782 53.75 22.051l49.615-35.833c12.404-8.269 26.186-13.782 41.346-13.782 19.295 0 37.211 8.269 50.993 20.673l60.641 60.641c24.808 24.808 28.942 64.775 8.269 92.339l-35.833 49.615c8.269 17.917 16.538 35.833 22.051 53.75l60.641 9.647c34.455 5.513 60.641 35.833 60.641 71.666v89.583c0 34.455-26.186 64.775-60.641 71.666zM933.039 408.721l-79.935-13.782c-15.16-2.756-27.564-13.782-31.699-28.942-6.891-28.942-19.295-56.506-34.455-81.314-8.269-13.782-6.891-30.32 1.378-42.724l46.859-66.153-52.371-52.371-66.153 46.859c-12.404 8.269-30.32 9.647-42.724 1.378-24.808-15.16-52.371-26.186-81.314-34.455-15.16-4.135-26.186-16.538-28.942-31.699l-13.782-78.557h-73.044l-12.404 78.557c-2.756 15.16-13.782 27.564-28.942 31.699-27.564 6.891-55.128 17.917-79.935 33.077-12.404 6.891-30.32 6.891-42.724-1.378l-66.153-46.859-52.371 52.371 45.48 64.775c9.647 12.404 9.647 30.32 1.378 44.102-15.16 24.808-26.186 52.371-34.455 81.314-4.135 15.16-16.538 26.186-31.699 28.942l-79.935 13.782v73.044l78.557 12.404c15.16 2.756 27.564 13.782 31.699 28.942 6.891 28.942 17.917 56.506 33.077 81.314 8.269 13.782 6.891 30.32-1.378 42.724l-46.859 66.153 52.371 52.371 64.775-46.859c12.404-8.269 30.32-9.647 44.102-1.378 24.808 15.16 52.371 27.564 81.314 34.455 15.16 4.135 26.186 16.538 28.942 31.699l13.782 79.935h73.044l12.404-78.557c2.756-15.16 13.782-27.564 28.942-31.699 28.942-6.891 57.884-19.295 84.070-34.455 13.782-8.269 30.32-6.891 42.724 1.378l64.775 46.859 52.371-52.371-46.859-64.775c-8.269-12.404-9.647-30.32-1.378-42.724 15.16-24.808 26.186-52.371 34.455-81.314 4.135-15.16 16.538-26.186 31.699-28.942l78.557-13.782v-73.044zM515.445 666.444c-122.659 0-221.89-99.23-221.89-221.89s99.23-221.89 221.89-221.89 221.89 99.23 221.89 221.89c0 121.281-99.23 221.89-221.89 221.89zM515.445 302.6c-78.557 0-141.954 63.397-141.954 141.954s63.397 141.954 141.954 141.954 141.954-63.397 141.954-141.954c0-78.557-63.397-141.954-141.954-141.954z" />
<glyph unicode="&#xe90c;" glyph-name="nav-profil" horiz-adv-x="1021" d="M510.616 947.546c-275.373 0-500.93-224.173-500.93-500.93 0-275.373 224.173-500.93 500.93-500.93 275.373 0 500.93 224.173 500.93 500.93-1.384 276.757-225.557 500.93-500.93 500.93zM510.616 708.151v0c71.957 0 130.076-58.119 130.076-128.692 0-71.957-58.119-130.076-130.076-130.076-70.573 0-128.692 58.119-128.692 128.692-1.384 71.957 56.735 130.076 128.692 130.076zM689.124 713.686c-42.897 55.351-107.935 88.562-178.508 88.562-49.816 0-96.865-15.222-135.611-45.665-47.049-35.978-77.492-88.562-85.795-148.065s8.303-117.622 44.281-166.054c6.919-8.303 13.838-16.605 20.757-23.524-81.643-33.211-152.216-89.946-199.265-164.67-101.016 186.811-41.514 422.054 139.762 536.908 65.038 41.514 139.762 62.27 215.87 62.27 139.762 0 268.454-70.573 343.178-189.578 41.514-65.038 62.27-139.762 62.27-217.254 0-67.805-16.605-134.227-49.816-193.73-30.443 47.049-69.189 87.178-114.854 119.005-26.292 19.373-55.351 34.595-85.795 45.665 81.643 78.876 92.714 206.184 23.524 296.13zM510.616 25.946v15.222c-112.086 0-218.638 47.049-294.746 127.308 53.968 113.47 168.822 185.427 294.746 185.427 47.049 0 91.33-9.686 134.227-29.059 17.989-8.303 37.362-17.989 53.968-30.443 45.665-31.827 83.027-74.724 107.935-125.924-76.108-81.643-182.659-128.692-294.746-128.692l-1.384-13.838z" />
<glyph unicode="&#xe90d;" glyph-name="nav-search-game" horiz-adv-x="980" d="M410.77 852.334v0 0zM959.634 21.431v0l-251.611 260.974 7.022 9.362c141.605 168.521 119.369 421.303-49.152 562.907-71.387 60.855-162.67 93.623-256.293 93.623-117.029-1.17-228.206-52.663-304.274-142.775-141.605-168.521-119.369-421.303 49.152-562.907 71.387-60.855 162.67-93.623 257.463-93.623h2.341c90.112 0 154.478 17.554 215.333 60.855l9.362 5.851 241.079-251.611c9.362-9.362 25.746-21.065 43.301-21.065 12.873 0 25.746 5.851 37.449 18.725 14.043 18.725 14.043 43.301-1.17 59.685zM635.465 323.365c-59.685-59.685-139.264-93.623-224.695-93.623-175.543 0-318.318 142.775-318.318 317.147 0 175.543 142.775 318.318 317.147 318.318v0c175.543 0 317.147-142.775 317.147-317.147 2.341-85.431-30.427-165.010-91.282-224.695zM555.886 608.914c-9.362 8.192-19.895 15.214-30.427 19.895-16.384 7.022-32.768 12.873-49.152 18.725l-10.533 3.511c-1.17 0-2.341 1.17-2.341 2.341 0 4.681-1.17 9.362-1.17 14.043-1.17 10.533-4.681 21.065-10.533 30.427-5.851 8.192-15.214 15.214-25.746 16.384-8.192 1.17-17.554 1.17-25.746 0-11.703-2.341-22.235-10.533-28.087-21.065-3.511-7.022-5.851-15.214-7.022-23.406-1.17-4.681-1.17-10.533-1.17-16.384 0-1.17-1.17-2.341-2.341-2.341-5.851-1.17-10.533-3.511-16.384-5.851-17.554-4.681-33.938-11.703-50.322-19.895-8.192-4.681-16.384-9.362-24.576-16.384-5.851-4.681-9.362-11.703-11.703-18.725-2.341-9.362 0-18.725 5.851-25.746 3.511-3.511 7.022-5.851 11.703-7.022 5.851-1.17 11.703-2.341 17.554-2.341s12.873 0 19.895-1.17c2.341 0 4.681 0 5.851-1.17 1.17 0 1.17 0 2.341 0 3.511-1.17 4.681-5.851 3.511-9.362-2.341-7.022-4.681-12.873-8.192-18.725-7.022-14.043-15.214-28.087-23.406-42.13-7.022-12.873-12.873-25.746-17.554-38.619-2.341-5.851-3.511-11.703-4.681-18.725 0-3.511 0-5.851 0-9.362 0-4.681 4.681-7.022 8.192-7.022l5.851-1.17h73.728c1.17 0 2.341 0 3.511 0 4.681 1.17 9.362 4.681 11.703 9.362 5.851 9.362 10.533 17.554 16.384 26.917 3.511 5.851 8.192 12.873 12.873 18.725 1.17 2.341 3.511 3.511 5.851 4.681 1.17 1.17 2.341 1.17 3.511 0 2.341-1.17 4.681-4.681 7.022-7.022 4.681-7.022 8.192-12.873 12.873-19.895 4.681-8.192 9.362-15.214 14.043-23.406 2.341-3.511 4.681-5.851 8.192-7.022 1.17 0 3.511-1.17 5.851-1.17 0 0 1.17 0 1.17 0h73.728c2.341 0 3.511 0 5.851 0 0 0 1.17 0 1.17 0 4.681 0 8.192 4.681 8.192 9.362 0 8.192-2.341 15.214-4.681 22.235-4.681 11.703-9.362 24.576-16.384 35.109-7.022 12.873-14.043 25.746-22.235 39.79-4.681 8.192-8.192 16.384-11.703 24.576 0 2.341-1.17 3.511-1.17 5.851s1.17 4.681 2.341 5.851c2.341 1.17 5.851 2.341 9.362 2.341 7.022 1.17 12.873 1.17 19.895 1.17 5.851 0 12.873 1.17 18.725 2.341 9.362 2.341 16.384 10.533 17.554 19.895l1.17 4.681v1.17c0 1.17 0 3.511 0 4.681 2.341 8.192-2.341 15.214-8.192 21.065z" />
<glyph unicode="&#xe90e;" glyph-name="nav-sign-in" horiz-adv-x="1020" d="M562.86 400.553l-174.207-174.207c-16.996-18.412-16.996-48.155 2.833-65.151 16.996-16.996 45.322-16.996 62.318 0l253.521 253.521c18.412 18.412 18.412 46.739 0 65.151 0 0 0 0 0 0l-253.521 253.521c-18.412 18.412-46.739 18.412-65.151 0s-18.412-46.739 0-65.151v0l174.207-174.207h-511.292c-25.494 0-46.739-21.245-46.739-46.739s21.245-46.739 46.739-46.739h511.292zM460.885 32.31c-25.494 0-46.739-21.245-46.739-46.739s21.245-46.739 46.739-46.739h437.643c63.734 0 114.722 50.988 114.722 114.722v783.225c0 63.734-50.988 114.722-114.722 114.722h-437.643c-25.494 0-46.739-21.245-46.739-46.739s21.245-46.739 46.739-46.739c0 0 0 0 0 0h437.643c12.747 0 22.661-9.914 22.661-22.661v0-783.225c0-12.747-9.914-22.661-22.661-22.661h-437.643z" />
<glyph unicode="&#xe90f;" glyph-name="nav-sign-out" horiz-adv-x="1020" d="M858.135 400.553l-175.624-175.624c-16.996-18.412-16.996-48.155 2.833-65.151 18.412-16.996 45.322-16.996 63.734 0l254.938 254.938c18.412 18.412 18.412 46.739 0 65.151 0 0 0 0 0 0l-254.938 254.938c-18.412 18.412-48.155 18.412-65.151 0-18.412-18.412-18.412-48.155 0-65.151v0l175.624-175.624h-514.124c-25.494 0-46.739-21.245-46.739-46.739s21.245-46.739 46.739-46.739h512.708zM559.291 863.69c25.494 0 46.739 21.245 46.739 46.739s-21.245 46.739-46.739 46.739h-440.476c-63.734 0-116.138-52.404-116.138-116.138v-787.474c0-63.734 52.404-116.138 116.138-116.138h440.476c25.494 0 46.739 21.245 46.739 46.739s-21.245 46.739-46.739 46.739c0 0 0 0 0 0h-440.476c-12.747 0-22.661 9.914-22.661 22.661v0 787.474c0 12.747 9.914 22.661 22.661 22.661h440.476z" />
<glyph unicode="&#xe910;" glyph-name="nav-sign-up" horiz-adv-x="1182" d="M469.28 488.169c126.247 0 228.264 102.017 228.264 228.264s-102.017 228.264-228.264 228.264c-126.247 0-228.264-102.017-228.264-228.264s102.017-228.264 228.264-228.264zM469.28 861.808c80.339 0 145.375-65.036 145.375-145.375s-65.036-145.375-145.375-145.375-145.375 65.036-145.375 145.375 65.036 145.375 145.375 145.375zM923.258 352.996h-68.862v-90.54h-90.54v-68.862h90.54v-90.54h68.862v90.54h90.54v68.862h-90.54zM888.827 509.848c-85.44 0-163.228-38.257-214.237-99.467-68.862 21.679-141.549 36.981-205.31 36.981-164.503 0-400.418-100.742-432.299-169.604-8.927-21.679-14.027-45.908-16.578-68.862-2.55-21.679-5.101-42.082-7.651-63.761v-8.927c0-57.385 47.183-103.293 103.293-103.293h571.298c51.009-52.284 122.421-85.44 201.484-85.44 155.577 0 281.823 126.247 281.823 281.823s-126.247 280.548-281.823 280.548zM116.045 114.531c-11.477 0-20.403 8.927-20.403 19.128 0 3.826 1.275 10.202 1.275 17.853 1.275 15.303 2.55 30.605 5.101 44.633 1.275 15.303 5.101 30.605 8.927 44.633 1.275 1.275 3.826 3.826 5.101 5.101 7.651 6.376 15.303 12.752 24.229 17.853 28.055 17.853 57.385 31.88 86.715 44.633 76.513 34.431 158.127 52.284 241.016 54.834 54.834-1.275 108.394-10.202 160.677-25.504-14.027-34.431-22.954-71.412-22.954-109.669 0-40.807 8.927-79.064 24.229-113.494h-513.913zM888.827 29.091c-109.669 0-198.934 89.265-198.934 198.934s89.265 198.934 198.934 198.934c109.669 0 198.934-89.265 198.934-198.934s-89.265-198.934-198.934-198.934z" />
<glyph unicode="&#xe911;" glyph-name="nav-wish-list" horiz-adv-x="879" d="M850.772 721.113l-227.711 213.741c-11.176 11.176-27.94 16.764-43.307 16.764h-505.714c-34.925 0-64.262-27.94-64.262-64.262v-878.712c0-34.925 27.94-64.262 64.262-64.262h734.821c34.925 0 64.262 27.94 64.262 64.262v666.368c-1.397 16.764-8.382 33.528-22.352 46.101zM771.143 648.469v-603.503h-660.78v807.465h441.452v-205.359h219.329zM413.512 448.698c-1.397 0-2.794 0-2.794 0-36.322 0-67.056-22.352-81.026-54.483-13.97 32.131-44.704 54.483-81.026 54.483-44.704 0-81.026-34.925-81.026-79.629 0-1.397 0-2.794 0-2.794 0-64.262 68.453-114.554 162.052-210.947 93.599 96.393 162.052 146.685 162.052 210.947 1.397 43.307-33.528 81.026-78.232 82.423zM178.816 543.694c0-22.352 18.161-39.116 40.513-39.116h421.894c22.352 0 40.513 18.161 40.513 39.116 0 22.352-18.161 39.116-40.513 39.116h-421.894c-22.352 0-40.513-16.764-40.513-39.116zM638.428 377.452c22.352 0 40.513 18.161 40.513 39.116 0 22.352-18.161 39.116-40.513 39.116h-64.262c-22.352 0-40.513-18.161-40.513-39.116 0-22.352 18.161-39.116 40.513-39.116h64.262zM639.825 329.954h-81.026c-22.352 0-40.513-18.161-40.513-39.116 0-22.352 18.161-39.116 40.513-39.116h81.026c22.352 0 40.513 18.161 40.513 39.116 0 22.352-18.161 39.116-40.513 39.116zM639.825 212.606h-187.198c-22.352 0-40.513-18.161-40.513-39.116 0-22.352 18.161-39.116 40.513-39.116h187.198c22.352 0 40.513 18.161 40.513 39.116s-18.161 39.116-40.513 39.116zM219.329 631.705h234.696c22.352 0 40.513 18.161 40.513 39.116 0 22.352-18.161 39.116-40.513 39.116h-234.696c-22.352 0-40.513-18.161-40.513-39.116s18.161-39.116 40.513-39.116z" />
<glyph unicode="&#xe912;" glyph-name="sign-in" horiz-adv-x="977" d="M670.523 427.979c12.472 12.472 12.472 30.687 0 43.323l-248.451 248.779c-5.908 5.908-13.785 9.19-21.497 9.19-7.877 0-15.59-3.282-21.497-9.19-12.472-12.472-12.472-30.687 0-43.323l170.995-170.995c4.267-4.267 5.415-10.503 3.118-15.918-2.297-5.579-7.549-9.026-13.621-9.026h-501.826c-16.903 0-31.179-14.277-31.179-31.179s14.277-31.179 31.179-31.179h501.826c6.072 0 11.323-3.61 13.621-9.026 2.297-5.579 1.149-11.815-3.118-15.918l-170.667-170.667c0 0-0.164-0.164-0.164-0.164-5.415-6.072-8.369-14.441-8.041-22.646 0.328-7.713 3.61-14.769 9.518-19.856l0.985-0.985c5.251-5.251 12.472-8.205 20.185-8.205 7.549 0 14.933 2.954 20.185 8.205l248.451 248.779zM868.759 929.805h-429.456c-16.903 0-31.179-14.277-31.179-31.179s14.277-31.179 31.179-31.179h429.292c20.677 0 36.923-16.246 36.923-36.923v-768.328c0-20.677-16.246-36.923-36.923-36.923h-429.292c-1.969 0-9.19-0.328-10.338-0.656-12.964-4.103-21.005-14.441-21.005-27.897 0.164-17.067 14.605-31.508 31.344-31.508h429.292c54.974 0 97.969 42.995 97.969 97.969v768.821c0 54.81-42.995 97.805-97.805 97.805z" />
<glyph unicode="&#xe913;" glyph-name="sign-up" horiz-adv-x="977" d="M442.749 480.164v0c62.031 0.164 120.287 24.287 163.938 68.103 43.815 43.815 67.938 101.908 68.103 163.938 0 128-104.041 232.041-232.041 232.041s-232.041-104.041-232.041-232.041c-0.164-127.836 104.041-232.041 232.041-232.041zM442.749 887.959c96.821 0 175.754-78.769 175.754-175.59-0.328-96.492-79.097-175.426-175.754-175.754-96.821 0-175.754 78.769-175.754 175.754 0 96.821 78.769 175.59 175.754 175.59zM801.641 320.985c-36.923 24.451-90.749 52.841-138.667 69.415-81.395 28.062-161.805 44.144-220.39 44.144-72.697 0-163.774-19.528-249.928-53.826-41.19-16.41-139.651-60.062-163.118-112.246l-0.656-1.313c-8.862-22.318-22.318-113.231-22.318-125.867v-9.026c2.462-31.015 16.41-59.897 39.221-81.067 22.974-21.333 52.841-33.149 84.021-33.313h498.708c34.626-45.949 89.764-75.651 151.631-75.651 104.697 0 189.867 85.169 189.867 189.867 0.164 97.641-73.682 178.215-168.369 188.882zM590.277 132.267c0-20.513 3.282-40.369 9.354-58.913h-5.415v0.985h-463.754c-34.954 0.328-63.836 26.749-67.118 61.374v5.579c0 8.862 11.815 87.959 18.215 104.533 8.369 17.559 53.333 50.872 132.431 82.379 79.426 31.836 162.954 50.051 228.923 50.051 89.6 0 196.595-33.805 268.144-69.087-70.728-27.733-120.779-96.656-120.779-176.903zM875.487 114.544h-74.667v-74.667h-37.251v74.667h-74.667v37.251h74.667v74.667h37.251v-74.667h74.667v-37.251z" />
<glyph unicode="&#xe914;" glyph-name="check" horiz-adv-x="1427" d="M620.871-43.941l-583.664 583.664 188.623 188.623 395.041-386.305 583.664 583.664 188.623-188.623-772.287-781.022z" />
<glyph unicode="&#xe915;" glyph-name="sign-pass" horiz-adv-x="899" d="M644.069 268.461c0-18.988 15.428-34.416 34.416-34.416s34.416 15.428 34.416 34.416-15.428 34.416-34.416 34.416-34.416-15.428-34.416-34.416zM855.82 243.709c18.988 0 34.416 15.428 34.416 34.416v145.801c0 84.090-68.493 152.583-152.583 152.583h-52.387v144.106c0 124.948-103.756 226.501-231.417 226.501s-231.417-101.552-231.417-226.501v-144.106h-52.387c-84.090 0-152.583-68.493-152.583-152.583v-323.306c0-84.090 68.493-152.583 152.583-152.583h567.438c84.090 0 152.583 68.493 152.583 152.583 0 18.988-15.428 34.416-34.416 34.416s-34.416-15.428-34.416-34.416c0-46.283-37.637-83.921-83.921-83.921h-567.438c-46.283 0-83.921 37.637-83.921 83.921v323.306c0 46.283 37.637 83.921 83.921 83.921h567.608c46.283 0 83.921-37.637 83.921-83.921v-145.801c0-18.988 15.428-34.416 34.416-34.416zM616.434 576.509h-325.51v144.106c0 86.972 73.070 157.838 162.755 157.838s162.755-70.697 162.755-157.838v-144.106zM346.363 268.461c0-18.988 15.428-34.416 34.416-34.416s34.416 15.428 34.416 34.416-15.428 34.416-34.416 34.416c-18.988 0-34.416-15.428-34.416-34.416zM198.527 268.461c0-18.988 15.428-34.416 34.416-34.416s34.416 15.428 34.416 34.416-15.428 34.416-34.416 34.416c-18.988 0-34.416-15.428-34.416-34.416zM494.199 268.461c0-18.988 15.428-34.416 34.416-34.416s34.246 15.428 34.246 34.416-15.428 34.416-34.416 34.416-34.246-15.428-34.246-34.416z" />
<glyph unicode="&#xe916;" glyph-name="sign-pass-forgot" horiz-adv-x="1013" d="M514.551 271.947c0-19.221 15.649-34.7 34.7-34.7s34.7 15.649 34.7 34.7-15.649 34.7-34.7 34.7-34.7-15.649-34.7-34.7zM682.78 15.777h-496.181c-46.777 0-84.88 38.102-84.88 84.88v326.591c0 46.777 38.102 84.88 84.88 84.88h573.916c9.526 0 17.18-0.85 23.474-2.722 3.062-0.85 6.294-1.361 9.526-1.361 15.479 0 29.087 10.376 33.34 25.175 5.273 18.371-5.443 37.762-23.814 43.035-12.587 3.572-26.365 5.273-42.525 5.273h-53.071v145.605c0 126.214-104.951 228.954-234.057 228.954s-234.057-102.74-234.057-228.954v-145.605h-52.901c-85.050 0-154.28-69.231-154.28-154.28v-326.761c0-85.050 69.231-154.28 154.28-154.28h496.181c19.221 0 34.7 15.649 34.7 34.7 0.17 19.221-15.309 34.87-34.53 34.87zM308.901 727.304c0 87.942 73.823 159.383 164.486 159.383s164.486-71.612 164.486-159.383v-145.605h-328.973v145.605zM365.034 271.947c0-19.221 15.649-34.7 34.7-34.7s34.7 15.649 34.7 34.7-15.649 34.7-34.7 34.7-34.7-15.649-34.7-34.7zM978.753 301.204c-0.85 74.504-62.086 135.059-136.42 135.059-75.184 0-136.42-61.236-136.42-136.42 0-19.221 15.649-34.7 34.7-34.7s34.7 15.649 34.7 34.7c0 36.912 30.108 66.849 66.849 66.849s66.849-29.938 66.849-66.849c0-0.34 0-0.68 0-1.021v-0.34c-0.51-26.365-16.5-50.179-40.654-60.385-37.082-15.819-61.066-52.391-61.066-93.215v-34.53c0-19.221 15.649-34.7 34.7-34.7s34.7 15.649 34.7 34.7v34.53c0 12.928 7.314 24.324 18.711 29.257 50.35 21.433 82.839 70.761 82.839 125.534 0.51 0.51 0.51 1.021 0.51 1.531zM842.163 15.777c-19.221 0-34.7-15.649-34.7-34.7s15.649-34.7 34.7-34.7 34.7 15.649 34.7 34.7-15.479 34.7-34.7 34.7zM215.686 271.947c0-19.221 15.649-34.7 34.7-34.7s34.7 15.649 34.7 34.7-15.649 34.7-34.7 34.7-34.7-15.649-34.7-34.7z" />
<glyph unicode="&#xe917;" glyph-name="sign-pass-validation" horiz-adv-x="1036" d="M716.995 276.226c0-21.585-17.498-39.084-39.084-39.084s-39.084 17.498-39.084 39.084c0 21.585 17.498 39.084 39.084 39.084s39.084-17.498 39.084-39.084zM482.687 30.388h-308.373c-42.992 0-77.973 34.98-77.973 77.973v320.098c0 42.992 34.98 77.973 77.973 77.973h562.027c42.992 0 77.973-34.98 77.973-77.973v-77.973c0-21.496 17.392-39.084 39.084-39.084s39.084 17.392 39.084 39.084v77.973c0 86.18-69.96 156.14-156.14 156.14h-46.901v137.576c0 126.437-105.136 229.227-234.113 229.227s-234.113-102.791-234.113-229.227v-137.576h-46.901c-86.18 0-156.14-69.96-156.14-156.14v-320.098c0-86.18 69.96-156.14 156.14-156.14h308.373c21.496 0 39.084 17.392 39.084 39.084s-17.392 39.084-39.084 39.084zM299.188 722.369c0 83.444 69.96 151.255 156.14 151.255s156.14-67.811 156.14-151.255v-137.771h-312.281v137.771zM1001.136 315.896c-17.588 12.507-41.82 8.598-54.522-8.989l-192.293-268.898c-5.276-6.058-11.921-7.426-15.438-7.621-3.713-0.195-10.553 0.195-16.806 6.058l-124.092 121.356c-15.438 15.047-40.061 14.656-55.108-0.586-15.047-15.438-14.852-40.061 0.586-55.108l124.482-121.551c0.195-0.195 0.195-0.195 0.391-0.391 18.76-17.783 43.579-27.75 69.179-27.75 2.15 0 4.495 0 6.644 0.195 27.945 1.954 53.936 15.438 71.524 37.325 0.391 0.586 0.977 1.173 1.368 1.759l193.075 269.875c12.507 17.392 8.598 41.624-8.989 54.327zM568.672 276.226c0-21.585-17.498-39.084-39.084-39.084s-39.084 17.498-39.084 39.084c0 21.585 17.498 39.084 39.084 39.084s39.084-17.498 39.084-39.084zM275.933 276.226c0-21.585-17.498-39.084-39.084-39.084s-39.084 17.498-39.084 39.084c0 21.585 17.498 39.084 39.084 39.084s39.084-17.498 39.084-39.084zM422.302 276.226c0-21.585-17.498-39.084-39.084-39.084s-39.084 17.498-39.084 39.084c0 21.585 17.498 39.084 39.084 39.084s39.084-17.498 39.084-39.084z" />
<glyph unicode="&#xe918;" glyph-name="nav-burger" horiz-adv-x="1536" d="M0-64.127h1535.936v170.794h-1535.936v-170.794zM0 362.698h1535.936v170.667h-1535.936v-170.667zM0 960v-170.667h1535.936v170.667z" />
<glyph unicode="&#xe919;" glyph-name="gametype-plateau" d="M921.781-56.415h-242.726c-1.445 0.722-3.251 0.722-4.696 1.445-5.779 1.084-11.92 2.167-17.338 3.973-11.558 5.057-20.95 13.726-26.729 24.923-16.254 24.923-31.424 50.568-46.956 75.852-14.087 22.033-27.451 44.428-42.26 66.099-5.779 9.391-13.364 17.338-22.756 22.756-3.612 2.528-8.308 2.528-11.92 0-6.502-4.334-12.642-9.752-17.338-16.254-14.087-20.227-27.451-40.454-40.454-60.681-18.060-28.896-35.759-58.514-54.541-87.41-7.946-14.448-21.672-24.923-37.565-28.896-3.973-0.722-7.946-1.084-11.92-1.445h-242.365l-20.227 2.167c-12.642 2.167-25.645 7.224-26.729 24.2-0.722 9.752-0.722 19.505 0.722 28.896 2.167 20.95 6.863 41.177 14.809 60.681 16.254 43.344 35.759 85.604 58.514 125.697 24.923 46.595 51.29 91.745 75.852 137.978 11.558 19.144 20.227 39.732 26.368 61.404 5.418 11.92 0 26.006-11.92 31.063-1.806 0.722-3.612 1.445-5.418 1.806-6.863 2.167-13.726 3.251-20.95 3.973-21.672 1.445-42.983 2.167-63.932 2.528-18.782 0-37.565 2.528-55.986 7.585-15.17 3.251-29.257 11.197-39.732 22.756-20.588 23.117-28.174 54.902-20.227 84.882 6.14 23.478 19.144 44.428 37.565 59.959 23.478 21.311 49.846 39.010 78.019 53.096 53.096 26.006 107.999 47.317 164.346 64.655 17.338 5.418 34.314 11.92 51.651 17.338 3.973 1.084 6.502 4.696 6.863 8.669 1.445 18.060 2.528 36.481 4.696 53.819 2.89 26.368 10.475 52.013 22.033 75.852 17.338 36.12 50.568 61.765 89.577 70.073 27.451 5.779 55.986 6.14 83.437 0.722 34.314-6.14 65.016-25.645 84.882-54.541 19.144-29.98 30.341-64.293 32.869-99.691 2.167-15.532 2.528-31.424 3.973-46.956-0.361-3.973 2.167-7.585 6.14-8.669 11.558-3.973 22.033-7.946 33.592-11.92 54.541-16.615 107.999-36.481 160.011-59.959 36.842-15.893 71.156-37.204 101.136-63.932 19.866-16.976 33.592-39.732 39.010-65.377 0.722-5.057 1.445-10.114 1.445-15.532v-2.528l-2.167-16.254c-3.612-31.063-25.284-57.069-55.263-66.099-20.227-5.779-40.816-9.030-61.765-8.669-21.672-0.722-42.983-1.445-64.655-3.251-10.475-0.361-20.588-3.251-29.618-8.669-6.502-3.612-10.475-10.836-9.391-18.060 0.722-6.14 1.806-12.281 3.251-18.060 10.475-27.812 23.117-54.902 38.287-80.909 23.478-42.983 47.678-85.604 71.156-128.587 20.588-36.842 37.926-75.491 51.651-115.584 9.030-23.839 14.087-49.123 14.809-74.768 1.806-15.893-9.752-29.618-25.645-31.424-1.084 0-2.167 0-3.612 0-6.863 0.361-13.364 0-19.866-0.722z" />
<glyph unicode="&#xe91a;" glyph-name="gametype-ambiance" d="M952.121 933.271c-5.418 6.14-13.003 9.391-21.311 9.391h-0.722c-68.628-36.481-230.084-62.487-418.991-62.487-188.546 0-349.28 25.645-418.269 62.487h-0.722c-7.946 0-15.893-3.251-21.311-9.391-5.779-6.14-8.669-14.448-7.946-22.394l51.29-606.092c22.033-218.887 217.442-378.898 436.329-356.504 188.546 19.144 337.721 167.958 356.504 356.504l51.29 606.092c2.167 8.308-0.361 16.615-6.14 22.394v0zM239.114 582.908c6.14 29.257 53.457 44.428 105.47 32.869 52.013-11.197 89.216-43.705 83.076-72.962-6.502-29.257-53.457-44.428-105.47-32.869s-89.216 43.705-83.076 72.962zM689.891 259.996c-30.702-98.607-135.811-153.149-234.418-122.085-58.153 18.421-104.025 63.932-122.085 122.085-2.167 7.224-0.722 15.17 3.612 21.311s11.558 9.752 19.144 9.752c0 0 118.112-54.902 160.734-54.902 42.983 0 149.898 54.902 149.898 54.902 7.585 0 14.809-3.612 19.144-9.752 4.696-6.502 6.502-14.448 3.973-21.311v0zM700.727 509.946c-52.013-11.197-99.33 3.612-105.47 32.869-6.502 29.257 30.702 62.126 83.076 72.962 52.013 11.197 99.33-3.612 105.47-32.869s-31.063-61.404-83.076-72.962z" />
<glyph unicode="&#xe91b;" glyph-name="gametype-figurines" d="M296.183 352.824c2.528-0.722 4.334-0.722 6.502-1.445 0.722 0.722 0.722 1.445 1.445 1.806 1.084 24.2 11.92 46.595 30.341 62.487 2.167 2.167 3.973 4.696 4.334 7.585 16.615 46.234 32.869 93.189 49.484 139.423 1.806 3.612 4.334 6.863 7.224 9.391 1.084 1.445 2.167 3.251 2.528 5.057-0.722 12.281-1.806 24.562-3.251 37.204 4.334 0.361 8.669 0.722 13.003 0.722 1.806 7.585 1.445 12.281-7.585 14.809-9.030 3.612-15.893 10.836-18.782 19.866-1.806 3.251-3.251 6.502-5.057 10.114-7.224-5.057-7.224-7.585-1.445-13.003 0.722-1.084 1.445-2.167 1.806-3.251 2.89-11.92-0.361-24.2-8.308-33.592-2.167-2.167-3.612-4.696-4.334-7.585-4.334-20.588-9.030-41.177-13.003-61.765 0-2.89 0-6.14 0.722-9.030v-25.645h-13.726c2.528-18.060 14.809-33.592 9.030-54.18-5.779 1.445-11.558 3.251-18.060 4.334v-13.003c-3.251-0.722-5.779 0-7.585-1.445-5.779-4.696-13.726-6.14-20.588-3.251-7.224 1.806-14.087 3.973-20.588 7.224-4.696 2.89-9.030 6.14-13.003 10.114 2.528 15.532 5.779 32.147 9.030 48.401 1.445 7.224 1.445 11.558-8.308 10.114 1.445 8.308 1.806 16.615 3.251 24.562 0 0.722 0.361 1.445 0.722 1.806 8.308 1.445 5.779 7.585 5.779 12.281 1.445 18.782 1.445 37.204 1.445 55.263 0 2.528-1.084 5.057-3.251 6.502-12.281 6.863-16.976 22.394-10.114 35.036 4.334 7.946 12.642 13.003 21.672 13.364 0.722 0 1.445 0.722 1.806 0.722 1.806 5.057 0 7.585-5.779 8.308-18.060 2.528-36.12 6.502-54.541 9.391 1.806 9.391 3.251 18.782 5.057 27.812 3.251-0.722 5.779-0.722 8.308-1.445 3.251 14.809 5.057 30.341 9.391 44.428 5.418 18.060 11.92 35.759 19.866 52.735 16.254 35.759 56.347 54.541 94.634 44.428 1.806-0.361 3.973-0.722 5.779-0.722 0.722 3.251 0.722 5.057 1.445 9.030h33.953c5.057 0.361 9.752 1.084 14.809 1.806 7.585 2.167 13.726 8.308 15.893 15.893 1.806 3.251 4.696 5.779 8.308 6.502 3.612 0.361 6.14 3.612 5.779 7.224 0 0 0 0.361 0 0.361-1.445 19.866 10.475 38.287 28.896 45.15 2.528 1.445 3.973 4.334 6.502 8.308h43.344c4.334-4.334 7.224-8.308 10.114-9.391 16.976-6.863 27.451-24.2 26.368-42.26 0-6.502 1.806-9.391 8.308-10.836 2.167-1.084 3.973-3.251 4.334-5.779 1.445-4.334 8.308-14.087 13.003-14.809 17.338-1.806 34.675-3.973 51.29-5.779 0 0.722 0.722 1.445 0.722 2.528 1.445-3.251 1.806-6.502 2.528-8.308 13.364 1.445 27.090 1.806 40.454 1.445 23.478-3.251 44.066-17.699 55.263-38.648 15.532-27.090 25.645-57.069 30.341-88.133 0.722-4.696 1.445-9.030 2.528-13.364 0.361-1.084 0.722-2.167 1.445-3.251 3.251 0 5.779 0.722 9.030 0.722 1.445-9.030 3.251-18.060 4.334-27.812l-44.428-7.585-13.364-1.806c-5.057-0.722-7.224-2.528-5.779-8.308 3.612-0.722 6.863-1.445 10.114-2.528 10.114-3.251 16.976-12.642 17.338-23.117 1.445-9.752-3.973-18.782-13.003-22.394-2.167-1.445-3.612-3.251-3.973-5.779v-68.267c6.502 0.722 8.308-1.806 8.308-7.224 0-6.502 1.806-13.003 2.528-19.144-3.251-0.722-6.502-1.445-10.114-1.806 3.973-19.866 7.224-40.454 10.836-61.043-4.334 1.806-7.585 0.722-9.030-3.973 0-1.445-1.806-2.528-2.528-2.528-14.087-4.334-28.174-14.087-44.428-3.973-1.445 0.722-3.251 0.722-5.057 1.445 0 4.334 0.722 9.030 0.722 13.364-6.502-1.806-13.003-3.973-18.782-5.779 3.251-18.782 11.92-35.759 24.923-49.484 11.558-12.281 18.782-28.174 19.866-45.15 0.361-1.806 0.722-3.973 1.445-5.779 5.779 1.806 7.585-1.445 9.391-5.779 22.033-70.073 44.428-139.423 66.099-209.496 1.806-5.779 3.973-8.308 10.114-9.030 27.812-2.528 54.902-9.030 80.909-19.144 4.696-2.167 9.391-5.057 13.364-8.308 5.779-4.334 9.030-11.197 9.030-18.782v-63.571c0.722-6.14-2.528-12.281-7.585-15.532-11.197-6.863-23.478-12.281-36.12-15.893-32.147-7.585-65.016-14.087-97.885-18.782-105.831-12.281-212.385-16.615-318.939-13.003-75.491 0.722-150.981 6.502-225.75 17.338-29.618 3.251-58.153 10.836-85.604 22.394-3.973 1.806-7.585 3.973-10.836 6.502-6.14 3.612-9.752 10.475-9.030 17.338 0.722 20.588 0.722 41.899 0 62.487-0.361 9.752 4.696 18.782 13.003 23.839 15.17 8.669 31.786 14.448 48.762 17.338 13.003 2.528 25.645 4.334 38.648 6.502 4.334 0 7.585 2.89 8.308 7.224 15.893 51.29 32.869 102.942 48.762 153.51 11.558 24.2 18.060 45.511 24.923 67.183zM491.231 487.913c-1.445-6.502-3.612-12.642-6.502-18.782-15.893-30.341-32.869-60.32-48.762-90.661-10.475-17.699-17.338-37.204-20.588-57.431 0-1.806 0.722-3.973 0.722-5.779 0.722-2.528 2.528-5.779 1.806-8.308-4.334-34.675-9.391-69.35-14.087-104.748-2.528-19.866-5.057-39.371-7.585-59.237h229.723c-3.251 22.394-5.779 45.15-9.030 66.822-4.334 32.869-8.308 65.738-13.003 97.885 0 1.806-0.722 5.057 0 5.779 5.057 3.251 3.251 7.585 1.806 11.558-4.334 15.532-9.752 30.341-16.615 45.15-15.893 32.147-33.953 62.849-51.29 94.634-3.251 5.779-8.308 11.558-4.334 19.144 0.722 1.445-0.722 3.251-1.445 5.057-12.281-8.308-28.174-8.669-40.816-1.084v0zM669.302 507.417c0.722 9.391 1.445 18.782 1.445 28.174 0 2.167 0 4.334-0.722 6.502-3.973 19.866-8.308 39.732-13.003 59.598-0.722 2.89-2.528 5.418-4.334 7.585-10.475 9.752-13.364 25.284-6.502 37.926 4.334 5.057 2.528 9.030-0.722 14.809-6.502-15.893-9.391-33.592-30.702-33.953v-13.364c9.030 1.806 10.114-2.528 10.114-9.391-0.722-8.308 0-16.615 0-24.562 0-2.528 0.722-5.418 1.806-7.585 1.806-4.334 5.057-9.030 7.224-13.364 9.030-24.562 17.338-48.401 25.645-72.601 3.251-9.030 7.224-18.060 10.114-27.812 1.084 1.806 1.445 3.612 1.445 5.779-1.445 9.030 0.722 18.060 5.779 25.645 2.528 5.418 4.334 10.836 5.057 16.615h-12.642z" />
<glyph unicode="&#xe91c;" glyph-name="gametype-cartes" d="M101.136-53.886c-49.123 0-89.216 39.010-89.939 88.133v649.436c0.722 49.123 40.816 88.494 89.939 88.133h469.559c48.762 0 88.133-39.732 88.133-88.133 0 0 0 0 0 0v-649.436c0-48.762-39.371-88.133-88.133-88.133h-469.559zM453.305 63.503c0-16.254 13.003-29.257 29.257-29.257h58.875c16.254 0 29.257 13.003 29.257 29.257s-13.003 29.257-29.257 29.257h-58.875c-15.893 0-29.257-13.003-29.257-29.257zM150.62 212.679c-15.17-5.418-23.478-22.033-18.060-37.204 3.973-11.92 15.17-19.866 27.451-19.866h352.169c16.254 0 29.257 13.364 28.896 29.618 0 12.281-7.946 23.478-19.866 27.451-36.481 12.281-68.989 33.592-94.995 61.765 3.973-0.361 7.224-1.445 11.558-1.445 74.046 1.806 132.921 63.21 131.115 137.256 0 0.722 0 1.445 0 2.528 0 83.798-67.544 140.507-160.734 219.248-16.615 14.087-33.953 28.896-52.374 44.789-11.197 9.752-27.451 9.752-38.648 0-18.421-15.893-36.12-30.702-52.374-44.789-93.189-79.103-160.734-135.811-160.734-219.248-2.89-74.046 54.541-136.533 128.226-139.423 0.722 0 1.806 0 2.528 0 3.973 0.361 7.585 0.722 11.558 1.445-26.729-28.535-59.237-49.846-95.718-62.126zM101.136 654.425c0-16.254 13.003-29.257 29.257-29.257h58.875c16.254 0 29.257 13.003 29.257 29.257s-13.003 29.257-29.257 29.257c0 0 0 0 0 0h-58.875c-15.893 0-29.257-13.003-29.257-29.257zM714.452 4.989c2.167 9.752 3.251 19.505 2.89 29.257v170.486l170.125 227.194c7.585 10.475 7.585 24.562 0 35.036l-171.208 228.278c-5.779 76.213-68.989 135.089-145.563 135.45h-264.037v29.257c0 48.762 39.371 88.133 88.133 88.133h528.073c49.123 0 88.855-39.010 89.939-88.133v-766.826c-1.084-49.123-41.177-88.133-89.939-88.133h-208.412zM835.093 214.123v-60.681c-1.084-16.254 11.197-29.98 27.451-31.063s29.98 11.197 31.063 27.451c0 1.084 0 2.528 0 3.612v60.681c0 16.254-13.003 29.257-29.257 29.257s-29.257-13.003-29.257-29.257c0 0 0 0 0 0zM835.093 801.072v-58.875c0-16.254 13.003-29.257 29.257-29.257s29.257 13.003 29.257 29.257v58.875c0 16.254-13.003 29.257-29.257 29.257s-29.257-13.003-29.257-29.257zM268.732 214.123c28.174 24.562 50.929 54.541 67.183 88.133 16.254-33.592 39.371-63.571 67.183-88.133h-134.366zM717.342 595.55l110.166-146.647-110.166-146.647v293.294zM370.952 382.081c-0.722 4.696-2.167 8.669-2.89 13.364-2.528 15.532-16.615 26.368-32.147 24.923-15.532 1.806-29.618-9.391-32.147-24.923-0.722-4.696-1.806-9.030-2.89-13.364-10.475-28.535-36.481-48.040-66.822-50.207-41.538 1.445-74.046 36.481-72.24 78.019 0 1.084 0 1.806 0 2.89 0 56.347 52.735 100.775 140.145 174.459 10.836 9.030 22.394 18.782 33.953 28.535 11.92-9.752 23.117-19.505 33.953-28.535 87.41-73.685 140.145-118.112 140.145-174.459 3.251-41.538-27.812-77.658-69.35-80.909-1.084 0-1.806 0-2.89 0-30.341 1.806-56.347 21.672-66.822 50.207v0z" />
<glyph unicode="&#xe91d;" glyph-name="gametype-dés" d="M94.273-29.325c-41.538 0-75.129 33.953-75.491 75.491v497.010c0 41.538 33.953 75.129 75.491 75.491h497.371c41.538 0 75.491-33.592 75.491-75.491 0 0 0 0 0-0.361v-497.010c0-41.538-33.953-75.129-75.491-75.491l-497.371 0.361zM444.275 122.74c0-39.010 31.424-70.795 70.434-70.795s70.795 31.424 70.795 70.434c0 39.010-31.424 70.795-70.434 70.795 0 0 0 0 0 0-39.371 0-70.795-31.424-70.795-70.434 0 0 0 0 0 0v0zM100.413 122.74c0-39.010 31.424-70.795 70.434-70.795s70.795 31.424 70.795 70.434c0 39.010-31.424 70.795-70.434 70.795 0 0 0 0 0 0-39.010 0-70.795-31.424-70.795-70.434 0 0 0 0 0 0v0zM272.344 303.34c0-39.010 31.786-70.795 70.795-70.795s70.795 31.786 70.795 70.795-31.786 70.795-70.795 70.795c0 0 0 0 0 0-39.010 0-70.795-31.786-70.795-70.795 0 0 0 0 0 0v0zM444.275 466.241c0-39.010 31.786-70.795 70.795-70.795s70.795 31.786 70.795 70.795-31.786 70.795-70.795 70.795v0c-39.371-0.361-70.795-31.786-70.795-70.795 0 0 0 0 0 0zM100.413 466.241c0-39.010 31.786-70.795 70.795-70.795s70.795 31.786 70.795 70.795-31.786 70.795-70.795 70.795c-39.010 0-70.795-31.786-70.795-70.795 0 0 0 0 0 0v0zM797.167 231.1c-16.615 0-48.401 0-48.401 35.398v295.461c0 74.407-60.32 134.727-134.727 134.727h-271.983c-16.254-2.167-31.063 9.030-33.23 25.284-0.361 1.806-0.361 3.251-0.361 5.057v121.724c0 44.789 36.481 81.27 81.27 81.27h536.381c44.789 0 81.27-36.481 81.631-81.27v-536.381c0-44.789-36.481-81.27-81.27-81.27h-129.309zM767.549 766.397c0-42.26 33.953-76.213 76.213-76.213s76.213 33.953 76.213 76.213-33.953 76.213-76.213 76.213c0 0 0 0 0 0-42.26 0-76.213-33.953-76.213-76.213z" />
<glyph unicode="&#xe91e;" glyph-name="gametype-classique" d="M752.017 120.573c25.284 40.816 23.117 92.828-5.779 131.477-52.374 70.073-125.697 277.040-76.935 418.269h47.678v278.846h-57.069v-57.069h-57.069v57.069h-63.932v-57.069h-57.069v57.069h-60.681v-57.069h-57.069v57.069h-59.959v-278.846h49.846c48.762-141.229-24.923-348.196-76.935-418.269-28.896-38.287-31.786-90.661-6.863-131.838-14.087-0.722-25.645-11.92-26.368-26.368v-60.681c0.722-15.893 13.364-28.535 29.257-28.896h2.528v-57.069h468.837v57.069h5.057c15.532 0.361 27.812 13.364 27.451 28.896v60.681c0 13.726-10.836 24.923-24.923 26.729v0z" />
<glyph unicode="&#xe91f;" glyph-name="gametype-adresse" d="M16.976 400.863c0 246.699 200.104 446.442 446.804 446.442 71.156 0 141.59-16.976 204.8-49.846-0.361-5.057-0.722-10.475-0.361-15.532l5.057-65.016-37.204-36.842c-153.871 94.995-356.143 47.317-451.138-106.554s-47.317-356.143 106.554-451.138 356.143-47.317 451.138 106.554c65.377 105.831 65.377 239.475-0.361 344.945l40.816 40.816 56.708-4.334c2.167 0 4.334-0.361 6.502-0.361 3.612 0 7.224 0.361 10.836 0.722 115.945-217.803 33.592-488.341-184.212-604.286s-488.341-33.592-604.286 184.212c-33.592 65.016-51.651 137.256-51.651 210.218zM243.81 400.863c0 121.363 98.246 219.97 219.609 219.97 32.147 0 63.932-6.863 93.189-20.588l-1.806-1.806-82.353-82.715c-2.89 0.361-5.779 0.361-8.669 0.361-63.571 0-115.584-51.651-115.584-115.223s51.651-115.584 115.223-115.584 115.584 51.651 115.584 115.223c0 0 0 0 0 0 0 2.89 0 5.779-0.361 8.669l84.521 84.159c51.29-110.166 3.612-240.92-106.554-292.21s-240.92-3.612-292.21 106.554c-13.726 29.98-20.588 61.404-20.588 93.189v0zM490.87 403.392c-14.448 0-26.006 11.558-26.006 26.006 0 0.722 0 1.445 0 2.167l2.167 26.006c0.361 6.14 3.251 12.281 7.585 16.615l187.824 187.824 42.983 43.344-5.779 74.768-0.361 4.696c-1.084 15.17 4.334 29.98 15.17 40.816l119.196 119.196c3.973 3.973 10.836 3.973 14.809 0 1.806-1.806 2.89-3.973 2.89-6.502l6.14-80.909 30.341 30.341c11.92 11.92 31.424 12.281 43.344 0.361 0 0 0 0 0.361-0.361l18.421-18.421c11.92-11.92 11.92-31.424 0-43.705l-26.368-26.368 72.601-5.418c5.779-0.361 10.114-5.418 9.752-11.197-0.361-2.528-1.084-4.696-2.89-6.502l-119.196-119.196c-9.752-9.752-23.117-15.17-36.842-15.17-1.084 0-2.528 0-3.973 0l-2.89 0.361-68.267 5.057-234.78-234.78c-4.696-4.696-10.475-7.224-16.976-7.585l-27.451-1.445h-1.806z" />
<glyph unicode="&#xe920;" glyph-name="gametype-role" d="M442.108-51.719c-6.502-0.361-12.281 4.334-13.364 10.475-0.722 2.89-1.084 6.14-1.445 9.030 0 68.628 0.722 136.895 0.722 205.522 0.722 53.819 0.722 107.637 0.722 161.456 0 8.308-0.722 15.893-1.445 24.562 0.361 5.779-4.334 10.475-9.752 10.475-0.361 0-0.722 0-1.084 0-44.428-1.445-88.494-1.445-132.199-1.445-31.063-0.722-59.598 16.615-72.601 44.789-21.672 41.899-5.418 93.189 36.481 114.861 13.003 6.863 27.812 10.114 42.622 9.391 66.822 0.722 134.366 0 201.549 0h235.141c25.645 1.084 50.929-7.585 70.434-24.562 25.645-24.923 32.508-63.21 17.338-95.718-13.364-31.063-45.15-50.207-79.103-48.401h-122.085c-14.087 0-18.060-5.057-18.060-18.782 0-63.571 0.722-127.142 0.722-190.713v-175.182c0.722-5.779 0.722-11.558 0.722-17.338-0.722-7.585-2.167-16.254-11.92-17.338-1.806-0.361-3.612-0.361-5.418-0.361-7.585 0-12.281 4.696-13.003 13.726-0.722 10.475-0.722 20.227-0.722 30.702v384.316c0 14.809 5.418 19.505 19.505 19.505 50.207 0.722 100.052 0 149.537 0.722 28.896-1.445 53.819 19.505 57.431 48.401 2.528 25.284-11.92 49.123-35.759 58.153-8.308 2.89-16.976 3.973-26.006 4.334h-404.543c-6.502 0-13.003 0-19.866 0-9.752 0-19.505-0.361-29.257-1.445-29.98-5.418-49.846-33.953-44.428-63.932 4.696-25.645 26.368-44.428 52.374-45.15 33.23 0.722 66.822 0 100.052 0h50.207c16.254 0.361 22.756-6.14 22.756-23.839v-403.821c0-4.696-0.722-9.030-2.89-13.364-2.89-4.334-6.863-7.585-11.92-9.030h-1.445zM618.012-19.572l-0.361-0.361c-1.806 4.334-2.89 8.669-3.612 13.364 0 16.615 0.722 33.592 0.722 50.207 0 97.885 0 195.77-0.722 294.016 0 10.475 2.89 12.642 14.087 12.642 37.926 0 75.491-1.445 113.778 0 36.842 1.445 69.711 22.394 86.688 54.902 16.615 31.063 15.532 68.628-2.89 98.607-4.334 7.224-9.752 14.087-15.893 19.866-2.167 1.806-3.973 3.612-6.14 5.418v0l-0.722 0.722c-3.612 2.89-7.224 5.418-10.836 7.585l-0.722 0.722c-20.95 11.558-44.789 16.976-68.989 15.893h-424.048c-25.284 1.445-50.568-6.14-71.156-20.95-14.448-10.836-26.006-24.923-33.23-41.538-13.364-29.257-10.836-63.21 6.14-90.3 8.308-12.642 18.421-23.839 30.702-32.869 17.699-12.281 39.010-18.421 60.681-18.060h106.554c6.14 0 9.752-0.722 12.281-2.89 2.167-2.167 2.89-6.14 2.528-12.642-0.722-58.153-0.722-116.667-0.722-174.82v-150.62c0-5.779 0.722-11.92 0.722-17.338 0 0 0-0.361 0-0.361-0.361-3.612-1.445-7.224-2.89-10.836-4.334 0.361-8.308 1.445-12.281 3.251l-0.361 0.361c-5.418 3.612-10.836 7.585-15.893 11.558l-12.281 9.030c-27.090 20.227-55.263 40.454-82.353 59.959-29.98 21.672-59.959 42.622-90.3 64.293-20.95 15.532-42.622 30.341-62.849 46.956-5.418 5.057-8.669 11.558-9.030 18.782-0.361 12.281-0.361 24.2 0.722 36.481 0 25.284 0.361 50.568 0.361 75.852 0 46.956 0 93.912 0 140.868 0 43.344 0 86.688 0.722 130.032 1.084 61.043 18.060 120.641 49.123 173.376 21.672 38.648 50.207 73.323 83.798 101.858 39.371 34.314 85.243 60.32 134.727 76.213l5.057 1.445c36.842 11.197 75.129 16.976 113.778 17.338h3.251c21.672 0 43.344-2.167 65.016-5.418 32.508-5.418 63.932-15.532 93.551-29.257 13.726-6.502 27.090-13.726 40.093-21.311 24.2-14.448 46.595-31.424 66.822-51.29l0.722-0.722c22.756-21.672 42.622-45.872 59.598-71.879 22.394-36.842 39.010-76.574 49.484-118.112 7.946-39.010 11.197-78.38 9.752-118.112v-330.859c0-10.475 2.167-20.227-7.585-27.090-9.752-6.14-19.505-12.642-28.535-19.505-48.762-35.759-98.607-70.434-147.369-106.193-27.812-20.227-55.986-39.732-83.798-59.959-0.722-0.722-1.806-1.445-2.89-2.167-4.334-2.167-7.585-3.612-11.92-5.418l-1.084-0.722z" />
<glyph unicode="&#xe921;" glyph-name="gametype-enquete" d="M125.336 70.366c-149.537 156.76-144.119 405.266 12.642 554.802s405.266 144.119 554.802-12.642 144.119-405.266-12.642-554.802c-75.491-71.879-176.265-110.888-280.652-108.36-103.664 2.167-202.272 45.872-274.15 121.002zM173.737 588.326c-136.895-130.032-142.313-346.751-12.281-483.285s346.751-142.313 483.285-12.281c136.895 130.032 142.313 346.751 12.281 483.285-62.487 65.738-148.814 104.025-239.475 106.193s-178.071-31.424-243.81-93.912zM251.756 92.399l2.528 100.052c0.722 26.729 18.421 49.846 43.705 57.792l20.95 5.779 75.491-43.344c7.224-4.334 16.254-4.334 23.839-0.722l77.297 39.732 20.588-6.863c24.923-9.030 41.538-33.23 40.816-59.598l-2.528-100.775c-94.273-53.457-210.94-50.568-302.685 7.946zM606.454 183.783c1.084 48.040-28.535 91.745-73.685 107.999-0.361 0-0.361 0-0.722 0l-30.702 10.475c-6.502 2.167-13.364 1.445-19.144-1.445l-74.768-38.287-72.601 41.899c-5.779 3.251-12.642 4.334-19.144 2.528l-31.424-8.669c0 0-0.361 0-0.361 0-46.234-14.087-78.019-55.986-79.103-104.387l-1.445-62.487c-116.306 114.139-117.751 300.879-3.612 417.185s300.879 117.751 417.185 3.612 117.751-300.879 3.612-417.185c-4.696-5.057-9.752-9.752-15.17-14.087l1.084 62.849zM299.073 449.264c-1.445-62.487 47.678-114.139 110.166-115.584s114.139 47.678 115.584 110.166c1.445 62.487-47.678 114.139-110.166 115.584-62.487 1.806-114.139-47.678-115.584-110.166zM348.557 448.181c0.722 35.036 29.618 62.487 64.655 61.765s62.487-29.618 61.765-64.655c-0.722-35.036-29.618-62.487-64.655-61.765 0 0 0 0 0 0-34.675 0.722-62.487 29.618-61.765 64.655v0zM702.533 647.201c-20.588 19.144-42.983 36.481-66.822 52.013 0 0.361 0 0.361 0 0.722l301.24 239.475c11.197 10.114 28.896 10.114 40.093 0l31.063-32.508c5.057-5.057 7.946-11.558 7.946-18.782 0-6.863-3.251-13.726-8.669-18.782l-248.866-285.709c-16.615 23.117-35.398 44.066-55.986 63.571z" />
<glyph unicode="&#xe922;" glyph-name="gametype-enfant" d="M94.995 363.66c1.084 53.096 12.281 105.47 32.508 154.593h-12.642c-71.879 20.588-111.611 104.025-88.133 188.185 23.478 83.798 97.163 137.617 169.041 117.029 48.762-14.087 85.243-56.347 93.551-107.999 65.016 50.207 143.757 78.38 224.666 80.186 81.27-0.361 160.372-28.535 224.666-80.186 10.114 50.929 45.872 92.106 93.551 107.999 71.879 20.588 145.563-33.592 169.041-117.39 16.254-83.798-23.478-167.596-95.357-188.185h-12.642c20.227-48.762 31.063-101.497 32.508-154.593 0-204.8-185.295-308.825-415.379-308.825s-415.379 104.387-415.379 309.187zM397.319 173.669c0-33.592 52.013-80.186 113.417-80.186 59.237 0 111.611 48.401 113.417 80.186 0 33.592-48.401 3.612-113.417 3.612-41.538 0-76.213 12.281-96.079 12.281-11.197 0-17.338-3.612-17.338-15.893v0zM449.332 298.283c6.14-30.341 31.424-52.374 61.043-53.819 29.98 1.445 54.902 23.839 61.043 53.819 0 20.588-28.896 37.204-61.043 37.204s-61.043-16.615-61.043-37.204v0zM199.382 393.278c0-76.213 52.013-83.798 120.641-83.798 61.043 0 117.029 63.21 118.835 141.59 0 74.407 7.224 137.617-61.043 137.617-70.434 0-178.432-115.223-178.432-195.409zM582.614 451.070c-3.251-72.601 50.568-134.005 120.641-137.617 64.655 0 120.641 9.391 122.447 83.798 0 74.407-113.417 191.797-181.683 191.797-65.016-0.361-61.404-63.571-61.404-137.978v0zM631.015 447.458c0 20.588 16.254 37.204 36.12 37.204s36.12-16.615 36.12-37.204-16.254-37.204-36.12-37.204c-19.866 0-36.12 16.615-36.12 37.204v0zM316.411 447.458c0 20.588 16.254 37.204 36.12 37.204 18.782 1.084 34.675-13.726 36.12-32.869 0-1.445 0-2.89 0-4.334 0-20.588-16.254-37.204-36.12-37.204s-36.12 16.615-36.12 37.204v0z" />
<glyph unicode="&#xe923;" glyph-name="gametype-reflexion" d="M685.195-28.241v93.189h107.637c37.926-0.361 68.628 29.98 68.989 67.905 0 0 0 0 0 0v185.656h51.651c18.421-0.361 33.592 14.448 33.953 32.869 0 6.502-1.806 13.003-5.418 18.421-14.809 22.756-32.869 54.541-50.207 87.049-18.060 37.926-28.174 78.741-29.618 120.641v10.475h-0.722c-17.699 216.358-207.69 377.453-424.048 359.393-197.215-16.254-351.808-176.988-360.477-374.564-2.89-96.801 31.424-190.713 95.357-263.314v-174.459c0-16.615 10.836-31.063 26.729-36.12l452.583-151.704c2.89-1.084 5.779-1.445 8.669-1.445 13.003 0.361 24.562 11.92 24.923 26.006zM518.682 359.687l-8.308-49.123c-1.445-9.030-9.752-15.893-19.144-15.893h-50.568c-9.391 0-17.338 6.502-19.144 15.893l-7.946 50.207c-18.421 4.696-36.481 12.281-53.096 21.672l-41.538-29.257c-7.585-5.418-18.060-4.696-24.923 2.167l-36.12 35.398c-6.502 6.502-7.585 16.976-2.167 24.562l29.618 40.816c-10.114 16.615-17.699 34.675-22.394 53.457l-50.568 8.308c-9.030 1.445-15.893 9.030-16.254 18.421v49.484c0 9.391 6.863 17.338 16.254 18.782l50.568 8.308c4.696 18.782 12.281 36.842 22.394 53.457l-29.618 40.816c-5.418 7.585-4.696 18.060 2.167 24.562l36.12 35.398c6.863 6.502 17.338 6.863 24.923 1.806l41.538-29.257c16.976 9.752 35.398 17.338 54.541 22.033l8.669 49.846c1.445 9.391 9.752 15.893 19.144 15.893h50.207c9.391 0 17.338-6.502 19.144-15.893l8.308-49.484c19.505-4.696 38.287-12.642 55.625-22.756l41.177 28.896c7.585 5.418 18.421 4.696 24.923-2.167l36.12-35.398c6.502-6.502 7.585-16.976 2.167-24.562l-29.98-41.538c9.752-16.615 17.338-34.675 22.033-53.457l50.207-7.946c9.391-1.445 16.254-9.391 16.254-18.782v-49.484c0-9.391-6.863-17.338-16.254-18.782l-50.929-8.308c-5.057-18.782-12.642-36.842-22.756-53.457l29.618-40.454c5.418-7.585 4.696-18.060-2.167-24.562l-36.12-35.398c-6.863-6.502-17.338-7.585-24.923-2.167l-41.899 29.257c-17.338-9.391-35.759-16.615-54.902-21.311zM577.196 561.958c1.084 61.404-48.040 111.611-109.082 112.694s-111.611-48.040-112.694-109.082c-1.084-61.404 48.040-111.611 109.082-112.694 0.722 0 1.084 0 1.806 0 60.681-0.361 110.527 48.401 110.888 109.082v0z" />
<glyph unicode="&#xe924;" glyph-name="gametype-rapidite" d="M823.173 541.009c-3.973 5.779-10.836 8.669-17.699 7.224l-199.382-44.789 61.043 427.299c1.084 7.585-3.251 15.17-10.475 18.060s-15.17 0.361-19.866-5.779l-428.382-585.143c-3.973-5.418-4.334-13.003-0.722-18.782s10.475-8.669 16.976-7.585l216.358 40.093-63.571-404.543c-1.084-7.585 2.89-14.809 10.114-18.060 2.167-0.722 4.334-1.445 6.502-1.445 5.418 0 10.475 2.528 13.726 6.863l415.018 567.083c4.334 6.14 4.334 13.726 0.361 19.505z" />
<glyph unicode="&#xe925;" glyph-name="arrow-prev" horiz-adv-x="569" d="M472.207-47.249l-449.393 449.469c-2.264 1.697-4.268 3.436-6.14 5.306v0c-10.257 10.248-16.602 24.41-16.602 40.055 0 0.201 0.001 0.402 0.003 0.602v-0.031c-0.001 0.148-0.002 0.322-0.002 0.497 0 15.644 6.345 29.806 16.601 40.054v0c1.808 1.81 3.737 3.499 5.774 5.053l0.138 0.101 449.62 449.62c10.297 10.277 24.511 16.632 40.21 16.632s29.913-6.355 40.21-16.632l-0.001 0.001c10.277-10.297 16.632-24.511 16.632-40.21s-6.355-29.913-16.632-40.21l-415.056-414.98 415.057-414.981c10.277-10.297 16.632-24.511 16.632-40.21s-6.355-29.913-16.632-40.21l0.001 0.001c-10.271-10.257-24.452-16.599-40.115-16.599-0.047 0-0.093 0-0.14 0h0.007c-15.694 0.005-29.898 6.378-40.171 16.674l-0.001 0.001z" />
<glyph unicode="&#xe926;" glyph-name="arrow-next" horiz-adv-x="569" d="M97.019 943.249l449.393-449.469c2.264-1.697 4.268-3.436 6.14-5.306v0c10.257-10.248 16.602-24.41 16.602-40.055 0-0.201-0.001-0.402-0.003-0.602v0.031c0.001-0.148 0.002-0.322 0.002-0.497 0-15.644-6.345-29.806-16.601-40.054v0c-1.808-1.81-3.737-3.499-5.774-5.053l-0.138-0.101-449.62-449.62c-10.297-10.277-24.511-16.632-40.21-16.632s-29.913 6.355-40.21 16.632l0.001-0.001c-10.277 10.297-16.632 24.511-16.632 40.21s6.355 29.913 16.632 40.21l415.056 414.98-415.057 414.981c-10.277 10.297-16.632 24.511-16.632 40.21s6.355 29.913 16.632 40.21l-0.001-0.001c10.271 10.257 24.452 16.599 40.115 16.599 0.047 0 0.093 0 0.14 0h-0.007c15.694-0.005 29.898-6.378 40.171-16.674l0.001-0.001z" />
<glyph unicode="&#xe927;" glyph-name="facebook3" d="M1005.387 775.821c-2.89 89.577-74.768 161.456-164.346 164.346h-658.105c-89.577-2.89-161.456-74.768-164.346-164.346v-658.105c2.89-89.577 74.768-161.456 164.346-164.346h328.691v372.758h-120.279v164.707h120.279v63.571c0 110.888 83.437 210.579 185.295 210.579h132.921v-164.707h-132.56c-20.227-4.334-33.953-23.117-31.786-43.705v-65.738h164.707v-164.346h-164.707v-373.119h175.543c89.577 2.89 161.456 74.768 164.346 164.346v658.105z" />
<glyph unicode="&#xe928;" glyph-name="youtube2" d="M963.048 722.627c-26.729 47.678-55.625 55.986-114.5 59.598s-206.606 5.418-334.832 5.418-276.317-1.806-335.193-5.418c-58.875-3.973-87.771-11.92-114.5-59.598-27.451-47.317-41.538-128.948-41.538-272.344v-0.722c0-143.035 14.087-225.027 41.538-271.983 26.729-47.317 55.986-55.986 114.5-59.959 58.875-3.612 206.967-5.418 335.193-5.418s276.317 2.167 335.193 5.418c58.875 3.973 87.771 12.642 114.5 59.959 27.451 46.956 41.538 128.948 41.538 271.983v0.722c0 143.396-14.087 224.666-41.899 272.344zM390.908 265.71v368.423l307.019-184.212-307.019-184.212z" />
<glyph unicode="&#xea10;" glyph-name="checkmark" d="M864 832l-480-480-224 224-160-160 384-384 640 640z" />
<glyph unicode="&#xea3c;" glyph-name="arrow-right2" d="M621.254 82.746l320 320c24.994 24.992 24.994 65.516 0 90.51l-320 320c-24.994 24.992-65.516 24.992-90.51 0-24.994-24.994-24.994-65.516 0-90.51l210.746-210.746h-613.49c-35.346 0-64-28.654-64-64s28.654-64 64-64h613.49l-210.746-210.746c-12.496-12.496-18.744-28.876-18.744-45.254s6.248-32.758 18.744-45.254c24.994-24.994 65.516-24.994 90.51 0z" />
<glyph unicode="&#xea40;" glyph-name="arrow-left2" d="M402.746 82.746l-320 320c-24.994 24.992-24.994 65.516 0 90.51l320 320c24.994 24.992 65.516 24.992 90.51 0 24.994-24.994 24.994-65.516 0-90.51l-210.746-210.746h613.49c35.346 0 64-28.654 64-64s-28.654-64-64-64h-613.49l210.746-210.746c12.496-12.496 18.744-28.876 18.744-45.254s-6.248-32.758-18.744-45.254c-24.994-24.994-65.516-24.994-90.51 0z" />
<glyph unicode="&#xea82;" glyph-name="share2" d="M864 256c-45.16 0-85.92-18.738-115.012-48.83l-431.004 215.502c1.314 8.252 2.016 16.706 2.016 25.328s-0.702 17.076-2.016 25.326l431.004 215.502c29.092-30.090 69.852-48.828 115.012-48.828 88.366 0 160 71.634 160 160s-71.634 160-160 160-160-71.634-160-160c0-8.622 0.704-17.076 2.016-25.326l-431.004-215.504c-29.092 30.090-69.852 48.83-115.012 48.83-88.366 0-160-71.636-160-160 0-88.368 71.634-160 160-160 45.16 0 85.92 18.738 115.012 48.828l431.004-215.502c-1.312-8.25-2.016-16.704-2.016-25.326 0-88.368 71.634-160 160-160s160 71.632 160 160c0 88.364-71.634 160-160 160z" />
<glyph unicode="&#xea8b;" glyph-name="google-plus" d="M325.8 502.6v-111.8h184.8c-7.4-48-55.8-140.6-184.8-140.6-111.2 0-202 92.2-202 205.8s90.8 205.8 202 205.8c63.4 0 105.6-27 129.8-50.2l88.4 85.2c-56.8 53-130.4 85.2-218.2 85.2-180.2-0.2-325.8-145.8-325.8-326s145.6-325.8 325.8-325.8c188 0 312.8 132.2 312.8 318.4 0 21.4-2.4 37.8-5.2 54h-307.6zM1024 512h-96v96h-96v-96h-96v-96h96v-96h96v96h96z" />
<glyph unicode="&#xea90;" glyph-name="facebook" d="M608 768h160v192h-160c-123.514 0-224-100.486-224-224v-96h-128v-192h128v-512h192v512h160l32 192h-192v96c0 17.346 14.654 32 32 32z" />
<glyph unicode="&#xea91;" glyph-name="facebook2" d="M928 960h-832c-52.8 0-96-43.2-96-96v-832c0-52.8 43.2-96 96-96h416v448h-128v128h128v64c0 105.8 86.2 192 192 192h128v-128h-128c-35.2 0-64-28.8-64-64v-64h192l-32-128h-160v-448h288c52.8 0 96 43.2 96 96v832c0 52.8-43.2 96-96 96z" />
<glyph unicode="&#xea92;" glyph-name="instagram" d="M512 867.8c136.8 0 153-0.6 206.8-3 50-2.2 77-10.6 95-17.6 23.8-9.2 41-20.4 58.8-38.2 18-18 29-35 38.4-58.8 7-18 15.4-45.2 17.6-95 2.4-54 3-70.2 3-206.8s-0.6-153-3-206.8c-2.2-50-10.6-77-17.6-95-9.2-23.8-20.4-41-38.2-58.8-18-18-35-29-58.8-38.4-18-7-45.2-15.4-95-17.6-54-2.4-70.2-3-206.8-3s-153 0.6-206.8 3c-50 2.2-77 10.6-95 17.6-23.8 9.2-41 20.4-58.8 38.2-18 18-29 35-38.4 58.8-7 18-15.4 45.2-17.6 95-2.4 54-3 70.2-3 206.8s0.6 153 3 206.8c2.2 50 10.6 77 17.6 95 9.2 23.8 20.4 41 38.2 58.8 18 18 35 29 58.8 38.4 18 7 45.2 15.4 95 17.6 53.8 2.4 70 3 206.8 3zM512 960c-139 0-156.4-0.6-211-3-54.4-2.4-91.8-11.2-124.2-23.8-33.8-13.2-62.4-30.6-90.8-59.2-28.6-28.4-46-57-59.2-90.6-12.6-32.6-21.4-69.8-23.8-124.2-2.4-54.8-3-72.2-3-211.2s0.6-156.4 3-211c2.4-54.4 11.2-91.8 23.8-124.2 13.2-33.8 30.6-62.4 59.2-90.8 28.4-28.4 57-46 90.6-59 32.6-12.6 69.8-21.4 124.2-23.8 54.6-2.4 72-3 211-3s156.4 0.6 211 3c54.4 2.4 91.8 11.2 124.2 23.8 33.6 13 62.2 30.6 90.6 59s46 57 59 90.6c12.6 32.6 21.4 69.8 23.8 124.2 2.4 54.6 3 72 3 211s-0.6 156.4-3 211c-2.4 54.4-11.2 91.8-23.8 124.2-12.6 34-30 62.6-58.6 91-28.4 28.4-57 46-90.6 59-32.6 12.6-69.8 21.4-124.2 23.8-54.8 2.6-72.2 3.2-211.2 3.2v0zM512 711c-145.2 0-263-117.8-263-263s117.8-263 263-263 263 117.8 263 263c0 145.2-117.8 263-263 263zM512 277.4c-94.2 0-170.6 76.4-170.6 170.6s76.4 170.6 170.6 170.6c94.2 0 170.6-76.4 170.6-170.6s-76.4-170.6-170.6-170.6zM846.8 721.4c0-33.91-27.49-61.4-61.4-61.4s-61.4 27.49-61.4 61.4c0 33.91 27.49 61.4 61.4 61.4s61.4-27.49 61.4-61.4z" />
<glyph unicode="&#xea96;" glyph-name="twitter" d="M1024 733.6c-37.6-16.8-78.2-28-120.6-33 43.4 26 76.6 67.2 92.4 116.2-40.6-24-85.6-41.6-133.4-51-38.4 40.8-93 66.2-153.4 66.2-116 0-210-94-210-210 0-16.4 1.8-32.4 5.4-47.8-174.6 8.8-329.4 92.4-433 219.6-18-31-28.4-67.2-28.4-105.6 0-72.8 37-137.2 93.4-174.8-34.4 1-66.8 10.6-95.2 26.2 0-0.8 0-1.8 0-2.6 0-101.8 72.4-186.8 168.6-206-17.6-4.8-36.2-7.4-55.4-7.4-13.6 0-26.6 1.4-39.6 3.8 26.8-83.4 104.4-144.2 196.2-146-72-56.4-162.4-90-261-90-17 0-33.6 1-50.2 3 93.2-59.8 203.6-94.4 322.2-94.4 386.4 0 597.8 320.2 597.8 597.8 0 9.2-0.2 18.2-0.6 27.2 41 29.4 76.6 66.4 104.8 108.6z" />
<glyph unicode="&#xea9d;" glyph-name="youtube" d="M1013.8 652.8c0 0-10 70.6-40.8 101.6-39 40.8-82.6 41-102.6 43.4-143.2 10.4-358.2 10.4-358.2 10.4h-0.4c0 0-215 0-358.2-10.4-20-2.4-63.6-2.6-102.6-43.4-30.8-31-40.6-101.6-40.6-101.6s-10.2-82.8-10.2-165.8v-77.6c0-82.8 10.2-165.8 10.2-165.8s10-70.6 40.6-101.6c39-40.8 90.2-39.4 113-43.8 82-7.8 348.2-10.2 348.2-10.2s215.2 0.4 358.4 10.6c20 2.4 63.6 2.6 102.6 43.4 30.8 31 40.8 101.6 40.8 101.6s10.2 82.8 10.2 165.8v77.6c-0.2 82.8-10.4 165.8-10.4 165.8zM406.2 315.2v287.8l276.6-144.4-276.6-143.4z" />
</font>
</defs>
</svg>
