<svg xmlns="http://www.w3.org/2000/svg" xmlns:xlink="http://www.w3.org/1999/xlink" viewBox="-2801 139.112 206.242 180.996">
  <defs>
    <style>
      .cls-1 {
        fill: #45f;
      }

      .cls-2 {
        fill: #dc2e6f;
      }

      .cls-3 {
        fill: #d12a73;
      }

      .cls-4 {
        fill: #07c0f9;
      }

      .cls-5 {
        fill: #151515;
      }

      .cls-6 {
        fill: #951989;
      }

      .cls-7 {
        fill: #4045be;
      }

      .cls-8 {
        fill: #c92877;
      }

      .cls-9 {
        fill: #c92876;
      }

      .cls-10 {
        fill: #5c1ea7;
      }

      .cls-11 {
        fill: #fff;
      }

      .cls-12 {
        filter: url(#Logo-Ombre);
      }
    </style>
    <filter id="Logo-Ombre" x="-2801" y="139.112" width="206.242" height="180.996" filterUnits="userSpaceOnUse">
      <feOffset dy="3" input="SourceAlpha"/>
      <feGaussianBlur stdDeviation="3" result="blur"/>
      <feFlood flood-color="#141414" flood-opacity="0.349"/>
      <feComposite operator="in" in2="blur"/>
      <feComposite in="SourceGraphic"/>
    </filter>
  </defs>
  <g id="Groupe_3903" data-name="Groupe 3903" transform="translate(-2885 61)">
    <g class="cls-12" transform="matrix(1, 0, 0, 1, 2885, -61)">
      <path id="Logo-Ombre-2" data-name="Logo-Ombre" class="cls-1" d="M141.293,0H93.678S53.151.221,46.95.221C31.226,27.24,15.724,54.48,0,81.719,15.724,108.959,31.448,135.977,47.171,163h94.121c15.5-27.24,31.226-54.48,46.95-81.5C172.3,54.258,156.795,27.018,141.293,0Z" transform="translate(-2792 145.11)"/>
    </g>
    <g id="hexagone-mini_1_" transform="translate(93 84.112)">
      <g id="Groupe_2" data-name="Groupe 2">
        <g id="Groupe_1" data-name="Groupe 1">
          <path id="Tracé_1" data-name="Tracé 1" class="cls-2" d="M42.3,0H90.111c15.566,27.13,31.133,54.482,47.144,81.835-15.789,27.13-31.578,54.482-47.144,81.835H42.3Z" transform="translate(51.765 0)"/>
          <path id="Tracé_2" data-name="Tracé 2" class="cls-1" d="M94.065,163.669h-46.7C31.578,136.539,15.789,109.409,0,82.057,15.789,54.7,31.355,27.352,47.144.222,53.37.222,94.065,0,94.065,0Z" transform="translate(0 0)"/>
          <path id="Tracé_3" data-name="Tracé 3" class="cls-3" d="M55.145,46c0,20.459-.222,40.917-.445,61.154" transform="translate(66.94 56.293)"/>
          <path id="Tracé_4" data-name="Tracé 4" class="cls-4" d="M29.5,73.6" transform="translate(36.101 90.069)"/>
        </g>
      </g>
    </g>
    <g id="Groupe_4" data-name="Groupe 4" transform="translate(126.579 84.112)">
      <path id="Tracé_5" data-name="Tracé 5" class="cls-5" d="M105.607,13.4c10.452,17.345,20.681,34.913,31.355,52.7l-31.355,52.7H46.233C36,101.239,25.552,83.893,15.1,66.1,25.552,48.536,35.781,30.968,46.233,13.4h59.375Z" transform="translate(-15.1 16.399)"/>
      <path id="Tracé_6" data-name="Tracé 6" class="cls-6" d="M47.849,29.8,41.4,0H90.768Z" transform="translate(17.085)"/>
      <g id="XMLID_2_" transform="translate(58.485 135.205)">
        <g id="Groupe_3" data-name="Groupe 3">
          <path id="Tracé_7" data-name="Tracé 7" class="cls-6" d="M90.99,89.264H41.4c0-.222,5.337-28.464,5.337-28.464Z" transform="translate(-41.4 -60.8)"/>
        </g>
      </g>
      <path id="Tracé_8" data-name="Tracé 8" class="cls-7" d="M66.243,0c0,.222-27.352,29.8-27.352,29.8S27.1,10.229,21.1,0Z" transform="translate(-7.757)"/>
      <path id="Tracé_9" data-name="Tracé 9" class="cls-7" d="M66.365,89.264H21c6-9.785,12.008-18.9,18.013-28.464C39.235,60.8,66.365,89.042,66.365,89.264Z" transform="translate(-7.88 74.405)"/>
      <path id="Tracé_10" data-name="Tracé 10" class="cls-8" d="M44.3,29.8,87.219,0,69.873,29.8Z" transform="translate(20.634)"/>
      <path id="Tracé_11" data-name="Tracé 11" class="cls-9" d="M88.053,89.264,43.8,60.8H70.485Z" transform="translate(20.022 74.405)"/>
      <path id="Tracé_12" data-name="Tracé 12" class="cls-10" d="M29.1,29.8,56.452,0,62.9,29.8Z" transform="translate(2.033)"/>
      <path id="Tracé_13" data-name="Tracé 13" class="cls-10" d="M41.4,73.6" transform="translate(17.085 90.069)"/>
    </g>
    <path id="Tracé_14" data-name="Tracé 14" class="cls-10" d="M29.2,60.8H61.889L56.552,89.264Z" transform="translate(128.734 158.518)"/>
    <path id="Tracé_15" data-name="Tracé 15" class="cls-11" d="M51,34.9" transform="translate(155.412 126.822)"/>
    <g id="Groupe_5" data-name="Groupe 5" transform="translate(152.152 185.356)">
      <path id="Tracé_16" data-name="Tracé 16" class="cls-11" d="M57.534,49.9c0-.89.667-1.334,1.779-1.334a3.445,3.445,0,0,1,1.779.445c-.445.222-.445.445-.445.89a.89.89,0,1,0,1.779,0c0-1.112-1.557-2-3.113-2-1.779,0-2.891.889-2.891,2.446,0,2.891,5.115,2.224,5.115,4.448a1.816,1.816,0,0,1-2,1.779,3.757,3.757,0,0,1-2.224-.667c.445,0,.667-.445.667-.89a.89.89,0,0,0-1.779,0c0,1.334,1.557,2.224,3.336,2.224,2,0,3.336-1.112,3.336-2.669C62.427,51.458,57.534,52.125,57.534,49.9Z" transform="translate(9.624 -43.675)"/>
      <path id="Tracé_17" data-name="Tracé 17" class="cls-11" d="M37.625,47.9c-2.446,0-4.225,1.779-4.225,4.67s1.557,4.67,4.225,4.67,4.225-1.779,4.225-4.67C41.85,49.9,40.071,47.9,37.625,47.9Zm0,8.673q-2.669,0-2.669-4c0-2.446.89-4,2.669-4s2.669,1.557,2.669,4Q40.294,56.573,37.625,56.573Z" transform="translate(-18.278 -43.675)"/>
      <path id="Tracé_18" data-name="Tracé 18" class="cls-11" d="M51.3,47.9c-2.446,0-4,1.779-4,4.67s1.557,4.67,4.448,4.67c2,0,3.113-1.112,3.113-1.557,0-.222,0-.222-.222-.222-.445,0-.89.889-2.669.889-2,0-3.113-1.334-3.113-3.78h5.559a.59.59,0,0,0,.667-.667C54.861,49.457,53.3,47.9,51.3,47.9Zm1.557,4H48.634c.222-2,1.112-3.113,2.669-3.113,1.334,0,2.224,1.112,2.224,2.669C53.527,51.68,53.527,51.9,52.859,51.9Z" transform="translate(-1.268 -43.675)"/>
      <path id="Tracé_19" data-name="Tracé 19" class="cls-11" d="M39.053,46.967c.445,0,.445-.222.445-.445s-.222-.222-.445-.222h-3.78c-.445,0-.445,0-.445.222s.222.222.445.445c1.112,0,1.334.222,1.334,1.334v4H29.713v-4c0-.89.222-1.334,1.112-1.334.445,0,.445-.222.445-.445s-.222-.222-.445-.222h-3.78c-.445,0-.445,0-.445.222s.222.222.445.445c1.112,0,1.112.222,1.334,1.334v8.9c0,1.112-.222,1.334-1.334,1.334-.445,0-.445.222-.445.445s.222.222.445.222h3.78c.445,0,.445,0,.445-.222s-.222-.222-.445-.445c-1.112,0-1.112-.222-1.112-1.334V52.971h6.894V57.2c0,1.112-.222,1.334-1.334,1.334-.445,0-.445.222-.445.445s.222.222.445.222h3.78c.445,0,.445,0,.445-.222s-.222-.222-.445-.445c-1.112,0-1.334-.222-1.334-1.334V48.3C37.941,47.19,38.164,46.967,39.053,46.967Z" transform="translate(-26.6 -45.633)"/>
      <path id="Tracé_20" data-name="Tracé 20" class="cls-11" d="M55.7,47.9c-2.446,0-4,1.779-4,4.67s1.557,4.67,4.448,4.67c2,0,3.113-1.112,3.113-1.557,0-.222,0-.222-.222-.222-.445,0-.89.889-2.669.889-2,0-3.113-1.334-3.113-3.78h5.559a.59.59,0,0,0,.667-.667A3.681,3.681,0,0,0,55.7,47.9Zm1.779,4H53.257c.222-2,1.112-3.113,2.669-3.113,1.334,0,2.224,1.112,2.224,2.669C58.149,51.68,57.927,51.9,57.482,51.9Z" transform="translate(4.117 -43.675)"/>
      <path id="Tracé_21" data-name="Tracé 21" class="cls-11" d="M44.579,59.787h2.446a2.829,2.829,0,0,0,2.446-2.224,6.86,6.86,0,0,0,.222-2,3.646,3.646,0,0,0-1.557-2.446.817.817,0,0,0-.667-.222h0A2.351,2.351,0,0,0,48.8,51.337,4.327,4.327,0,0,0,48.8,48a2.413,2.413,0,0,0-1.779-1.779A4.335,4.335,0,0,0,45.246,46a5.234,5.234,0,0,0-1.779.445c-.445.222-.667.445-.667.89V57.564A2.035,2.035,0,0,0,44.579,59.787Zm-.667-7.561V48a2.089,2.089,0,0,1,3.558-.222,5.234,5.234,0,0,1,.445,1.779,3.784,3.784,0,0,1-.222,1.557,1.981,1.981,0,0,1-1.779,1.112c-.89,0-1.334.222-2,0Zm1.112.89h1.334a2.613,2.613,0,0,1,2.224,2.446,4.335,4.335,0,0,1-.222,1.779A2.155,2.155,0,0,1,46.58,58.9a4.745,4.745,0,0,1-1.779,0c-.445,0-.667-.222-.667-.89V52.894h-.222A2,2,0,0,0,45.024,53.116Z" transform="translate(-6.775 -46)"/>
      <path id="Tracé_22" data-name="Tracé 22" class="cls-11" d="M41.169,59.565h2.446a1.96,1.96,0,0,0,1.779-2V47.334c0-.445-.445-.667-.667-.89A5.234,5.234,0,0,0,42.948,46a4.9,4.9,0,0,0-1.779.222c-.89.222-1.334.89-1.779,1.779a4.336,4.336,0,0,0,0,3.336,2.99,2.99,0,0,0,1.334,1.557h0c-.222,0-.445.222-.667.222A2.735,2.735,0,0,0,38.5,55.562a6.157,6.157,0,0,0,.222,2A3.205,3.205,0,0,0,41.169,59.565Zm-.445-8.45a3.784,3.784,0,0,1-.222-1.557,5.234,5.234,0,0,1,.445-1.779A2.009,2.009,0,0,1,44.5,48v4.448h-2A2.762,2.762,0,0,1,40.724,51.115Zm-.89,4.448a2.613,2.613,0,0,1,2.224-2.446h2.224v5.115c0,.445-.222.889-.667.889H41.836a2.974,2.974,0,0,1-1.779-1.557A6.156,6.156,0,0,1,39.834,55.562Z" transform="translate(-12.037 -46)"/>
    </g>
    <g id="Groupe_206" data-name="Groupe 206" transform="translate(148.423 134.05)">
      <g id="Groupe_206-2" data-name="Groupe 206" transform="translate(0 0)">
        <path id="Tracé_333" data-name="Tracé 333" class="cls-11" d="M55.814,36.582V33.377c-1.5.427-3.205.641-4.7,1.068s-2.992.641-4.7,1.068c.427-1.068.641-1.923,1.068-2.992,2.778-.641,5.556-1.282,8.334-2.137V26.753A76.5,76.5,0,0,1,48.335,29.1l.641-1.923a6.986,6.986,0,0,1,3.205-2.351c.641-.214,1.068-.427,1.709-.641s1.068-.214,1.5.427l.427.427V7.308c0-.641.214-1.5.214-2.137a4.9,4.9,0,0,1,2.564-3.205A13,13,0,0,1,64.361.256,13.38,13.38,0,0,1,70.13.9a9.12,9.12,0,0,1,5.983,5.556A14.226,14.226,0,0,1,75.9,17.137a9.174,9.174,0,0,1-4.7,4.7.209.209,0,0,0-.214.214c.855.427,1.709.641,2.564,1.068a9.617,9.617,0,0,1,5.342,7.906,13.326,13.326,0,0,1-.641,7.052,9.82,9.82,0,0,1-8.334,7.265,16.172,16.172,0,0,1-3.205.214H61.8c-3.205-.855-5.983-3.846-5.983-7.265,0-.641,0-1.068,0-1.709a12.49,12.49,0,0,1-2.778,2.992,10.939,10.939,0,0,1-4.487,2.137,24.846,24.846,0,0,1-3.846.855,1.285,1.285,0,0,1-.855-.214c-.214,0-.427-.214-.641-.214-.214-.214-.214-.427-.427-.427-.641-.641-.641-.641-.214-1.5.641-.855,1.5-1.923,2.137-2.778a1.285,1.285,0,0,1,.855-.214c2.35-.214,4.487-.214,6.838-.427a20.8,20.8,0,0,1,3.419-.214M59.446,23.12V39.787c.214,1.709.855,2.564,2.351,2.778a21.524,21.524,0,0,0,6.41-.214,7.15,7.15,0,0,0,5.983-4.915,12.128,12.128,0,0,0,.641-6.2c-.427-4.274-2.992-7.265-7.265-7.906a31.558,31.558,0,0,0-4.487-.214H59.446m0-2.564h0c2.351,0,4.7.214,7.052,0a6.629,6.629,0,0,0,5.556-3.633A10.062,10.062,0,0,0,73.122,11.8a11.33,11.33,0,0,0-1.5-5.983c-2.564-4.06-8.975-5.128-11.966.427,0,.214-.214.427-.214.641V20.556ZM44.7,25.043a19.551,19.551,0,0,1,.214-3.633,27.48,27.48,0,0,1,.855-4.06,4.785,4.785,0,0,1,2.992-3.419,6.986,6.986,0,0,0-2.351-3.205,7.448,7.448,0,0,0-3.633-1.282c2.137-1.282,5.983-.641,7.693,4.06H51.54a7.06,7.06,0,0,0,0-2.992c-.641-2.564-2.35-4.06-4.274-5.556l-.214-.214c5.128.427,7.693,4.487,6.838,9.4.427.214.641.427,1.068.427.427.214.641.427.641.855a8.8,8.8,0,0,1,.214,4.7,5.94,5.94,0,0,1-3.419,4.06,19,19,0,0,1-7.693.855m8.975-8.12c-.214-.214-.641-.214-.855-.427a2.528,2.528,0,0,0-2.137.214,4.47,4.47,0,0,0-.855,1.282A8.306,8.306,0,0,0,49.4,21.2h1.282a3.731,3.731,0,0,0,2.564-.855c1.068-1.068.855-2.137.427-3.419M23.334,36.8c1.068,0,1.923.214,2.992.214,2.351.214,4.487.214,6.838.427a1.285,1.285,0,0,1,.855.214,24.185,24.185,0,0,1,2.137,2.778c.427.641.641.641-.214,1.5l-.427.427c-.214,0-.427.214-.641.214s-.641.214-.855.214c-1.282-.214-2.564-.641-3.846-.855a17.326,17.326,0,0,1-4.487-2.137c-.427-.855-1.5-1.709-2.351-2.992v1.709a6.936,6.936,0,0,1-6.2,6.838,18.919,18.919,0,0,1-4.915,0,16.173,16.173,0,0,1-3.205-.214c-4.274-.855-7.052-3.205-8.334-7.265a19.791,19.791,0,0,1-.641-7.052,9.923,9.923,0,0,1,5.342-7.906,13.071,13.071,0,0,1,2.564-1.068.209.209,0,0,1-.214-.214,9.174,9.174,0,0,1-4.7-4.7A14.2,14.2,0,0,1,2.82,6.239,8.685,8.685,0,0,1,8.8.684,13.38,13.38,0,0,1,14.573.043a14.868,14.868,0,0,1,5.769,1.709c1.282.855,2.351,1.709,2.564,3.205a7.269,7.269,0,0,1,.214,2.137V24.83l.427-.427a1.321,1.321,0,0,1,1.5-.427c.641.214,1.068.427,1.709.641a6.986,6.986,0,0,1,3.205,2.351A3.447,3.447,0,0,1,30.6,28.89c-2.564-.855-4.915-1.709-7.479-2.351v3.633c2.778.641,5.556,1.282,8.334,2.137.427,1.068.641,1.923,1.068,2.992-1.709-.427-3.205-.641-4.7-1.068s-2.992-.641-4.7-1.068l.214,3.633M19.7,23.334H15.855a31.558,31.558,0,0,0-4.487.214C7.094,24.189,4.53,27.18,4.1,31.454a14.993,14.993,0,0,0,.641,6.2,7.43,7.43,0,0,0,5.983,4.915,32.186,32.186,0,0,0,6.41.214A2.487,2.487,0,0,0,19.488,40V23.334m.214-2.992V6.88a.785.785,0,0,0-.214-.641C16.5.9,10.086,1.966,7.522,5.812a11.853,11.853,0,0,0-1.5,5.983,11.082,11.082,0,0,0,1.068,5.128,7.1,7.1,0,0,0,5.556,3.633c2.351.214,4.487,0,6.838.214H19.7v-.427Zm14.744,4.915a14.885,14.885,0,0,1-7.479-1.068,5.94,5.94,0,0,1-3.419-4.06,11.467,11.467,0,0,1,.214-4.7,2.95,2.95,0,0,1,.641-.855c.427-.214.641-.214,1.068-.427-.855-4.915,1.709-8.975,6.838-9.4l-.214.214a9.44,9.44,0,0,0-4.274,5.556,4.774,4.774,0,0,0,0,2.992H28.89c1.709-4.7,5.556-5.342,7.693-4.06a10.521,10.521,0,0,0-3.633,1.282A6.041,6.041,0,0,0,30.6,13.932a5.929,5.929,0,0,1,2.992,3.419,22.7,22.7,0,0,1,.855,4.06v3.846m-8.975-8.12c-.214,1.282-.427,2.351.427,3.419a3.406,3.406,0,0,0,2.564.855h1.282a8.306,8.306,0,0,0-.427-3.205,1.962,1.962,0,0,0-.855-1.282,2.45,2.45,0,0,0-2.137-.214c-.214.214-.427.214-.855.427" transform="translate(0.038 0.038)"/>
      </g>
    </g>
  </g>
</svg>
