<?xml version="1.0" encoding="utf-8"?>
<!-- Generator: Adobe Illustrator 18.0.0, SVG Export Plug-In . SVG Version: 6.00 Build 0)  -->
<!DOCTYPE svg PUBLIC "-//W3C//DTD SVG 1.0//EN" "http://www.w3.org/TR/2001/REC-SVG-20010904/DTD/svg10.dtd">
<svg version="1.0" id="hexagone-mini_xA0_Image_1_" xmlns="http://www.w3.org/2000/svg" xmlns:xlink="http://www.w3.org/1999/xlink"
	 x="0px" y="0px" viewBox="0 0 358.4 328.7" enable-background="new 0 0 358.4 328.7" xml:space="preserve">
<g>
	
		<image overflow="visible" opacity="0.5" width="349" height="304" xlink:href="1FBFB598.png"  transform="matrix(1 0 0 1 8.8846 13.8154)">
	</image>
	<g>
		<g>
			<g>
				<path fill="#DC2E6F" d="M182.7,20c11.7,0,71.5,0,83.5,0c27.2,47.3,54.4,95,82.4,142.7c-27.6,47.3-55.2,95-82.4,142.7
					c-12,0-83.5,0-83.5,0S182.7,79.7,182.7,20z"/>
				<path fill="#4455FF" d="M182.7,305.4c0,0-70.3,0-81.6,0c-27.6-47.3-55.2-94.6-82.8-142.3C45.9,115.4,73.1,67.3,100.7,20
					c10.9,0,81.9,0,81.9,0V305.4z"/>
				<path fill="#D12A73" d="M231.6,198.4c0,35.7-0.4,71.4-0.8,106.7"/>
				<path fill="#07C0F9" d="M132.9,305.4"/>
			</g>
		</g>
	</g>
</g>
<path fill="#151515" d="M235.6,70.7c18.2,30.3,36.1,60.9,54.7,91.9c-18.2,30.6-36.8,60.5-55,91.2c-4.3,0-83.4,0.8-102.1,0.8
	c-0.4,0-0.8,0-1.2,0C114.2,224,96,193.7,77.8,162.7c18.2-30.6,36.1-61.3,54.3-91.9c0.4,0,0.8,0,1.2,0c18.6,0,37.2,0,55.9,0
	c0.8,0,1.2,0,1.9,0c10.5,0,20.9,0,31.8,0C227.1,70.7,231.4,70.7,235.6,70.7z"/>
<path fill="#951989" d="M190.7,71.3L179.4,20h86.7L190.7,71.3z"/>
<g id="XMLID_1_">
	<g>
		<path fill="#951989" d="M265.9,305.4c0,0-58.2,0-86.5,0c0-0.4,9.5-51.6,9.5-51.6L265.9,305.4z"/>
	</g>
</g>
<path fill="#4045BE" d="M179.4,20c0,0.4-47.7,51.3-47.7,51.3s-20.6-33.7-31-51.3C127.1,20,153.5,20,179.4,20z"/>
<path fill="#4045BE" d="M179.5,305.4c-25.7,0-51.5,0-78.4,0c10.4-17.7,20.2-34.2,30.6-51.5C132.1,253.9,179.5,305,179.5,305.4z"/>
<path fill="#C92877" d="M190.7,71.3L266.2,20l-30.9,51.3H190.7z"/>
<path fill="#C92876" d="M265.9,305.4l-77-51.6h46.3L265.9,305.4z"/>
<path fill="#5C1EA7" d="M131.7,71.3L179.4,20l11.2,51.3H131.7z"/>
<path fill="#5C1EA7" d="M179.4,305.4"/>
<polygon fill="#5C1EA7" points="131.7,253.9 189,253.9 179.8,305.4 "/>
<path fill="#FFFFFF" d="M216.5,155.3"/>
<g>
	<path fill="#FFFFFF" d="M179.4,211.8V207v-0.2c0-2,0-4,0-6c0-0.9,0-1.9,0-2.8c0-0.4-0.1-0.8-0.2-1.1c-0.2-0.8-0.7-1.3-1.3-1.6
		c-0.9-0.5-1.8-0.8-2.9-0.9c-1-0.1-2,0-2.9,0.3c-1.5,0.4-2.5,1.4-3,2.8c-0.7,1.8-0.7,3.6,0.1,5.4c0.5,1.1,1.3,1.8,2.3,2.3
		c0,0,0.1,0,0.1,0c-0.4,0.2-0.9,0.3-1.3,0.6c-1.6,0.8-2.5,2.2-2.7,4c-0.2,1.2-0.1,2.4,0.3,3.6c0.7,2.1,2.1,3.3,4.2,3.7
		c0.5,0.1,1.1,0.2,1.6,0.2c0.8,0,1.6,0,2.5,0c1.8-0.2,3.1-1.7,3.1-3.5L179.4,211.8z M177.4,206.4c0,2.5,0,4.9,0,7.3
		c0,0.3,0,0.6,0,0.9c-0.1,0.8-0.5,1.3-1.2,1.4c-1.1,0.1-2.1,0.1-3.2-0.1c-1.5-0.3-2.5-1.1-3.1-2.5c-0.4-1-0.4-2.1-0.3-3.1
		c0.2-2.1,1.6-3.6,3.7-3.9c0.7-0.1,1.5-0.1,2.2-0.1c0.7,0,1.3,0,2,0V206.4z M177.4,204.6v0.2c0,0-0.1,0-0.1,0c-1.1,0-2.3,0-3.4,0
		c-1.2-0.1-2.2-0.7-2.8-1.8c-0.4-0.8-0.6-1.6-0.6-2.6c0-1.1,0.2-2.1,0.8-3c1.3-2,4.6-2.6,6.1,0.2c0,0.1,0.1,0.2,0.1,0.3
		C177.4,200.1,177.4,202.3,177.4,204.6z"/>
	<path fill="#FFFFFF" d="M155.9,200.8c-4.4,0-7.2,3.2-7.2,7.9c0,4.8,2.8,7.9,7.2,7.9c4.4,0,7.2-3.1,7.2-7.9
		C163.2,203.9,160.4,200.8,155.9,200.8z M156,215.3c-3.1,0-4.7-2.4-4.7-6.6s1.7-6.6,4.7-6.6c3.1,0,4.8,2.4,4.8,6.6
		C160.8,212.9,159.1,215.3,156,215.3z"/>
	<path fill="#FFFFFF" d="M144.7,196c0.7-0.1,0.9-0.2,0.9-0.6c0-0.4-0.3-0.5-0.8-0.5h-6.6c-0.6,0-0.8,0.1-0.8,0.5
		c0,0.4,0.2,0.5,0.9,0.6c1.8,0.2,2.1,0.5,2.1,2.2v6.7h-11.8v-6.7c0-1.7,0.3-2.1,2.1-2.2c0.7-0.1,0.9-0.2,0.9-0.6
		c0-0.4-0.3-0.5-0.9-0.5h-6.6c-0.6,0-0.8,0.1-0.8,0.5c0,0.4,0.2,0.5,0.9,0.6c1.8,0.2,2.1,0.5,2.1,2.2v15c0,1.7-0.4,2.1-2.1,2.2
		c-0.7,0.1-0.9,0.2-0.9,0.6c0,0.4,0.3,0.5,0.8,0.5h6.6c0.6,0,0.9-0.1,0.9-0.5c0-0.4-0.2-0.5-0.9-0.6c-1.8-0.2-2.1-0.5-2.1-2.2v-7.1
		h11.8v7.2c0,1.7-0.4,2.1-2.1,2.2c-0.7,0.1-0.9,0.2-0.9,0.6c0,0.4,0.3,0.5,0.8,0.5h6.6c0.6,0,0.8-0.1,0.8-0.5c0-0.4-0.2-0.5-0.9-0.6
		c-1.8-0.2-2.1-0.5-2.1-2.2v-15.1C142.6,196.5,142.9,196.1,144.7,196z"/>
	<path fill="#FFFFFF" d="M225.6,200.7c-4.3,0-7.1,3-7.1,7.9c0,4.9,2.8,7.9,7.6,7.9c3.4,0,5.4-1.8,5.4-2.6c0-0.3-0.1-0.5-0.4-0.5
		c-0.9,0-1.4,1.7-4.7,1.7c-3.4,0-5.4-2.4-5.4-6.5v-0.1h9.8c0.8,0,1.2-0.3,1.2-1.2C231.9,203.3,229.3,200.7,225.6,200.7z
		 M228.4,207.4h-7.5c0.3-3.4,1.9-5.4,4.7-5.4c2.4,0,4,1.8,4,4.4C229.6,207.1,229.4,207.4,228.4,207.4z"/>
	<path fill="#FFFFFF" d="M238.7,204.3c0-1.4,1.2-2.3,3.1-2.3c1.4,0,2.3,0.3,3.2,0.7c-0.6,0.3-0.9,0.8-0.9,1.4c0,0.9,0.6,1.5,1.5,1.5
		c0.9,0,1.6-0.7,1.6-1.6c0-1.8-2.6-3.2-5.6-3.2c-3,0-5.1,1.6-5.1,4.1c0,5,8.7,3.7,8.7,7.6c0,1.8-1.4,2.8-3.7,2.8
		c-1.4,0-2.8-0.3-3.8-1.2c0.7-0.1,1.2-0.7,1.2-1.5c0-0.9-0.6-1.5-1.6-1.5c-0.9,0-1.6,0.7-1.6,1.7c0,2.2,2.8,3.8,5.8,3.8
		c3.5,0,5.8-1.8,5.8-4.6C247.5,206.7,238.7,208.1,238.7,204.3z"/>
	<path fill="#FFFFFF" d="M207.8,200.7c-4.3,0-7.1,3-7.1,7.9c0,4.9,2.8,7.9,7.6,7.9c3.4,0,5.4-1.8,5.4-2.6c0-0.3-0.1-0.5-0.4-0.5
		c-0.9,0-1.4,1.7-4.7,1.7c-3.4,0-5.4-2.4-5.4-6.5v-0.1h9.8c0.8,0,1.2-0.3,1.2-1.2C214.1,203.3,211.5,200.7,207.8,200.7z
		 M210.6,207.4h-7.5c0.3-3.4,2-5.4,4.7-5.4c2.4,0,4,1.8,4,4.4C211.8,207.1,211.6,207.4,210.6,207.4z"/>
	<path fill="#FFFFFF" d="M184.5,213.7c0,1.8,1.4,3.3,3.1,3.5c0.8,0.1,1.6,0,2.5,0c0.5,0,1.1,0,1.6-0.2c2.1-0.4,3.6-1.6,4.2-3.7
		c0.4-1.2,0.5-2.4,0.3-3.6c-0.2-1.8-1.1-3.1-2.7-4c-0.4-0.2-0.9-0.4-1.3-0.6c0,0,0.1,0,0.1,0c1.1-0.5,1.9-1.3,2.3-2.3
		c0.8-1.8,0.8-3.6,0.1-5.4c-0.5-1.4-1.5-2.4-3-2.8c-1-0.3-1.9-0.4-2.9-0.3c-1,0.1-2,0.3-2.9,0.9c-0.7,0.4-1.1,0.9-1.3,1.6
		c-0.1,0.3-0.2,0.7-0.2,1.1c0,0.9,0,1.9,0,2.8c0,2,0,4,0,6v0.2v4.8L184.5,213.7z M186.4,206.1c0.7,0,1.3,0,2,0c0.8,0,1.5,0,2.2,0.1
		c2.1,0.3,3.5,1.8,3.7,3.9c0.1,1.1,0,2.1-0.3,3.1c-0.5,1.4-1.6,2.3-3.1,2.5c-1.1,0.2-2.1,0.2-3.2,0.1c-0.8,0-1.1-0.5-1.2-1.4
		c0-0.3,0-0.6,0-0.9c0-2.4,0-4.8,0-7.3V206.1z M186.4,197.8c0-0.1,0-0.2,0.1-0.3c1.5-2.7,4.8-2.2,6.1-0.2c0.6,0.9,0.8,2,0.8,3
		c0,0.9-0.2,1.8-0.6,2.6c-0.6,1.1-1.6,1.7-2.8,1.8c-1.1,0.1-2.3,0-3.4,0c0,0,0,0-0.1,0v-0.2C186.4,202.3,186.4,200.1,186.4,197.8z"
		/>
</g>
<g>
	<g>
		<g>
			<g>
				<path fill="#FFFFFF" d="M205.7,127.6c1.2-7.3-0.6-11.1-1.8-12.5c-1.2-1.3-4-0.7-0.1,3.3c2,2,1.2,5.8,0.8,9
					c-1.9-0.6-2.9-0.5-4.4-0.2c-2.3-10.3-6.2-14.1-8.5-15c-2.3-1.2-5,1.1,1.4,3.8c3.8,1.8,5.2,6.7,5.9,11.4c-1,0.2-1.3,0.3-1.3,0.3
					s-8.9,1-8.3,20.7c0,0,20.1,3.7,21.1-10.5C210.8,131.5,208.4,128.8,205.7,127.6z M197.8,140.5c0.2-6.1,3-7.1,3-7.1
					s4.9-2.2,4.9,2.8C205.5,141.7,197.8,140.5,197.8,140.5z"/>
			</g>
			<path fill="#FFFFFF" d="M214.1,173.4c0.1,6.2,4.8,11.6,11,12.3c2.8,0.3,5.8,0.1,8.6,0.1c1.9,0,3.8-0.1,5.7-0.5
				c7.5-1.5,12.5-5.7,14.8-13.1c1.3-4.2,1.6-8.3,0.9-12.5c-0.8-6.2-3.9-11-9.6-14c-1.5-0.8-3.2-1.3-4.7-2c0.1,0,0.3-0.1,0.4-0.1
				c3.8-1.8,6.6-4.4,8.2-8.2c2.8-6.2,2.7-12.5,0.4-18.9c-1.9-5-5.4-8.3-10.5-9.8c-3.4-1.1-6.7-1.3-10.2-1.1c-3.6,0.3-7,1.2-10.1,3.1
				c-2.3,1.3-4,3.1-4.7,5.8c-0.3,1.2-0.5,2.6-0.5,3.9c0,3.3,0,6.5,0,9.8c0,7,0,13.9,0,20.9v0.7v16.8L214.1,173.4z M220.6,146.7
				c2.4,0,4.7,0,7,0c2.7,0.1,5.3,0,7.8,0.4c7.4,1.1,12.3,6.5,12.9,13.9c0.3,3.8,0.1,7.5-1.2,11c-1.9,5-5.5,7.9-10.8,8.9
				c-3.8,0.7-7.5,0.5-11.3,0.3c-2.7-0.1-4-1.9-4.3-4.8c-0.1-1.1-0.1-2.2-0.1-3.2c0-8.5,0-17,0-25.6V146.7z M220.6,117.5
				c0-0.4,0.1-0.8,0.3-1.1c5.3-9.6,16.8-7.7,21.3-0.5c2,3.2,2.7,6.9,2.7,10.6c0,3.2-0.5,6.2-2,9c-2.2,3.9-5.5,6.1-9.8,6.3
				c-4,0.3-8.1,0.1-12.1,0.1c0,0-0.1,0-0.3-0.1v-0.5C220.6,133.4,220.6,125.5,220.6,117.5z"/>
			<g>
				<path fill="#FFFFFF" d="M197.4,164.3c-0.2,2.1-0.7,3.9-1.3,5.6c0.3,0.1,0.5,0.2,0.5,0.2s13.2,1.8,18.1-2.5
					c0.4-1.7,0.7-3.8,0.7-6C211.8,164.2,203.9,166.2,197.4,164.3z"/>
				<path fill="#FFFFFF" d="M214.7,156.3c-0.2-0.7-0.4-1.3-0.6-2c-1.5-3.7-4.4-5.8-9.9-4.7c-5.5,1.1-6.9,6.2-6.9,6.2
					c0.1,1.1,0.2,2,0.2,3C199.6,158.9,210.2,159.4,214.7,156.3z"/>
			</g>
		</g>
		<path fill="#FFFFFF" d="M194.5,175.8c-0.5-0.1-0.9-0.4-1.3-0.7c-0.5,0.7-1.1,1.2-1.6,1.7l0,0c0,0,0,0,0,0
			c-0.8,0.7-1.5,1.3-2.3,1.8c-1.9,1.7-2.1,2.9,1,3.5c11.6,1.8,18.6-3.6,21.7-7.3C208.4,176.3,202,177.8,194.5,175.8z"/>
	</g>
	<g>
		<g>
			<g>
				<path fill="#FFFFFF" d="M158.5,138c1,14.1,21.1,10.5,21.1,10.5c0.6-19.8-8.3-20.7-8.3-20.7s-0.3-0.1-1.3-0.3
					c0.8-4.6,2.2-9.5,5.9-11.4c6.4-2.7,3.7-5.1,1.4-3.8c-2.2,0.9-6.1,4.7-8.5,15c-1.5-0.3-2.5-0.3-4.4,0.2c-0.4-3.3-1.2-7,0.8-9
					c3.9-4,1.1-4.6-0.1-3.3c-1.2,1.3-3,5.2-1.8,12.5C160.8,128.8,158.4,131.5,158.5,138z M163.4,136.3c0.1-5,4.9-2.8,4.9-2.8
					s2.8,1,3,7.1C171.3,140.5,163.6,141.7,163.4,136.3z"/>
			</g>
			<path fill="#FFFFFF" d="M155.3,166.5v-16.8V149c0-7,0-13.9,0-20.9c0-3.3,0-6.5,0-9.8c0-1.3-0.3-2.7-0.5-3.9
				c-0.7-2.7-2.4-4.4-4.7-5.8c-3.1-1.9-6.5-2.8-10.1-3.1c-3.5-0.3-6.9,0-10.2,1.1c-5.1,1.5-8.6,4.8-10.5,9.8
				c-2.3,6.3-2.4,12.7,0.4,18.9c1.6,3.8,4.4,6.5,8.2,8.2c0.1,0,0.3,0.1,0.4,0.1c-1.5,0.7-3.2,1.2-4.7,2c-5.7,3-8.8,7.8-9.6,14
				c-0.7,4.2-0.4,8.3,0.9,12.5c2.3,7.4,7.3,11.6,14.8,13.1c1.9,0.4,3.8,0.5,5.7,0.5c2.8,0,5.8,0.1,8.6-0.1c6.2-0.7,10.9-6.1,11-12.3
				L155.3,166.5z M148.5,147.6c0,8.6,0,17.1,0,25.6c0,1.1,0,2.2-0.1,3.2c-0.3,3-1.6,4.7-4.3,4.8c-3.8,0.3-7.5,0.4-11.3-0.3
				c-5.3-0.9-8.9-3.9-10.8-8.9c-1.3-3.5-1.5-7.3-1.2-11c0.7-7.4,5.5-12.8,12.9-13.9c2.6-0.4,5.1-0.3,7.8-0.4c2.3,0,4.6,0,7,0V147.6z
				 M148.5,141.4v0.5c-0.1,0.1-0.3,0.1-0.3,0.1c-4,0-8.1,0.1-12.1-0.1c-4.3-0.3-7.7-2.4-9.8-6.3c-1.5-2.8-2-5.8-2-9
				c0-3.8,0.7-7.4,2.7-10.6c4.4-7.1,16-9,21.3,0.5c0.1,0.3,0.3,0.7,0.3,1.1C148.5,125.5,148.5,133.4,148.5,141.4z"/>
			<g>
				<path fill="#FFFFFF" d="M171.7,164.3c0.2,2.1,0.7,3.9,1.3,5.6c-0.3,0.1-0.5,0.2-0.5,0.2s-13.2,1.8-18.1-2.5
					c-0.4-1.7-0.7-3.8-0.7-6C157.3,164.2,165.2,166.2,171.7,164.3z"/>
				<path fill="#FFFFFF" d="M154.4,156.3c0.2-0.7,0.4-1.3,0.6-2c1.5-3.7,4.4-5.8,9.9-4.7c5.5,1.1,6.9,6.2,6.9,6.2
					c-0.1,1.1-0.2,2-0.2,3C169.5,158.9,158.9,159.4,154.4,156.3z"/>
			</g>
		</g>
		<path fill="#FFFFFF" d="M174.6,175.8c0.5-0.1,0.9-0.4,1.3-0.7c0.5,0.7,1.1,1.2,1.6,1.7l0,0c0,0,0,0,0,0c0.8,0.7,1.5,1.3,2.3,1.8
			c1.9,1.7,2.1,2.9-1,3.5c-11.6,1.8-18.6-3.6-21.7-7.3C160.7,176.3,167.1,177.8,174.6,175.8z"/>
	</g>
</g>
</svg>
