<?xml version="1.0" encoding="utf-8"?>
<!-- Generator: Adobe Illustrator 18.0.0, SVG Export Plug-In . SVG Version: 6.00 Build 0)  -->
<!DOCTYPE svg PUBLIC "-//W3C//DTD SVG 1.1//EN" "http://www.w3.org/Graphics/SVG/1.1/DTD/svg11.dtd">
<svg version="1.1" id="Calque_1" xmlns="http://www.w3.org/2000/svg" xmlns:xlink="http://www.w3.org/1999/xlink" x="0px" y="0px"
	 viewBox="0 113.9 562 584" enable-background="new 0 113.9 562 584" xml:space="preserve">
<g id="Groupe_293" transform="translate(-91.8 -113.182)">
	<path id="path_1_" fill="none" stroke="#000000" stroke-width="23" stroke-miterlimit="10" d="M335.7,473.8
		c-64.8,0-117.3-52.5-117.3-117.3s52.5-117.3,117.3-117.3S453,291.7,453,356.5l0,0C452.8,421.2,400.4,473.6,335.7,473.8L335.7,473.8
		z M554.6,618.5c4.5,11.2,7.1,23.1,7.8,35.2c0,11.7,3.9,23.5,3.9,31.3v3.9l0,0c-0.5,27.9-23,50.3-50.8,50.8H155.8
		c-28.7-0.2-52.4-22.3-54.7-50.9l0,0v-3.9c0-11.7,3.9-23.5,3.9-31.3c0.7-12.1,3.4-24,7.8-35.2c15.7-35.2,136.8-86,222.8-86
		S539,583.3,554.6,618.5z"/>
	<circle id="Ellipse_49" cx="541.5" cy="697.8" r="103.1"/>
	<g id="Groupe_5100" transform="translate(-7 -5)">
		<rect id="Rectangle_2300" x="542.6" y="649.8" fill="#FFFFFF" width="14.7" height="103.1"/>
		<rect id="Rectangle_2301" x="498.4" y="694" fill="#FFFFFF" width="103.1" height="14.7"/>
	</g>
</g>
</svg>
