<svg xmlns="http://www.w3.org/2000/svg" viewBox="-2638.469 941 49.962 49.955">
  <defs>
    <style>
      .cls-1 {
        fill: #4045be;
      }

      .cls-2 {
        fill: #dc2e6f;
      }

      .cls-3 {
        fill: #a03296;
      }

      .cls-4 {
        fill: #951989;
      }

      .cls-5 {
        fill: #45f;
      }

      .cls-6 {
        fill: #e35b8e;
      }

      .cls-7 {
        fill: #fedbab;
      }

      .cls-8 {
        fill: #54515b;
      }
    </style>
  </defs>
  <g id="Groupe_3753" data-name="Groupe 3753" transform="translate(-2887 105)">
    <path id="Tracé_90" data-name="Tracé 90" class="cls-1" d="M98.591,181H63.464A1.449,1.449,0,0,0,62,182.464v17.661a1.4,1.4,0,0,0,.79,1.288l15.866,8.167a1.36,1.36,0,0,0,.673.176.811.811,0,0,0,.263-.029l1.288-.234,17.974-3.425a1.446,1.446,0,0,0,1.2-1.434V182.464A1.449,1.449,0,0,0,98.591,181Z" transform="translate(192.581 672.657)"/>
    <path id="Tracé_91" data-name="Tracé 91" class="cls-2" d="M274.674,182.464v22.169a1.446,1.446,0,0,1-1.2,1.434L255.5,209.492V181h17.71A1.449,1.449,0,0,1,274.674,182.464Z" transform="translate(17.962 672.657)"/>
    <path id="Tracé_92" data-name="Tracé 92" class="cls-3" d="M144.684,2.685A5.815,5.815,0,0,0,139.473.05a5.911,5.911,0,0,0-4.918,3.1l-2.166,3.981-2.166-3.981a5.937,5.937,0,0,0-10.158-.468,6.031,6.031,0,0,0-.293,6.118,5.922,5.922,0,0,0,5.24,3.132h14.754a5.925,5.925,0,0,0,4.918-9.25Z" transform="translate(141.073 835.955)"/>
    <path id="Tracé_93" data-name="Tracé 93" class="cls-4" d="M255.5,11.925V7.134l2.166-3.981a5.911,5.911,0,0,1,4.918-3.1,5.816,5.816,0,0,1,5.211,2.635,5.925,5.925,0,0,1-4.918,9.25Z" transform="translate(17.962 835.955)"/>
    <path id="Tracé_94" data-name="Tracé 94" class="cls-5" d="M71.519,91H36.391A4.385,4.385,0,0,0,32,95.391v5.855a1.449,1.449,0,0,0,1.464,1.464H74.446a1.449,1.449,0,0,0,1.464-1.464V95.391A4.385,4.385,0,0,0,71.519,91Z" transform="translate(219.654 753.875)"/>
    <path id="Tracé_95" data-name="Tracé 95" class="cls-6" d="M277.6,95.391v5.855a1.449,1.449,0,0,1-1.464,1.464H255.5V91h17.71A4.385,4.385,0,0,1,277.6,95.391Z" transform="translate(17.962 753.875)"/>
    <path id="Tracé_96" data-name="Tracé 96" class="cls-3" d="M212,91v36.279a1.432,1.432,0,0,0,1.376,1.464l2.869.2,2.986.2h.088a1.5,1.5,0,0,0,1-.381,1.532,1.532,0,0,0,.468-1.083V91Z" transform="translate(57.218 753.875)"/>
    <path id="Tracé_97" data-name="Tracé 97" class="cls-4" d="M260.037,91v36.689a1.532,1.532,0,0,1-.468,1.083,1.5,1.5,0,0,1-1,.381h-.088l-2.986-.2V91Z" transform="translate(17.962 753.875)"/>
    <path id="Tracé_98" data-name="Tracé 98" class="cls-7" d="M95.014,303.8l-7.026,9.367a10.259,10.259,0,0,1-8.2,4.1H63.809A31.3,31.3,0,0,1,50.9,314.6l1.025-13.231a10.225,10.225,0,0,1,15.6-2.635c.556.468.937.966,1.669.966h9.133a2.927,2.927,0,1,1,0,5.855H68.083a1.464,1.464,0,0,0,0,2.927H80.758a4.319,4.319,0,0,0,3.22-1.405l7.23-7.757a2.712,2.712,0,0,1,4.362.556A3.844,3.844,0,0,1,95.014,303.8Z" transform="translate(202.598 568.689)"/>
    <path id="Tracé_101" data-name="Tracé 101" class="cls-8" d="M7.513,322.491H1.464A1.462,1.462,0,0,1,0,321.027V303.464A1.462,1.462,0,0,1,1.464,302h6.05a1.462,1.462,0,0,1,1.464,1.464v17.564A1.462,1.462,0,0,1,7.513,322.491Z" transform="translate(248.531 563.464)"/>
  </g>
</svg>
