<svg xmlns="http://www.w3.org/2000/svg" viewBox="0 0 57 57">
  <defs>
    <style>
      .cls-1 {
        fill: #fff;
      }

      .cls-2 {
        fill: #4045be;
      }

      .cls-3 {
        fill: #dc2e6f;
      }

      .cls-4 {
        fill: #e35b8e;
      }

      .cls-5 {
        fill: #45f;
      }

      .cls-6 {
        fill: #951989;
      }

      .cls-7 {
        fill: #9b2590;
      }
    </style>
  </defs>
  <g id="Groupe_5104" data-name="Groupe 5104" transform="translate(-76 -1224)">
    <rect id="Rectangle_2308" data-name="Rectangle 2308" class="cls-1" width="57" height="57" transform="translate(76 1224)"/>
    <g id="Groupe_5098" data-name="Groupe 5098" transform="translate(1.11 -0.398)">
      <path id="Tracé_161" data-name="Tracé 161" class="cls-2" d="M54.287,17.213H39.429L32,0H46.858Z" transform="translate(56.427 1224.399)"/>
      <path id="Tracé_162" data-name="Tracé 162" class="cls-3" d="M83.225,137.988H67.659A3.678,3.678,0,0,1,64,134.329v-3.77a3.678,3.678,0,0,1,3.659-3.659H83.346a3.678,3.678,0,0,1,3.659,3.659v3.77A3.876,3.876,0,0,1,83.225,137.988Zm-15.565-7.9a.511.511,0,0,0-.475.475v3.77a.511.511,0,0,0,.475.475H83.346a.511.511,0,0,0,.475-.475v-3.77a.511.511,0,0,0-.475-.475Z" transform="translate(27.965 1111.527)"/>
      <path id="Tracé_163" data-name="Tracé 163" class="cls-4" d="M18.517,214.034a18.517,18.517,0,1,1,18.517-18.517,18.518,18.518,0,0,1-18.517,18.517" transform="translate(84.89 1066.966)"/>
      <path id="Tracé_164" data-name="Tracé 164" class="cls-5" d="M101.3,17.213h14.858L123.587,0H108.729Z" transform="translate(-5.212 1224.399)"/>
      <path id="Soustraction_1" data-name="Soustraction 1" class="cls-3" d="M-869,39.99V2.975a18.415,18.415,0,0,1,12.694,5.611,18.421,18.421,0,0,1,5.23,12.9,18.419,18.419,0,0,1-5.23,12.9A18.416,18.416,0,0,1-869,39.99Z" transform="translate(973 1241)"/>
      <path id="Tracé_167" data-name="Tracé 167" class="cls-6" d="M95.971,261.354a.645.645,0,0,0-.366-1.184H91.517a.687.687,0,0,1-.639-.451l-1.269-3.91a.633.633,0,0,0-1.184,0l-1.269,3.91a.687.687,0,0,1-.639.451H82.429a.645.645,0,0,0-.366,1.184l3.271,2.359a.746.746,0,0,1,.273.724l-1.261,3.918a.653.653,0,0,0,1,.724l3.271-2.359a.556.556,0,0,1,.724,0l3.364,2.359a.641.641,0,0,0,1-.724l-1.269-3.91a.6.6,0,0,1,.273-.724Z" transform="translate(14.318 999.365)"/>
      <path id="Tracé_168" data-name="Tracé 168" class="cls-6" d="M42.265,233.852a15.626,15.626,0,1,1,15.565-15.565A15.546,15.546,0,0,1,42.265,233.852Zm0-29.119A13.564,13.564,0,1,0,55.83,218.3,13.645,13.645,0,0,0,42.265,204.734Z" transform="translate(61.141 1044.196)"/>
      <path id="Soustraction_2" data-name="Soustraction 2" class="cls-7" d="M-874.577,18.575a.728.728,0,0,1-.4-.13L-878,16.327V5.4l1.2,3.685a.691.691,0,0,0,.639.452h4.089a.645.645,0,0,1,.629.463.626.626,0,0,1-.263.721l-3.271,2.368a.6.6,0,0,0-.272.724l1.269,3.91a.669.669,0,0,1-.091.605A.627.627,0,0,1-874.577,18.575Z" transform="translate(982 1250)"/>
    </g>
  </g>
</svg>
