<svg xmlns="http://www.w3.org/2000/svg" viewBox="-2806.085 941 50.412 50.4">
  <defs>
    <style>
      .cls-1 {
        fill: #7a7780;
      }

      .cls-2 {
        fill: #57555c;
      }

      .cls-3 {
        fill: rgba(149,25,137,0.89);
      }

      .cls-4 {
        fill: #45f;
      }

      .cls-5 {
        fill: rgba(220,46,111,0.78);
      }

      .cls-6 {
        fill: #951989;
      }

      .cls-7 {
        fill: #dc2e6f;
      }

      .cls-8 {
        fill: #4045be;
      }
    </style>
  </defs>
  <g id="PictoRecontresDiscu" transform="translate(-2806.056 941)">
    <path id="Soustraction_1" data-name="Soustraction 1" class="cls-1" d="M13.656,2.953H0L1.024,0H13.656A1.418,1.418,0,0,1,15.04,1.477,1.417,1.417,0,0,1,13.656,2.953Z" transform="translate(33.861 41.544)"/>
    <path id="Tracé_75" data-name="Tracé 75" class="cls-2" d="M429.383,423.477a1.462,1.462,0,0,1-1.477,1.477H422V422h5.907A1.462,1.462,0,0,1,429.383,423.477Z" transform="translate(-380.483 -380.456)"/>
    <path id="Tracé_76" data-name="Tracé 76" class="cls-1" d="M33.37,423.477a1.462,1.462,0,0,1-1.477,1.477H16.477a1.477,1.477,0,0,1,0-2.953H31.893A1.462,1.462,0,0,1,33.37,423.477Z" transform="translate(-13.55 -380.456)"/>
    <path id="Tracé_77" data-name="Tracé 77" class="cls-2" d="M100.987,423.477a1.462,1.462,0,0,1-1.477,1.477H90V422h9.51A1.462,1.462,0,0,1,100.987,423.477Z" transform="translate(-81.167 -380.456)"/>
    <path id="Tracé_78" data-name="Tracé 78" class="cls-3" d="M166.44,0H154.43A4.509,4.509,0,0,0,150,4.529V7.58a4.424,4.424,0,0,0,4.43,4.43h5.385l.62.62,4.972,4.844A1.41,1.41,0,0,0,167,17.8a1.473,1.473,0,0,0,.916-1.359v-4.7A4.416,4.416,0,0,0,170.87,7.58V4.529A4.509,4.509,0,0,0,166.44,0Z" transform="translate(-135.26)"/>
    <path id="Tracé_79" data-name="Tracé 79" class="cls-2" d="M456.478,376.595a1.468,1.468,0,0,1-1.427-1.122L452.1,363.659a1.477,1.477,0,1,1,2.865-.719l2.953,11.814a1.482,1.482,0,0,1-1.073,1.792A1.2,1.2,0,0,1,456.478,376.595Z" transform="translate(-407.577 -326.2)"/>
    <path id="Tracé_80" data-name="Tracé 80" class="cls-1" d="M1.524,376.589a1.1,1.1,0,0,1-.354-.049A1.477,1.477,0,0,1,.1,374.748L3.05,362.935a1.462,1.462,0,0,1,1.792-1.073,1.477,1.477,0,0,1,1.073,1.792L2.962,375.467A1.471,1.471,0,0,1,1.524,376.589Z" transform="translate(-0.074 -326.195)"/>
    <g id="Groupe_19" data-name="Groupe 19" transform="translate(-0.03 7.58)">
      <path id="Tracé_81" data-name="Tracé 81" class="cls-4" d="M53.86,81.43A4.43,4.43,0,1,1,49.43,77,4.424,4.424,0,0,1,53.86,81.43Z" transform="translate(-40.567 -77)"/>
      <path id="Tracé_82" data-name="Tracé 82" class="cls-4" d="M21.356,214.659a2.953,2.953,0,0,1-3.574-2.156l-3.869-11.036H2.927a2.946,2.946,0,0,1-2.865-3.662l2.953-13.29A2.969,2.969,0,0,1,5.85,182.3a2.924,2.924,0,0,1,2.658,1.595l.325.856.738,1.949h8.122a2.953,2.953,0,0,1,0,5.907h-4.43a1.477,1.477,0,1,0,0,2.953h2.953a2.938,2.938,0,0,1,2.865,2.245l4.43,13.29A2.946,2.946,0,0,1,21.356,214.659Z" transform="translate(0.03 -171.934)"/>
    </g>
    <g id="Groupe_20" data-name="Groupe 20" transform="translate(26.754 7.58)">
      <path id="Tracé_83" data-name="Tracé 83" class="cls-5" d="M385.86,81.43A4.43,4.43,0,1,1,381.43,77,4.424,4.424,0,0,1,385.86,81.43Z" transform="translate(-366.666 -77)"/>
      <path id="Tracé_84" data-name="Tracé 84" class="cls-5" d="M292.7,201.467H281.717l-3.869,11.046a2.951,2.951,0,1,1-5.729-1.418l4.43-13.29a2.938,2.938,0,0,1,2.865-2.245h2.953a1.477,1.477,0,1,0,0-2.953h-4.43a2.953,2.953,0,0,1,0-5.907h8.122l.738-1.949.325-.856a2.924,2.924,0,0,1,2.658-1.595,2.969,2.969,0,0,1,2.835,2.215l2.953,13.29A2.946,2.946,0,0,1,292.7,201.467Z" transform="translate(-272.033 -171.934)"/>
    </g>
    <path id="Tracé_85" data-name="Tracé 85" class="cls-6" d="M266.435,4.529V7.58a4.416,4.416,0,0,1-2.953,4.164v4.7a1.473,1.473,0,0,1-.916,1.359,1.41,1.41,0,0,1-1.595-.325L256,12.631V0h6.005A4.509,4.509,0,0,1,266.435,4.529Z" transform="translate(-230.825)"/>
    <g id="Groupe_21" data-name="Groupe 21" transform="translate(41.517 7.58)">
      <path id="Tracé_86" data-name="Tracé 86" class="cls-7" d="M427.907,201.467H422V184.751l.325-.856a2.924,2.924,0,0,1,2.658-1.595,2.969,2.969,0,0,1,2.835,2.215l2.953,13.29A2.946,2.946,0,0,1,427.907,201.467Z" transform="translate(-422 -171.934)"/>
      <path id="Tracé_87" data-name="Tracé 87" class="cls-7" d="M426.43,81.43A4.424,4.424,0,0,1,422,85.86V77A4.424,4.424,0,0,1,426.43,81.43Z" transform="translate(-422 -77)"/>
    </g>
    <g id="Groupe_22" data-name="Groupe 22" transform="translate(8.833 7.58)">
      <path id="Tracé_88" data-name="Tracé 88" class="cls-8" d="M102.522,237.108a2.953,2.953,0,0,1-3.574-2.156L95.08,223.916H90V207.2l.738,1.949H98.86a2.953,2.953,0,0,1,0,5.907H94.43a1.477,1.477,0,1,0,0,2.953h2.953a2.938,2.938,0,0,1,2.865,2.245l4.43,13.29A2.946,2.946,0,0,1,102.522,237.108Z" transform="translate(-90 -194.382)"/>
      <path id="Tracé_89" data-name="Tracé 89" class="cls-8" d="M94.43,81.43A4.424,4.424,0,0,1,90,85.86V77A4.424,4.424,0,0,1,94.43,81.43Z" transform="translate(-90 -77)"/>
    </g>
  </g>
</svg>
