<svg xmlns="http://www.w3.org/2000/svg" viewBox="-2632 1285 38 49.887">
  <defs>
    <style>
      .cls-1 {
        fill: #45f;
      }

      .cls-2 {
        fill: #4045be;
      }

      .cls-3 {
        fill: #fff;
      }

      .cls-4 {
        fill: #eaeaea;
      }

      .cls-5 {
        fill: #646265;
      }

      .cls-6 {
        fill: #333;
      }

      .cls-7 {
        fill: #951989;
      }

      .cls-8 {
        fill: #e35b8e;
      }

      .cls-9 {
        fill: #dc2e6f;
      }

      .cls-10 {
        fill: #e4feff;
      }
    </style>
  </defs>
  <g id="Groupe_3755" data-name="Groupe 3755" transform="translate(-2885 61)">
    <g id="Groupe_58" data-name="Groupe 58" transform="translate(253 1224)">
      <path id="Tracé_135" data-name="Tracé 135" class="cls-1" d="M19,0A19.121,19.121,0,0,0,0,19.1,18.827,18.827,0,0,0,3.8,30.5L17.831,49.3a1.462,1.462,0,0,0,2.338,0L34.2,30.5A18.827,18.827,0,0,0,38,19.1,19.121,19.121,0,0,0,19,0Z"/>
      <path id="Tracé_136" data-name="Tracé 136" class="cls-2" d="M214,19.1a18.828,18.828,0,0,1-3.8,11.4L196.169,49.3a1.4,1.4,0,0,1-1.169.585V0A19.121,19.121,0,0,1,214,19.1Z" transform="translate(-176)"/>
      <path id="Tracé_137" data-name="Tracé 137" class="cls-3" d="M86.308,74.154a12.982,12.982,0,0,1-4.443,9.763H64.443A12.982,12.982,0,0,1,60,74.154a13.154,13.154,0,0,1,26.308,0Z" transform="translate(-54.154 -55.056)"/>
      <path id="Tracé_138" data-name="Tracé 138" class="cls-4" d="M208.154,74.154a12.982,12.982,0,0,1-4.443,9.763H195V61A13.174,13.174,0,0,1,208.154,74.154Z" transform="translate(-176 -55.056)"/>
      <path id="Tracé_139" data-name="Tracé 139" class="cls-5" d="M62.154,483.462a1.447,1.447,0,0,1-1.462,1.462H31.462a1.462,1.462,0,0,1,0-2.923H60.692A1.447,1.447,0,0,1,62.154,483.462Z" transform="translate(-27.077 -435.036)"/>
      <path id="Tracé_140" data-name="Tracé 140" class="cls-6" d="M211.077,483.462a1.447,1.447,0,0,1-1.462,1.462H195V482h14.615A1.447,1.447,0,0,1,211.077,483.462Z" transform="translate(-176 -435.036)"/>
    </g>
    <g id="Groupe_59" data-name="Groupe 59" transform="translate(263.5 1233)">
      <path id="Tracé_145" data-name="Tracé 145" class="cls-7" d="M122.069,113.35l-4.724-4.724a2.747,2.747,0,0,0-1.629-.794.546.546,0,0,0-.62.486l-6.717,6.717a.558.558,0,0,0-.486.62,2.727,2.727,0,0,0,.794,1.629l4.724,4.724a2.777,2.777,0,0,0,3.934,0l4.724-4.724a2.777,2.777,0,0,0,0-3.934Z" transform="translate(-103.886 -103.824)"/>
      <g id="Groupe_35" data-name="Groupe 35" transform="translate(10.38 10.394)">
        <path id="Tracé_146" data-name="Tracé 146" class="cls-3" d="M365.737,282.312a1.1,1.1,0,0,1-.787-.327,1.1,1.1,0,0,1,.787-1.885,1.1,1.1,0,0,1,.787.312,1.113,1.113,0,0,1-.787,1.9Z" transform="translate(-361.474 -280.1)"/>
        <path id="Tracé_147" data-name="Tracé 147" class="cls-3" d="M280.837,366.823a1.1,1.1,0,0,1-.787-.327,1.11,1.11,0,0,1,.787-1.9,1.1,1.1,0,0,1,.787.327,1.11,1.11,0,0,1-.787,1.9Z" transform="translate(-279.725 -361.464)"/>
      </g>
      <path id="Tracé_148" data-name="Tracé 148" class="cls-8" d="M9.463,0H2.783A2.784,2.784,0,0,0,0,2.783v6.68a2.784,2.784,0,0,0,2.783,2.783h6.68a2.784,2.784,0,0,0,2.783-2.783V2.783A2.784,2.784,0,0,0,9.463,0Z"/>
      <path id="Tracé_149" data-name="Tracé 149" class="cls-9" d="M171.123,2.783v6.68a2.784,2.784,0,0,1-2.783,2.783H165V0h3.34A2.784,2.784,0,0,1,171.123,2.783Z" transform="translate(-158.877)"/>
      <g id="Groupe_36" data-name="Groupe 36" transform="translate(7.236 2.783)">
        <path id="Tracé_150" data-name="Tracé 150" class="cls-3" d="M196.113,77.227a1.113,1.113,0,1,1,1.113-1.113A1.117,1.117,0,0,1,196.113,77.227Z" transform="translate(-195 -75)"/>
        <path id="Tracé_151" data-name="Tracé 151" class="cls-3" d="M196.113,197.227a1.113,1.113,0,1,1,1.113-1.113A1.117,1.117,0,0,1,196.113,197.227Z" transform="translate(-195 -190.547)"/>
      </g>
      <g id="Groupe_37" data-name="Groupe 37" transform="translate(2.783 2.783)">
        <path id="Tracé_152" data-name="Tracé 152" class="cls-10" d="M76.113,77.227a1.113,1.113,0,1,1,1.113-1.113A1.117,1.117,0,0,1,76.113,77.227Z" transform="translate(-75 -75)"/>
        <path id="Tracé_153" data-name="Tracé 153" class="cls-10" d="M76.113,197.227a1.113,1.113,0,1,1,1.113-1.113A1.117,1.117,0,0,1,76.113,197.227Z" transform="translate(-75 -190.547)"/>
      </g>
    </g>
  </g>
</svg>
