<svg xmlns="http://www.w3.org/2000/svg" viewBox="0 0 57 57">
  <defs>
    <style>
      .cls-1 {
        fill: #fff;
      }

      .cls-2 {
        fill: #45f;
      }

      .cls-3 {
        fill: #4045be;
      }

      .cls-4 {
        fill: #eaeaea;
      }

      .cls-5 {
        fill: #646265;
      }

      .cls-6 {
        fill: #333;
      }

      .cls-7 {
        fill: #951989;
      }

      .cls-8 {
        fill: #e35b8e;
      }

      .cls-9 {
        fill: #dc2e6f;
      }

      .cls-10 {
        fill: #e4feff;
      }
    </style>
  </defs>
  <g id="Groupe_5105" data-name="Groupe 5105" transform="translate(-244 -1221)">
    <rect id="Rectangle_2309" data-name="Rectangle 2309" class="cls-1" width="57" height="57" transform="translate(244 1221)"/>
    <g id="Groupe_5099" data-name="Groupe 5099" transform="translate(-0.523 -2)">
      <g id="Groupe_58" data-name="Groupe 58" transform="translate(253 1224)">
        <path id="Tracé_135" data-name="Tracé 135" class="cls-2" d="M20.523,0A20.654,20.654,0,0,0,0,20.629,20.337,20.337,0,0,0,4.1,32.943L19.26,53.256a1.579,1.579,0,0,0,2.526,0L36.942,32.943a20.337,20.337,0,0,0,4.1-12.314A20.654,20.654,0,0,0,20.523,0Z"/>
        <path id="Tracé_136" data-name="Tracé 136" class="cls-3" d="M215.523,20.629a20.337,20.337,0,0,1-4.1,12.314L196.263,53.256a1.514,1.514,0,0,1-1.263.631V0A20.654,20.654,0,0,1,215.523,20.629Z" transform="translate(-174.477)"/>
        <path id="Tracé_137" data-name="Tracé 137" class="cls-1" d="M88.417,75.209a14.022,14.022,0,0,1-4.8,10.546H64.8A14.022,14.022,0,0,1,60,75.209a14.209,14.209,0,0,1,28.417,0Z" transform="translate(-53.685 -54.58)"/>
        <path id="Tracé_138" data-name="Tracé 138" class="cls-4" d="M209.209,75.209a14.022,14.022,0,0,1-4.8,10.546H195V61A14.23,14.23,0,0,1,209.209,75.209Z" transform="translate(-174.477 -54.58)"/>
        <path id="Tracé_139" data-name="Tracé 139" class="cls-5" d="M64.732,483.579a1.563,1.563,0,0,1-1.579,1.579H31.579a1.579,1.579,0,0,1,0-3.158H63.153A1.563,1.563,0,0,1,64.732,483.579Z" transform="translate(-26.843 -431.27)"/>
        <path id="Tracé_140" data-name="Tracé 140" class="cls-6" d="M212.366,483.579a1.563,1.563,0,0,1-1.579,1.579H195V482h15.787A1.563,1.563,0,0,1,212.366,483.579Z" transform="translate(-174.477 -431.27)"/>
      </g>
      <g id="Groupe_59" data-name="Groupe 59" transform="translate(264.342 1233.722)">
        <path id="Tracé_145" data-name="Tracé 145" class="cls-7" d="M123.206,113.793l-5.1-5.1a2.968,2.968,0,0,0-1.76-.858.59.59,0,0,0-.669.525l-7.255,7.255a.6.6,0,0,0-.525.669,2.946,2.946,0,0,0,.858,1.76l5.1,5.1a3,3,0,0,0,4.249,0l5.1-5.1a3,3,0,0,0,0-4.249Z" transform="translate(-103.565 -103.503)"/>
        <g id="Groupe_35" data-name="Groupe 35" transform="translate(11.213 11.228)">
          <path id="Tracé_146" data-name="Tracé 146" class="cls-1" d="M365.827,282.489a1.185,1.185,0,0,1-.85-.353,1.187,1.187,0,0,1,.85-2.036,1.186,1.186,0,0,1,.85.337,1.2,1.2,0,0,1-.85,2.052Z" transform="translate(-361.222 -280.1)"/>
          <path id="Tracé_147" data-name="Tracé 147" class="cls-1" d="M280.927,367a1.185,1.185,0,0,1-.85-.353,1.2,1.2,0,0,1,.85-2.048,1.185,1.185,0,0,1,.85.353,1.2,1.2,0,0,1-.85,2.048Z" transform="translate(-279.725 -361.213)"/>
        </g>
        <path id="Tracé_148" data-name="Tracé 148" class="cls-8" d="M10.222,0H3.006A3.007,3.007,0,0,0,0,3.006v7.215a3.007,3.007,0,0,0,3.006,3.006h7.215a3.007,3.007,0,0,0,3.006-3.006V3.006A3.007,3.007,0,0,0,10.222,0Z"/>
        <path id="Tracé_149" data-name="Tracé 149" class="cls-9" d="M171.614,3.006v7.215a3.007,3.007,0,0,1-3.006,3.006H165V0h3.608A3.007,3.007,0,0,1,171.614,3.006Z" transform="translate(-158.386)"/>
        <g id="Groupe_36" data-name="Groupe 36" transform="translate(7.817 3.006)">
          <path id="Tracé_150" data-name="Tracé 150" class="cls-1" d="M196.2,77.405a1.2,1.2,0,1,1,1.2-1.2A1.206,1.206,0,0,1,196.2,77.405Z" transform="translate(-195 -75)"/>
          <path id="Tracé_151" data-name="Tracé 151" class="cls-1" d="M196.2,197.405a1.2,1.2,0,1,1,1.2-1.2A1.206,1.206,0,0,1,196.2,197.405Z" transform="translate(-195 -190.19)"/>
        </g>
        <g id="Groupe_37" data-name="Groupe 37" transform="translate(3.006 3.006)">
          <path id="Tracé_152" data-name="Tracé 152" class="cls-10" d="M76.2,77.405a1.2,1.2,0,1,1,1.2-1.2A1.206,1.206,0,0,1,76.2,77.405Z" transform="translate(-75 -75)"/>
          <path id="Tracé_153" data-name="Tracé 153" class="cls-10" d="M76.2,197.405a1.2,1.2,0,1,1,1.2-1.2A1.206,1.206,0,0,1,76.2,197.405Z" transform="translate(-75 -190.19)"/>
        </g>
      </g>
    </g>
  </g>
</svg>
