<?xml version="1.0" encoding="utf-8"?>
<!-- Generator: Adobe Illustrator 18.0.0, SVG Export Plug-In . SVG Version: 6.00 Build 0)  -->
<!DOCTYPE svg PUBLIC "-//W3C//DTD SVG 1.1//EN" "http://www.w3.org/Graphics/SVG/1.1/DTD/svg11.dtd">
<svg version="1.1" id="Calque_1" xmlns="http://www.w3.org/2000/svg" xmlns:xlink="http://www.w3.org/1999/xlink" x="0px" y="0px"
	 viewBox="5 546.6 595.3 289.2" enable-background="new 5 546.6 595.3 289.2" xml:space="preserve">
<rect x="-0.3" y="541.6" fill="#FFFFFF" width="605.7" height="304.3"/>
<path fill="#1D1D1B" d="M580.6,721h-30.1l-15.1,26.1l15.1,26.1h30.1l15.1-26.1L580.6,721z M579.8,771.9h-28.6l-14.4-24.8l14.4-24.8
	h28.6l14.4,24.8L579.8,771.9z"/>
<path fill="#1D1D1B" d="M580.6,715.9l15.1-26.1l-15.1-26.2h-30.1l-15.1,26.3l15.1,26.1L580.6,715.9L580.6,715.9z M551.2,665h28.7
	l14.4,24.8l-14.4,24.7h-28.7l-14.3-24.6L551.2,665z"/>
<path fill="#1D1D1B" d="M550.5,606.5l-15.1,26.1l15.1,26.1h30.1l15.1-26.1l-15.1-26.1H550.5z M579.8,657.4h-28.6l-14.4-24.8
	l14.4-24.8h28.6l14.4,24.8L579.8,657.4z"/>
<path fill="#1D1D1B" d="M580.6,549.2h-30.1l-15.1,26.2l15.1,26.1h30.1l15.1-26.1L580.6,549.2z M579.8,600.1h-28.7l-14.4-24.7
	l14.4-24.8h28.7l14.4,24.8L579.8,600.1z"/>
<path fill="#1D1D1B" d="M500.8,749.7l-15.1,26.1l15.1,26.1H531l15.1-26.1L531,749.7H500.8z M530.4,800.5h-28.7l-14.4-24.8l14.2-24.8
	h28.7l14.4,24.8L530.4,800.5z"/>
<path fill="#1D1D1B" d="M500.8,744.6H531l15.1-26.1L531,692.4h-30.1l-15.1,26.1L500.8,744.6z M501.7,693.7h28.6l14.4,24.8
	l-14.2,24.8h-28.7l-14.4-24.8L501.7,693.7z"/>
<path fill="#1D1D1B" d="M531,687.2l15.1-26.1l-15.1-26h-30.1l-15.1,26.1l15.1,26.1L531,687.2L531,687.2z M501.6,636.4h28.7
	l14.4,24.8l-14.5,24.7h-28.6l-14.4-24.8L501.6,636.4z"/>
<path fill="#1D1D1B" d="M531,629.9l15-26l-15-26.1h-30.1l-15.1,26.1l15.1,26.1L531,629.9L531,629.9z M501.6,579.1h28.7l14.4,24.8
	l-14.4,24.8h-28.7l-14.4-24.8L501.6,579.1z"/>
<path fill="#1D1D1B" d="M481.4,663.7h-30.1l-15.1,26.1l15.1,26.1h30.1l15.1-26.1L481.4,663.7z M480.7,714.6H452l-14.4-24.8
	l14.4-24.9h28.7l14.4,24.8L480.7,714.6z"/>
<path fill="#1D1D1B" d="M481.4,658.6l15.1-26.1l-15.1-26.1h-30.1l-15.1,26.1l15.1,26.1H481.4z M452.1,607.7h28.6l14.4,24.8
	l-14.4,24.8h-28.6l-14.4-24.8L452.1,607.7z"/>
<path fill="#1D1D1B" d="M481.4,601.3l15.1-26.1l-15.1-26.1h-30.1l-15.1,26.1l15.1,26.1H481.4z M452,550.4h28.7l14.4,24.8L480.7,600
	H452l-14.4-24.8L452,550.4z"/>
<path fill="#1D1D1B" d="M401.7,749.7l-15.2,26.1l15.1,26.1h30.1l15.1-26.1l-15.1-26.1H401.7z M431.1,800.5h-28.7L388,775.7
	l14.4-24.8h28.7l14.4,24.8L431.1,800.5z"/>
<path fill="#1D1D1B" d="M431.7,744.6l15.1-26.1l-15.1-26.2h-30.1l-15.1,26.1l15.1,26.1L431.7,744.6L431.7,744.6z M402.4,693.7H431
	l14.4,24.8l-14.2,24.8h-28.7l-14.4-24.8L402.4,693.7z"/>
<path fill="#1D1D1B" d="M431.7,635.1h-30.1l-15.1,26.1l15.1,26.1h30.1l15.1-26.1L431.7,635.1z M430.9,686h-28.6L388,661.2l14.4-24.8
	H431l14.4,24.8L430.9,686z"/>
<path fill="#1D1D1B" d="M431.8,629.9l15.1-26.1l-15.1-26.1h-30.1l-15,26.2l15.1,26.1L431.8,629.9L431.8,629.9z M402.4,579.1h28.7
	l14.4,24.8l-14.4,24.8h-28.7L388,603.9L402.4,579.1z"/>
<path fill="#1D1D1B" d="M382.2,721h-30.1L337,747.1l15.1,26.1h30.1l15.1-26.1L382.2,721z M381.5,771.9h-28.6l-14.4-24.8l14.4-24.8
	h28.6l14.4,24.8L381.5,771.9z"/>
<path fill="#1D1D1B" d="M382.2,715.9l15.1-26.1l-15.1-26.1h-30.1L337,689.9l15.1,26.1L382.2,715.9L382.2,715.9z M352.9,665h28.7
	l14.4,24.8l-14.4,24.8h-28.7l-14.4-24.7L352.9,665z"/>
<path fill="#1D1D1B" d="M382.2,658.6l15.1-26.1l-15.1-26.1h-30.1L337,632.6l15.1,26.1L382.2,658.6L382.2,658.6z M352.9,607.7h28.6
	l14.4,24.8l-14.4,24.8h-28.6l-14.4-24.8L352.9,607.7z"/>
<path fill="#1D1D1B" d="M382.2,601.3l15.1-26.1l-15.1-26.1h-30.1L337,575.3l15.1,26.1L382.2,601.3L382.2,601.3z M352.9,550.4h28.7
	l14.2,24.9l-14.4,24.8h-28.7l-14.4-24.8L352.9,550.4z"/>
<path fill="#1D1D1B" d="M302.5,749.7l-15.1,26.1l15.1,26.1h30.1l15.1-26.1l-15.1-26.1H302.5z M331.8,800.5h-28.6l-14.4-24.8
	l14.4-24.8h28.7l14.4,24.8L331.8,800.5z"/>
<path fill="#1D1D1B" d="M332.6,744.6l15.1-26.1l-15.1-26.2h-30.1l-15.1,26.1l15.1,26.1L332.6,744.6L332.6,744.6z M303.2,693.7h28.6
	l14.4,24.8L332,743.3h-28.7l-14.4-24.8L303.2,693.7z"/>
<path fill="#1D1D1B" d="M332.6,687.2l15.1-26.1L332.6,635h-30.1l-15.1,26.1l15.1,26.1H332.6z M303.2,636.4h28.7l14.4,24.8L331.8,686
	h-28.6l-14.4-24.8L303.2,636.4z"/>
<path fill="#1D1D1B" d="M332.6,629.9l15.1-26.1l-15.1-26.1h-30.1l-15.1,26.2l15.1,26.1L332.6,629.9L332.6,629.9z M303.2,579.1h28.7
	l14.4,24.8l-14.4,24.8h-28.7l-14.4-24.8L303.2,579.1z"/>
<path fill="#1D1D1B" d="M283,721h-30.1l-15.1,26.1l15.1,26.1H283l15.1-26.1L283,721z M282.2,771.9h-28.7l-14.4-24.8l14.4-24.8h28.7
	l14.4,24.8L282.2,771.9z"/>
<path fill="#1D1D1B" d="M283,715.9l15.1-26.1l-15.1-26h-30.1l-15,26.1L253,716L283,715.9L283,715.9z M253.5,665h28.7l14.4,24.8
	l-14.4,24.8h-28.7l-14.3-24.7L253.5,665z"/>
<path fill="#1D1D1B" d="M283,658.6l15.1-26.1l-15.1-26h-30.1l-15.1,26.1l15.1,26.1L283,658.6L283,658.6z M253.5,607.7h28.7
	l14.4,24.8l-14.4,24.8h-28.7l-14.4-24.8L253.5,607.7z"/>
<path fill="#1D1D1B" d="M283,601.3l15.1-26.1l-15.1-26h-30.1l-15.1,26.1l15.1,26.1L283,601.3L283,601.3z M253.5,550.4h28.7
	l14.4,24.8L282.2,600h-28.7l-14.4-24.8L253.5,550.4z"/>
<path fill="#1D1D1B" d="M203.3,749.7l-15.1,26.1l15.1,26.1h30.1l15.1-26.1l-15.1-26.1H203.3z M232.7,800.5H204l-14.4-24.8l14.4-24.8
	h28.7l14.4,24.8L232.7,800.5z"/>
<path fill="#1D1D1B" d="M233.4,744.6l15.1-26.1l-15.1-26.2h-30.1l-15.1,26.1l15.1,26.1L233.4,744.6L233.4,744.6z M204.1,693.7h28.6
	l14.4,24.8l-14.2,24.8h-28.7l-14.4-24.8L204.1,693.7z"/>
<path fill="#1D1D1B" d="M233.4,687.2l15.1-26.1L233.4,635h-30.1l-15.1,26.1l15.1,26.1H233.4z M204,636.4h28.7l14.4,24.8L232.6,686
	H204l-14.4-24.8L204,636.4z"/>
<path fill="#1D1D1B" d="M233.4,629.9l15.1-26.1l-15.1-26.1h-30.1l-15.1,26.2l15.1,26.1L233.4,629.9L233.4,629.9z M204,579.1h28.7
	l14.4,24.8l-14.4,24.8H204l-14.4-24.8L204,579.1z"/>
<path fill="#1D1D1B" d="M153.7,778.3l-15.1,26.2l15,26.1h30.1l15.1-26.2l-15.1-26.1H153.7L153.7,778.3z M183.1,829.2h-28.7
	L140,804.4l14.4-24.8h28.7l14.4,24.8L183.1,829.2z"/>
<path fill="#1D1D1B" d="M183.8,773.2l15.1-26.1L183.8,721h-30.1l-15.1,26.1l15.1,26.1H183.8z M154.5,722.3h28.6l14.4,24.8
	l-14.4,24.8h-28.6l-14.4-24.8L154.5,722.3z"/>
<path fill="#1D1D1B" d="M183.8,715.9l15.1-26.1l-15.1-26.1h-30.1l-15.1,26.2l15.1,26.1L183.8,715.9L183.8,715.9z M154.4,665h28.7
	l14.4,24.8l-14.4,24.7h-28.7L140,689.7L154.4,665z"/>
<path fill="#1D1D1B" d="M153.7,658.6h30.1l15.1-26.1l-15.1-26.1h-30.1l-15.1,26.1L153.7,658.6z M154.5,607.7h28.6l14.4,24.8
	l-14.4,24.8h-28.6l-14.4-24.8L154.5,607.7z"/>
<path fill="#1D1D1B" d="M153.7,549.2l-15.1,26.1l15.1,26.1h30.1l15.1-26.1l-15.1-26.1H153.7z M183,600.1h-28.6L140,575.3l14.4-24.8
	h28.7l14.2,24.8L183,600.1z"/>
<path fill="#1D1D1B" d="M134.2,749.7h-30L89,775.9l15,26h30.1l15.1-26.2L134.2,749.7z M133.4,800.5h-28.7l-14.2-24.7l14.4-24.8h28.7
	l14.4,24.8L133.4,800.5z"/>
<path fill="#1D1D1B" d="M134.2,744.6l15.1-26.1l-15.1-26.2H104l-15,26.2l15.1,26.1L134.2,744.6L134.2,744.6z M104.8,693.7h28.6
	l14.4,24.8l-14.2,24.8h-28.7l-14.4-24.9L104.8,693.7z"/>
<path fill="#1D1D1B" d="M134.2,687.2l15.1-26.1L134.2,635H104l-15,26.2l15.1,26.1L134.2,687.2L134.2,687.2z M104.7,636.4h28.7
	l14.4,24.8L133.3,686h-28.6l-14.4-24.8L104.7,636.4z"/>
<path fill="#1D1D1B" d="M104.1,629.9h30.1l15.1-26.1l-15.1-26.1h-30.1l-15,26.2L104.1,629.9z M104.8,579.1h28.7l14.4,24.8
	l-14.4,24.8h-28.7l-14.4-24.8L104.8,579.1z"/>
<path fill="#1D1D1B" d="M54.5,778.3l-15.1,26.2l15.1,26.1h30.1l15.1-26.2l-15.1-26.1H54.5z M83.9,829.2H55.2L41,804.4l14.4-24.8H84
	l14.4,24.8L83.9,829.2z"/>
<path fill="#1D1D1B" d="M84.6,773.2l15.1-26.1L84.6,721H54.5l-15.1,26.1l15.1,26.1H84.6z M55.3,722.3h28.6l14.4,24.8l-14.4,24.8
	H55.3l-14.4-24.8L55.3,722.3z"/>
<path fill="#1D1D1B" d="M84.6,715.9l15.1-26l-15.1-26.1H54.5l-15.1,26.1l15.1,26H84.6z M55.2,665h28.7l14.3,24.9l-14.4,24.8H55.2
	l-14.4-24.8L55.2,665z"/>
<path fill="#1D1D1B" d="M54.5,606.5l-15.1,26.1l15.1,26.1h30.1l15.1-26.1l-15.1-26.1H54.5z M83.9,657.4H55.3l-14.4-24.8l14.4-24.8
	h28.6l14.4,24.8L83.9,657.4z"/>
<path fill="#1D1D1B" d="M54.5,601.3h30.1l15.1-26.1l-15.1-26.1H54.5l-15.1,26.1L54.5,601.3z M55.2,550.4h28.7l14.2,24.8L83.7,600
	H55.2l-14.4-24.8L55.2,550.4z"/>
<polygon fill="#1D1D1B" points="600.3,799.4 586.6,775.8 600.3,752.2 600.3,749.7 600.3,749.7 585.2,775.8 600.3,801.8 600.3,801.8 
	"/>
<polygon fill="#1D1D1B" points="600.3,742 586.6,718.5 600.3,695.1 600.3,692.4 600.3,692.4 585.2,718.5 600.3,744.6 600.3,744.6 
	"/>
<polygon fill="#1D1D1B" points="600.3,684.8 586.6,661.2 600.3,637.7 600.3,635.1 600.3,635.1 585.2,661.2 600.3,687.2 600.3,687.2 
	"/>
<polygon fill="#1D1D1B" points="600.3,627.6 586.6,604 600.3,580.4 600.3,577.8 600.3,577.8 585.2,604 600.3,630 600.3,630 "/>
<polygon fill="#1D1D1B" points="544.6,546.8 530.3,571.6 501.6,571.6 487.3,546.8 487.4,546.6 485.9,546.6 485.8,546.8 500.8,572.8 
	531,572.8 546,546.8 545.9,546.6 544.5,546.6 "/>
<polygon fill="#1D1D1B" points="445.4,546.8 431,571.6 402.4,571.6 388.1,546.8 388.2,546.6 386.7,546.6 386.6,546.8 401.6,572.8 
	431.7,572.8 446.8,546.8 446.7,546.6 445.3,546.6 "/>
<polygon fill="#1D1D1B" points="346.3,546.8 331.9,571.6 303.2,571.6 288.8,546.8 289,546.6 287.5,546.6 287.4,546.8 302.5,572.8 
	332.6,572.8 347.7,546.8 347.6,546.6 346.1,546.6 "/>
<polygon fill="#1D1D1B" points="247,546.8 232.7,571.6 204,571.6 189.6,546.7 189.7,546.6 188.3,546.6 188.2,546.8 203.3,572.8 
	233.4,572.8 248.4,546.8 248.3,546.6 246.9,546.6 "/>
<polygon fill="#1D1D1B" points="147.8,546.8 133.4,571.6 104.7,571.6 90.5,546.8 90.5,546.6 89.1,546.6 89,546.8 104,572.8 
	134.2,572.8 149.2,546.8 149.1,546.6 147.7,546.6 "/>
<polygon fill="#1D1D1B" points="35,749.7 5,749.7 5,751.8 5.6,750.9 34.2,750.9 48.6,775.8 34.2,800.5 5.6,800.5 5,799.6 5,801.8 
	35,801.8 50.1,775.8 "/>
<polygon fill="#1D1D1B" points="35,692.4 5,692.4 5,694.8 5.6,693.7 34.2,693.7 48.6,718.5 34.3,743.3 5.6,743.3 5,742.3 5,744.6 
	35,744.6 50.1,718.5 "/>
<polygon fill="#1D1D1B" points="50,546.6 48.6,546.6 48.7,546.8 34.3,571.6 5.6,571.6 5,570.6 5,572.8 35,572.8 50.1,546.7 "/>
<polygon fill="#1D1D1B" points="35,577.8 5,577.8 5,580.2 5.6,579.1 34.2,579.1 48.6,604 34.2,628.8 5.6,628.8 5,627.8 5,630 
	35,630 50.1,604 "/>
<polygon fill="#1D1D1B" points="35,635.1 5,635.1 5,637.4 5.6,636.4 34.2,636.4 48.6,661.2 34.2,686 5.6,686 5,685.1 5,687.2 
	35,687.2 50.1,661.2 "/>
<polygon fill="#1D1D1B" points="586.6,546.7 585.2,546.7 585.2,546.7 600.3,572.7 600.3,572.7 600.3,570.3 "/>
</svg>
