<svg xmlns="http://www.w3.org/2000/svg" viewBox="-2354.019 164.251 20.854 18.936">
  <defs>
    <style>
      .cls-1 {
        fill: rgba(21,21,21,0);
      }

      .cls-1, .cls-3 {
        stroke: #dc2e6f;
      }

      .cls-2 {
        fill: #dc2e6f;
      }

      .cls-3 {
        fill: none;
      }
    </style>
  </defs>
  <g id="Groupe_4061" data-name="Groupe 4061" transform="translate(-2440 61)">
    <g id="Groupe_811" data-name="Groupe 811" transform="translate(95.999 111.351)">
      <path id="Tracé_2952" data-name="Tracé 2952" class="cls-1" d="M7.986,0H2.349A2.35,2.35,0,0,0,0,2.349V7.986a2.35,2.35,0,0,0,2.349,2.349H7.986a2.35,2.35,0,0,0,2.349-2.349V2.349A2.35,2.35,0,0,0,7.986,0Z" transform="translate(0 0)"/>
      <g id="Groupe_809" data-name="Groupe 809" transform="translate(6.107 2.349)">
        <path id="Tracé_150" data-name="Tracé 150" class="cls-2" d="M195.94,76.879a.94.94,0,1,1,.94-.94A.942.942,0,0,1,195.94,76.879Z" transform="translate(-195 -75)"/>
        <path id="Tracé_151" data-name="Tracé 151" class="cls-2" d="M195.94,196.879a.94.94,0,1,1,.94-.94A.942.942,0,0,1,195.94,196.879Z" transform="translate(-195 -191.242)"/>
      </g>
      <g id="Groupe_810" data-name="Groupe 810" transform="translate(2.349 2.349)">
        <path id="Tracé_152" data-name="Tracé 152" class="cls-2" d="M75.94,76.879a.94.94,0,1,1,.94-.94A.942.942,0,0,1,75.94,76.879Z" transform="translate(-75 -75)"/>
        <path id="Tracé_153" data-name="Tracé 153" class="cls-2" d="M75.94,196.879a.94.94,0,1,1,.94-.94A.942.942,0,0,1,75.94,196.879Z" transform="translate(-75 -191.242)"/>
      </g>
    </g>
    <path id="Soustraction_17" data-name="Soustraction 17" class="cls-3" d="M2449.518-48.334h-1.077a.116.116,0,0,0-.03-.009.125.125,0,0,1-.029-.008l-.071-.014a.927.927,0,0,1-.149-.037.7.7,0,0,1-.339-.314c-.2-.3-.387-.618-.572-.922l-.022-.036-.146-.231c-.118-.188-.252-.4-.389-.6a.85.85,0,0,0-.289-.288.188.188,0,0,0-.084-.023.1.1,0,0,0-.068.023l-.028.021a.869.869,0,0,0-.193.182c-.178.254-.349.511-.509.763-.069.11-.136.22-.2.331l-.037.061c-.144.236-.293.477-.446.712a.729.729,0,0,1-.474.365.894.894,0,0,1-.153.017h-3.055l-.116-.012h-.013l-.126-.012c-.214-.034-.325-.133-.339-.305a1.771,1.771,0,0,1,.009-.365,2.772,2.772,0,0,1,.186-.763,11.28,11.28,0,0,1,.738-1.587c.158-.3.324-.592.471-.854l.023-.042c.154-.275.313-.56.464-.844a3.12,3.12,0,0,0,.331-.772.3.3,0,0,0-.22-.415,1.23,1.23,0,0,0-.263-.051c-.24-.015-.48-.023-.713-.031l-.093,0a2.828,2.828,0,0,1-.7-.093.928.928,0,0,1-.5-.289,1.166,1.166,0,0,1-.255-1.069,1.465,1.465,0,0,1,.475-.755,4.21,4.21,0,0,1,.984-.67,13.919,13.919,0,0,1,2.07-.814c.11-.034.219-.073.325-.11l.005,0c.1-.037.213-.076.323-.11a.119.119,0,0,0,.085-.11c.017-.232.033-.458.06-.679a2.944,2.944,0,0,1,.28-.959,1.629,1.629,0,0,1,1.128-.882,2.528,2.528,0,0,1,.541-.058,2.652,2.652,0,0,1,.511.05,1.643,1.643,0,0,1,1.069.687,2.638,2.638,0,0,1,.416,1.256c.016.127.026.259.035.387l0,.037c0,.057.009.114.013.17a.11.11,0,0,0,.077.111l.229.082.2.071a16.936,16.936,0,0,1,2.019.755,4.647,4.647,0,0,1,1.272.806,1.526,1.526,0,0,1,.492.823,1.33,1.33,0,0,1,.017.194v.034c0,.025-.006.05-.009.076l-.005.043-.011.085a.99.99,0,0,1-.7.832,2.741,2.741,0,0,1-.78.111c-.29.009-.551.018-.814.042a.76.76,0,0,0-.374.11.228.228,0,0,0-.119.229,2.068,2.068,0,0,0,.042.227,5.941,5.941,0,0,0,.434.928l.012.022a2.348,2.348,0,0,0-.819,1.782v2.716Z" transform="translate(-2353.518 164.751)"/>
  </g>
</svg>
