<svg xmlns="http://www.w3.org/2000/svg" viewBox="-2288.552 87.284 15.207 15.207">
  <defs>
    <style>
      .cls-1 {
        fill: #dc2e6f;
      }
    </style>
  </defs>
  <path id="path" class="cls-1" d="M8.221,16.516a.691.691,0,0,1-.691.691h-3.8A1.726,1.726,0,0,1,2,15.477V9.6A3.224,3.224,0,0,1,3.033,7.369l6.122-5.2a.691.691,0,0,1,.9,0l6.123,5.2A3.224,3.224,0,0,1,17.207,9.6v5.876a1.727,1.727,0,0,1-1.728,1.73h-3.8a.691.691,0,0,1-.691-.691V12.369H8.221Zm7.258-.691a.345.345,0,0,0,.346-.348V9.6a1.871,1.871,0,0,0-.546-1.179L9.6,3.6,3.929,8.422A1.877,1.877,0,0,0,3.382,9.6v5.875a.344.344,0,0,0,.344.348H6.839V11.677a.691.691,0,0,1,.691-.691h4.147a.691.691,0,0,1,.691.691v4.147Z" transform="translate(-2290.552 85.284)"/>
</svg>
