<svg xmlns="http://www.w3.org/2000/svg" viewBox="-2405.795 121.999 16.735 16.735">
  <defs>
    <style>
      .cls-1 {
        fill: rgba(255,96,96,0);
      }

      .cls-2 {
        fill: #fff;
      }
    </style>
  </defs>
  <g id="icon" transform="translate(-2405.795 121.999)">
    <rect id="bg" class="cls-1" width="16.735" height="16.735" transform="translate(0 0)"/>
    <path id="path" class="cls-2" d="M13.867,3.319h.987A1.65,1.65,0,0,1,16.5,4.969v9.884a1.65,1.65,0,0,1-1.65,1.651H3.65A1.65,1.65,0,0,1,2,14.853V4.969A1.65,1.65,0,0,1,3.65,3.319h.987V2.659a.659.659,0,1,1,1.319,0v.659H7.274V2.659a.659.659,0,0,1,1.319,0v.659H9.911V2.659a.659.659,0,0,1,1.319,0v.659h1.319V2.659a.659.659,0,0,1,1.319,0v.659Zm0,1.319V5.3a.659.659,0,0,1-1.319,0V4.637H11.23V5.3a.659.659,0,0,1-1.319,0V4.637H8.593V5.3a.659.659,0,0,1-1.319,0V4.637H5.956V5.3a.659.659,0,0,1-1.319,0V4.637H3.65a.331.331,0,0,0-.332.332v9.884a.332.332,0,0,0,.332.332h11.2a.331.331,0,0,0,.332-.332V4.969a.332.332,0,0,0-.332-.332ZM5.3,8.922A.659.659,0,1,1,5.3,7.6h6.922a.659.659,0,0,1,0,1.319Zm0,2.307a.659.659,0,1,1,0-1.319h7.911a.659.659,0,1,1,0,1.319Zm0,2.307a.659.659,0,1,1,0-1.319H9.911a.659.659,0,0,1,0,1.319Z" transform="translate(-0.884 -0.884)"/>
  </g>
</svg>
