<svg xmlns="http://www.w3.org/2000/svg" viewBox="-2420 221.12 14.88 14.88">
  <defs>
    <style>
      .cls-1 {
        fill: rgba(255,96,96,0);
      }

      .cls-2 {
        fill: #8a8a8a;
      }
    </style>
  </defs>
  <g id="icon" transform="translate(-2436 -207.88)">
    <rect id="bg" class="cls-1" width="14.88" height="14.88" transform="translate(16 429)"/>
    <path id="path" class="cls-2" d="M7.952,7.952a2.976,2.976,0,1,1,2.976-2.976A2.976,2.976,0,0,1,7.952,7.952Zm0-1.082A1.894,1.894,0,1,0,6.058,4.976,1.894,1.894,0,0,0,7.952,6.87ZM13.584,10.7a3.485,3.485,0,0,1,.219.9q.06.415.093.832l.006.081v.038A1.353,1.353,0,0,1,12.553,13.9h-9.2A1.353,1.353,0,0,1,2,12.551v-.038l.006-.081q.035-.417.093-.832a3.485,3.485,0,0,1,.219-.9C2.736,9.8,5.8,8.493,7.952,8.493S13.168,9.8,13.584,10.7Zm-1.038.412a2.785,2.785,0,0,0-.318-.232,7.864,7.864,0,0,0-1.133-.586,8.347,8.347,0,0,0-3.143-.721,8.348,8.348,0,0,0-3.143.721,7.864,7.864,0,0,0-1.133.586,2.809,2.809,0,0,0-.318.232.822.822,0,0,0-.064.062,3.38,3.38,0,0,0-.122.581c-.027.181-.05.377-.068.574-.01.1-.017.183-.021.236a.271.271,0,0,0,.269.256h9.2a.271.271,0,0,0,.269-.256c0-.053-.011-.134-.021-.235q-.027-.288-.068-.574a3.38,3.38,0,0,0-.122-.581A.769.769,0,0,0,12.546,11.114Z" transform="translate(15.488 428.488)"/>
  </g>
</svg>
