<svg xmlns="http://www.w3.org/2000/svg" xmlns:xlink="http://www.w3.org/1999/xlink" viewBox="-1938.25 1511.085 39.416 35.337">
  <defs>
    <style>
      .cls-1 {
        fill: #dc2e6f;
      }

      .cls-2 {
        fill: #fff;
      }

      .cls-3 {
        filter: url(#Logo-Ombre);
      }
    </style>
    <filter id="Logo-Ombre" x="-1938.25" y="1511.085" width="39.416" height="35.337" filterUnits="userSpaceOnUse">
      <feOffset dy="2" input="SourceAlpha"/>
      <feGaussianBlur stdDeviation="1.5" result="blur"/>
      <feFlood flood-opacity="0.141"/>
      <feComposite operator="in" in2="blur"/>
      <feComposite in="SourceGraphic"/>
    </filter>
  </defs>
  <g id="Groupe_3906" data-name="Groupe 3906" transform="translate(-1988 61)">
    <g class="cls-3" transform="matrix(1, 0, 0, 1, 1988, -61)">
      <path id="Logo-Ombre-2" data-name="Logo-Ombre" class="cls-1" d="M22.83,0H15.136S8.588.036,7.586.036C5.045,4.4,2.541,8.8,0,13.2c2.541,4.4,5.081,8.767,7.622,13.132H22.83c2.5-4.4,5.045-8.8,7.586-13.168C27.839,8.767,25.335,4.366,22.83,0Z" transform="translate(-1933.75 1513.59)"/>
    </g>
    <path id="Tracé_2200" data-name="Tracé 2200" class="cls-2" d="M13.023,14.217H9.588c-.019-.01-.048-.01-.067-.019a1.884,1.884,0,0,1-.247-.057.8.8,0,0,1-.381-.352c-.228-.352-.447-.714-.666-1.075-.2-.314-.39-.628-.6-.932a.957.957,0,0,0-.324-.324.159.159,0,0,0-.171,0,1.121,1.121,0,0,0-.247.228q-.3.428-.571.856c-.257.409-.5.828-.771,1.237a.826.826,0,0,1-.533.409,1.048,1.048,0,0,1-.171.019H1.415l-.285-.029c-.181-.029-.362-.1-.381-.343a1.962,1.962,0,0,1,.01-.409,3.129,3.129,0,0,1,.209-.856A12.565,12.565,0,0,1,1.8,10.791c.352-.657.723-1.294,1.075-1.951a3.5,3.5,0,0,0,.371-.866.334.334,0,0,0-.247-.466A1.472,1.472,0,0,0,2.7,7.452c-.3-.019-.609-.029-.9-.038a3.157,3.157,0,0,1-.79-.1,1.047,1.047,0,0,1-.561-.324,1.309,1.309,0,0,1-.285-1.2A1.638,1.638,0,0,1,.691,4.94a4.817,4.817,0,0,1,1.1-.752,15.681,15.681,0,0,1,2.322-.913c.247-.076.485-.171.733-.247a.134.134,0,0,0,.1-.124c.019-.257.038-.514.067-.761a3.324,3.324,0,0,1,.314-1.075A1.817,1.817,0,0,1,6.591.077a2.9,2.9,0,0,1,1.18-.01,1.852,1.852,0,0,1,1.2.771,3.019,3.019,0,0,1,.466,1.408c.029.219.038.447.057.666a.123.123,0,0,0,.086.124c.162.057.314.114.476.171a19.037,19.037,0,0,1,2.265.847,5.333,5.333,0,0,1,1.427.9,1.685,1.685,0,0,1,.552.923,1.562,1.562,0,0,1,.019.219v.038l-.029.228a1.1,1.1,0,0,1-.78.932,3.041,3.041,0,0,1-.875.124c-.3.01-.609.019-.913.048a.853.853,0,0,0-.419.124.257.257,0,0,0-.133.257,2.434,2.434,0,0,0,.048.257,7.369,7.369,0,0,0,.542,1.142c.333.609.676,1.208,1.009,1.817A10.1,10.1,0,0,1,13.5,12.7a3.362,3.362,0,0,1,.209,1.056.4.4,0,0,1-.409.447,1.339,1.339,0,0,0-.276.01" transform="translate(62.377 1458.428)"/>
  </g>
</svg>
