<svg xmlns="http://www.w3.org/2000/svg" xmlns:xlink="http://www.w3.org/1999/xlink" viewBox="-1048.25 1511.085 39.416 35.337">
  <defs>
    <style>
      .cls-1 {
        fill: #dc2e6f;
      }

      .cls-2 {
        fill: #fff;
      }

      .cls-3 {
        filter: url(#Logo-Ombre);
      }
    </style>
    <filter id="Logo-Ombre" x="-1048.25" y="1511.085" width="39.416" height="35.337" filterUnits="userSpaceOnUse">
      <feOffset dy="2" input="SourceAlpha"/>
      <feGaussianBlur stdDeviation="1.5" result="blur"/>
      <feFlood flood-opacity="0.141"/>
      <feComposite operator="in" in2="blur"/>
      <feComposite in="SourceGraphic"/>
    </filter>
  </defs>
  <g id="Groupe_3907" data-name="Groupe 3907" transform="translate(-1098 61)">
    <g class="cls-3" transform="matrix(1, 0, 0, 1, 1098, -61)">
      <path id="Logo-Ombre-2" data-name="Logo-Ombre" class="cls-1" d="M22.83,0H15.136S8.588.036,7.586.036C5.045,4.4,2.541,8.8,0,13.2c2.541,4.4,5.081,8.767,7.622,13.132H22.83c2.5-4.4,5.045-8.8,7.586-13.168C27.839,8.767,25.335,4.366,22.83,0Z" transform="translate(-1043.75 1513.59)"/>
    </g>
    <g id="Groupe_573" data-name="Groupe 573" transform="translate(63.169 1458.055)">
      <g id="Groupe_106" data-name="Groupe 106" transform="translate(-0.069 0.001)">
        <path id="Tracé_83" data-name="Tracé 83" class="cls-2" d="M6.143,6.305H9.507a1.9,1.9,0,0,1,1.4.481A1.622,1.622,0,0,1,9.832,9.569c-.6.022-1.207,0-1.822,0-.168,0-.224.034-.224.2,0,1.565.011,3.13.011,4.706,0,.268-.011.537-.011.8a.747.747,0,0,0,.056.212c.067-.034.123-.056.19-.089a.154.154,0,0,0,.045-.034c.447-.324.894-.637,1.341-.961.782-.57,1.576-1.129,2.359-1.7.145-.112.3-.212.458-.313s.123-.268.123-.436v-5.3A8.245,8.245,0,0,0,12.2,4.774a6.849,6.849,0,0,0-.794-1.889,6.2,6.2,0,0,0-.95-1.151A6.437,6.437,0,0,0,8.736.56,5.836,5.836,0,0,0,7.238.09a6.33,6.33,0,0,0-3,.212A6.162,6.162,0,0,0,2.085,1.521,6.5,6.5,0,0,0,.744,3.153,5.669,5.669,0,0,0-.039,5.925c-.022,1.844,0,3.7-.011,5.544a5.045,5.045,0,0,0-.011.581.457.457,0,0,0,.145.3c.324.268.671.5,1.006.749.481.347.961.682,1.442,1.028.447.313.883.637,1.319.961.145.112.291.224.447.335a.6.6,0,0,0,.2.056,1.047,1.047,0,0,0,.045-.179c0-.089-.011-.19-.011-.279V12.61c0-.928,0-1.867.011-2.795,0-.2-.034-.246-.235-.246h-1.7a1.637,1.637,0,0,1-1.464-.816,1.6,1.6,0,0,1,.425-2.113,1.8,1.8,0,0,1,1.14-.335Zm-.011.268h0c-1.174,0-2.359-.011-3.532,0a1.336,1.336,0,0,0-1.207.637,1.29,1.29,0,0,0-.056,1.341A1.246,1.246,0,0,0,2.5,9.267c.7,0,1.4,0,2.1-.011a.165.165,0,0,1,.19.168c.011.134.022.257.022.391,0,.861,0,1.721-.011,2.582,0,1.1-.011,2.191-.011,3.286a.654.654,0,0,0,.022.145A.206.206,0,0,0,5.036,16a.339.339,0,0,0,.19-.145.454.454,0,0,0,.045-.212V9.178c0-.291-.112-.391-.391-.38-.246.011-.5,0-.749,0-.537,0-1.073-.011-1.61,0a.835.835,0,0,1-.749-.447.86.86,0,0,1,.6-1.3,6.452,6.452,0,0,1,.8-.022H9.653a1.334,1.334,0,0,1,.414.067.894.894,0,0,1,.57.928A.883.883,0,0,1,9.72,8.8c-.794.011-1.587,0-2.392.011-.224,0-.313.078-.313.313v6.159c0,.168,0,.324.011.492a.2.2,0,0,0,.268.212c.156-.034.19-.156.19-.279a2.336,2.336,0,0,0-.011-.279V12.621c0-1.017,0-2.034-.011-3.052,0-.224.067-.3.291-.3H9.709A1.288,1.288,0,0,0,10.972,8.5a1.361,1.361,0,0,0-.279-1.531,1.605,1.605,0,0,0-1.129-.391Z" transform="translate(0.069 -0.001)"/>
        <path id="Tracé_84" data-name="Tracé 84" class="cls-2" d="M6.143,6.305H2.722a1.8,1.8,0,0,0-1.14.335,1.577,1.577,0,0,0-.436,2.113,1.647,1.647,0,0,0,1.464.816h1.7c.2,0,.246.056.235.246-.011.928-.011,1.867-.011,2.795v2.414c0,.089.011.19.011.279a.526.526,0,0,1-.045.179,1.058,1.058,0,0,1-.2-.056c-.156-.1-.291-.224-.447-.335-.436-.324-.883-.648-1.319-.961-.481-.347-.961-.682-1.442-1.028-.335-.246-.682-.492-1.006-.749a.513.513,0,0,1-.145-.3A5.045,5.045,0,0,1-.05,11.47c.011-1.844-.011-3.7.011-5.544A5.669,5.669,0,0,1,.744,3.153,5.921,5.921,0,0,1,2.085,1.521,6.162,6.162,0,0,1,4.243.3a6.33,6.33,0,0,1,3-.212,5.836,5.836,0,0,1,1.5.469,6.342,6.342,0,0,1,1.71,1.163,6.2,6.2,0,0,1,.95,1.151,6.575,6.575,0,0,1,.794,1.889,7.709,7.709,0,0,1,.156,1.889v5.3c0,.168.034.324-.123.436s-.3.212-.458.313c-.782.57-1.576,1.129-2.359,1.7-.447.324-.894.637-1.341.961-.011.011-.034.034-.045.034-.067.034-.123.056-.19.089a.747.747,0,0,1-.056-.212c0-.268.011-.537.011-.8,0-1.565,0-3.13-.011-4.706,0-.168.045-.2.224-.2.6,0,1.207.022,1.822,0a1.631,1.631,0,0,0,1.386-.883,1.6,1.6,0,0,0-.313-1.9,1.945,1.945,0,0,0-1.4-.481c-1.107.011-2.236.011-3.353.011Z" transform="translate(0.069 -0.001)"/>
        <path id="Tracé_85" data-name="Tracé 85" class="cls-2" d="M16.01,58.778h3.454a1.605,1.605,0,0,1,1.129.391,1.346,1.346,0,0,1,.279,1.531,1.288,1.288,0,0,1-1.263.771H17.653c-.224,0-.291.078-.291.3,0,1.017.011,2.034.011,3.052v2.806a2.337,2.337,0,0,1,.011.279c-.011.123-.034.257-.19.279s-.268-.045-.268-.212,0-.324-.011-.492V61.326c0-.224.078-.313.313-.313.794,0,1.587,0,2.392-.011a.883.883,0,0,0,.917-.771.9.9,0,0,0-.57-.928,1.334,1.334,0,0,0-.414-.067H13.081a6.393,6.393,0,0,0-.8.022A.88.88,0,0,0,12.421,61H14.78c.279-.011.391.089.391.38v6.461a.454.454,0,0,1-.045.212.339.339,0,0,1-.19.145.213.213,0,0,1-.224-.168.654.654,0,0,1-.022-.145c0-1.1.011-2.191.011-3.286,0-.861.011-1.721.011-2.582,0-.134-.011-.257-.022-.391a.165.165,0,0,0-.19-.168c-.715.022-1.42.022-2.124.022a1.253,1.253,0,0,1-1.163-.715,1.289,1.289,0,0,1,.056-1.341,1.336,1.336,0,0,1,1.207-.637c1.174-.022,2.347-.011,3.532-.011Z" transform="translate(-9.809 -52.205)"/>
      </g>
    </g>
  </g>
</svg>
