<svg xmlns="http://www.w3.org/2000/svg" xmlns:xlink="http://www.w3.org/1999/xlink" viewBox="-1493.25 1511.085 39.416 35.337">
  <defs>
    <style>
      .cls-1 {
        fill: #dc2e6f;
      }

      .cls-2 {
        fill: #fff;
      }

      .cls-3 {
        filter: url(#Logo-Ombre);
      }
    </style>
    <filter id="Logo-Ombre" x="-1493.25" y="1511.085" width="39.416" height="35.337" filterUnits="userSpaceOnUse">
      <feOffset dy="2" input="SourceAlpha"/>
      <feGaussianBlur stdDeviation="1.5" result="blur"/>
      <feFlood flood-opacity="0.141"/>
      <feComposite operator="in" in2="blur"/>
      <feComposite in="SourceGraphic"/>
    </filter>
  </defs>
  <g id="Groupe_3908" data-name="Groupe 3908" transform="translate(-1543 61)">
    <g class="cls-3" transform="matrix(1, 0, 0, 1, 1543, -61)">
      <path id="Logo-Ombre-2" data-name="Logo-Ombre" class="cls-1" d="M22.83,0H15.136S8.588.036,7.586.036C5.045,4.4,2.541,8.8,0,13.2c2.541,4.4,5.081,8.767,7.622,13.132H22.83c2.5-4.4,5.045-8.8,7.586-13.168C27.839,8.767,25.335,4.366,22.83,0Z" transform="translate(-1488.75 1513.59)"/>
    </g>
    <g id="Groupe_570" data-name="Groupe 570" transform="translate(61.673 1457.421)">
      <g id="Groupe_231" data-name="Groupe 231" transform="translate(0 0)">
        <path id="Tracé_337" data-name="Tracé 337" class="cls-2" d="M7.148,110.5A7.152,7.152,0,0,0,13.46,99.989a1.259,1.259,0,0,1-.177.012c-.033,0-.068,0-.1,0l-.909-.07-.654.654a5.261,5.261,0,1,1-1.7-1.7l.592-.592-.08-1.043a1.373,1.373,0,0,1,0-.249,7.148,7.148,0,1,0-3.282,13.5Z" transform="translate(0 -94.595)"/>
        <path id="Tracé_338" data-name="Tracé 338" class="cls-2" d="M221.019,315.274q.07,0,.14.005l1.32-1.32.028-.028a3.523,3.523,0,1,0,1.7,1.7l-.028.028-1.32,1.32q.005.07.005.14a1.846,1.846,0,1,1-1.845-1.847Z" transform="translate(-213.871 -308.367)"/>
        <path id="Tracé_339" data-name="Tracé 339" class="cls-2" d="M436.961,2.379l.424-.424a.493.493,0,0,0,0-.7l-.294-.3a.491.491,0,0,0-.7,0l-.486.486-.1-1.293a.167.167,0,0,0-.284-.105l-1.911,1.911a.835.835,0,0,0-.242.654l.005.075.092,1.2-.691.691-1.243,1.243-.028.028-1.2,1.2-.534.534a.412.412,0,0,0-.12.262l-.033.419a.417.417,0,0,0,.415.451h.022l.442-.022a.411.411,0,0,0,.274-.122l.529-.529,1.2-1.2.028-.028,1.243-1.243.751-.751,1.091.083.048,0c.022,0,.043,0,.063,0a.839.839,0,0,0,.591-.244l1.909-1.909a.167.167,0,0,0-.105-.284Z" transform="translate(-422.446 0)"/>
      </g>
    </g>
  </g>
</svg>
